<?xml version="1.0" encoding="utf-8" standalone="no"?>
<!DOCTYPE svg PUBLIC "-//W3C//DTD SVG 1.1//EN"
  "http://www.w3.org/Graphics/SVG/1.1/DTD/svg11.dtd">
<svg xmlns:xlink="http://www.w3.org/1999/xlink" width="864pt" height="360pt" viewBox="0 0 864 360" xmlns="http://www.w3.org/2000/svg" version="1.1">
 <metadata>
  <rdf:RDF xmlns:dc="http://purl.org/dc/elements/1.1/" xmlns:cc="http://creativecommons.org/ns#" xmlns:rdf="http://www.w3.org/1999/02/22-rdf-syntax-ns#">
   <cc:Work>
    <dc:type rdf:resource="http://purl.org/dc/dcmitype/StillImage"/>
    <dc:date>2023-01-10T09:00:13.747433</dc:date>
    <dc:format>image/svg+xml</dc:format>
    <dc:creator>
     <cc:Agent>
      <dc:title>Matplotlib v3.6.2, https://matplotlib.org/</dc:title>
     </cc:Agent>
    </dc:creator>
   </cc:Work>
  </rdf:RDF>
 </metadata>
 <defs>
  <style type="text/css">*{stroke-linejoin: round; stroke-linecap: butt}</style>
 </defs>
 <g id="figure_1">
  <g id="patch_1">
   <path d="M 0 360 
L 864 360 
L 864 0 
L 0 0 
L 0 360 
z
" style="fill: none; opacity: 0"/>
  </g>
  <g id="axes_1">
   <g id="patch_2">
    <path d="M 108 320.4 
L 777.6 320.4 
L 777.6 43.2 
L 108 43.2 
L 108 320.4 
z
" style="fill: none; opacity: 0"/>
   </g>
   <g id="matplotlib.axis_1">
    <g id="xtick_1">
     <g id="line2d_1">
      <path d="M 112.26678 320.4 
L 112.26678 43.2 
" clip-path="url(#p11bef2c018)" style="fill: none; stroke-dasharray: 5.12,1.28,0.8,1.28; stroke-dashoffset: 0; stroke: #b0b0b0; stroke-width: 0.8"/>
     </g>
     <g id="line2d_2">
      <defs>
       <path id="m86f75ffa8e" d="M 0 0 
L 0 3.5 
" style="stroke: #a9a9a9; stroke-width: 0.8"/>
      </defs>
      <g>
       <use xlink:href="#m86f75ffa8e" x="112.26678" y="320.4" style="fill: #a9a9a9; stroke: #a9a9a9; stroke-width: 0.8"/>
      </g>
     </g>
     <g id="text_1">
      <!-- 2021-07 -->
      <g style="fill: #a9a9a9" transform="translate(91.375374 334.998438) scale(0.1 -0.1)">
       <defs>
        <path id="DejaVuSans-32" d="M 1228 531 
L 3431 531 
L 3431 0 
L 469 0 
L 469 531 
Q 828 903 1448 1529 
Q 2069 2156 2228 2338 
Q 2531 2678 2651 2914 
Q 2772 3150 2772 3378 
Q 2772 3750 2511 3984 
Q 2250 4219 1831 4219 
Q 1534 4219 1204 4116 
Q 875 4013 500 3803 
L 500 4441 
Q 881 4594 1212 4672 
Q 1544 4750 1819 4750 
Q 2544 4750 2975 4387 
Q 3406 4025 3406 3419 
Q 3406 3131 3298 2873 
Q 3191 2616 2906 2266 
Q 2828 2175 2409 1742 
Q 1991 1309 1228 531 
z
" transform="scale(0.015625)"/>
        <path id="DejaVuSans-30" d="M 2034 4250 
Q 1547 4250 1301 3770 
Q 1056 3291 1056 2328 
Q 1056 1369 1301 889 
Q 1547 409 2034 409 
Q 2525 409 2770 889 
Q 3016 1369 3016 2328 
Q 3016 3291 2770 3770 
Q 2525 4250 2034 4250 
z
M 2034 4750 
Q 2819 4750 3233 4129 
Q 3647 3509 3647 2328 
Q 3647 1150 3233 529 
Q 2819 -91 2034 -91 
Q 1250 -91 836 529 
Q 422 1150 422 2328 
Q 422 3509 836 4129 
Q 1250 4750 2034 4750 
z
" transform="scale(0.015625)"/>
        <path id="DejaVuSans-31" d="M 794 531 
L 1825 531 
L 1825 4091 
L 703 3866 
L 703 4441 
L 1819 4666 
L 2450 4666 
L 2450 531 
L 3481 531 
L 3481 0 
L 794 0 
L 794 531 
z
" transform="scale(0.015625)"/>
        <path id="DejaVuSans-2d" d="M 313 2009 
L 1997 2009 
L 1997 1497 
L 313 1497 
L 313 2009 
z
" transform="scale(0.015625)"/>
        <path id="DejaVuSans-37" d="M 525 4666 
L 3525 4666 
L 3525 4397 
L 1831 0 
L 1172 0 
L 2766 4134 
L 525 4134 
L 525 4666 
z
" transform="scale(0.015625)"/>
       </defs>
       <use xlink:href="#DejaVuSans-32"/>
       <use xlink:href="#DejaVuSans-30" x="63.623047"/>
       <use xlink:href="#DejaVuSans-32" x="127.246094"/>
       <use xlink:href="#DejaVuSans-31" x="190.869141"/>
       <use xlink:href="#DejaVuSans-2d" x="254.492188"/>
       <use xlink:href="#DejaVuSans-30" x="290.576172"/>
       <use xlink:href="#DejaVuSans-37" x="354.199219"/>
      </g>
     </g>
    </g>
    <g id="xtick_2">
     <g id="line2d_3">
      <path d="M 182.810875 320.4 
L 182.810875 43.2 
" clip-path="url(#p11bef2c018)" style="fill: none; stroke-dasharray: 5.12,1.28,0.8,1.28; stroke-dashoffset: 0; stroke: #b0b0b0; stroke-width: 0.8"/>
     </g>
     <g id="line2d_4">
      <g>
       <use xlink:href="#m86f75ffa8e" x="182.810875" y="320.4" style="fill: #a9a9a9; stroke: #a9a9a9; stroke-width: 0.8"/>
      </g>
     </g>
     <g id="text_2">
      <!-- 2021-09 -->
      <g style="fill: #a9a9a9" transform="translate(161.919469 334.998438) scale(0.1 -0.1)">
       <defs>
        <path id="DejaVuSans-39" d="M 703 97 
L 703 672 
Q 941 559 1184 500 
Q 1428 441 1663 441 
Q 2288 441 2617 861 
Q 2947 1281 2994 2138 
Q 2813 1869 2534 1725 
Q 2256 1581 1919 1581 
Q 1219 1581 811 2004 
Q 403 2428 403 3163 
Q 403 3881 828 4315 
Q 1253 4750 1959 4750 
Q 2769 4750 3195 4129 
Q 3622 3509 3622 2328 
Q 3622 1225 3098 567 
Q 2575 -91 1691 -91 
Q 1453 -91 1209 -44 
Q 966 3 703 97 
z
M 1959 2075 
Q 2384 2075 2632 2365 
Q 2881 2656 2881 3163 
Q 2881 3666 2632 3958 
Q 2384 4250 1959 4250 
Q 1534 4250 1286 3958 
Q 1038 3666 1038 3163 
Q 1038 2656 1286 2365 
Q 1534 2075 1959 2075 
z
" transform="scale(0.015625)"/>
       </defs>
       <use xlink:href="#DejaVuSans-32"/>
       <use xlink:href="#DejaVuSans-30" x="63.623047"/>
       <use xlink:href="#DejaVuSans-32" x="127.246094"/>
       <use xlink:href="#DejaVuSans-31" x="190.869141"/>
       <use xlink:href="#DejaVuSans-2d" x="254.492188"/>
       <use xlink:href="#DejaVuSans-30" x="290.576172"/>
       <use xlink:href="#DejaVuSans-39" x="354.199219"/>
      </g>
     </g>
    </g>
    <g id="xtick_3">
     <g id="line2d_5">
      <path d="M 252.217162 320.4 
L 252.217162 43.2 
" clip-path="url(#p11bef2c018)" style="fill: none; stroke-dasharray: 5.12,1.28,0.8,1.28; stroke-dashoffset: 0; stroke: #b0b0b0; stroke-width: 0.8"/>
     </g>
     <g id="line2d_6">
      <g>
       <use xlink:href="#m86f75ffa8e" x="252.217162" y="320.4" style="fill: #a9a9a9; stroke: #a9a9a9; stroke-width: 0.8"/>
      </g>
     </g>
     <g id="text_3">
      <!-- 2021-11 -->
      <g style="fill: #a9a9a9" transform="translate(231.325756 334.998438) scale(0.1 -0.1)">
       <use xlink:href="#DejaVuSans-32"/>
       <use xlink:href="#DejaVuSans-30" x="63.623047"/>
       <use xlink:href="#DejaVuSans-32" x="127.246094"/>
       <use xlink:href="#DejaVuSans-31" x="190.869141"/>
       <use xlink:href="#DejaVuSans-2d" x="254.492188"/>
       <use xlink:href="#DejaVuSans-31" x="290.576172"/>
       <use xlink:href="#DejaVuSans-31" x="354.199219"/>
      </g>
     </g>
    </g>
    <g id="xtick_4">
     <g id="line2d_7">
      <path d="M 321.623449 320.4 
L 321.623449 43.2 
" clip-path="url(#p11bef2c018)" style="fill: none; stroke-dasharray: 5.12,1.28,0.8,1.28; stroke-dashoffset: 0; stroke: #b0b0b0; stroke-width: 0.8"/>
     </g>
     <g id="line2d_8">
      <g>
       <use xlink:href="#m86f75ffa8e" x="321.623449" y="320.4" style="fill: #a9a9a9; stroke: #a9a9a9; stroke-width: 0.8"/>
      </g>
     </g>
     <g id="text_4">
      <!-- 2022-01 -->
      <g style="fill: #a9a9a9" transform="translate(300.732043 334.998438) scale(0.1 -0.1)">
       <use xlink:href="#DejaVuSans-32"/>
       <use xlink:href="#DejaVuSans-30" x="63.623047"/>
       <use xlink:href="#DejaVuSans-32" x="127.246094"/>
       <use xlink:href="#DejaVuSans-32" x="190.869141"/>
       <use xlink:href="#DejaVuSans-2d" x="254.492188"/>
       <use xlink:href="#DejaVuSans-30" x="290.576172"/>
       <use xlink:href="#DejaVuSans-31" x="354.199219"/>
      </g>
     </g>
    </g>
    <g id="xtick_5">
     <g id="line2d_9">
      <path d="M 388.754121 320.4 
L 388.754121 43.2 
" clip-path="url(#p11bef2c018)" style="fill: none; stroke-dasharray: 5.12,1.28,0.8,1.28; stroke-dashoffset: 0; stroke: #b0b0b0; stroke-width: 0.8"/>
     </g>
     <g id="line2d_10">
      <g>
       <use xlink:href="#m86f75ffa8e" x="388.754121" y="320.4" style="fill: #a9a9a9; stroke: #a9a9a9; stroke-width: 0.8"/>
      </g>
     </g>
     <g id="text_5">
      <!-- 2022-03 -->
      <g style="fill: #a9a9a9" transform="translate(367.862714 334.998438) scale(0.1 -0.1)">
       <defs>
        <path id="DejaVuSans-33" d="M 2597 2516 
Q 3050 2419 3304 2112 
Q 3559 1806 3559 1356 
Q 3559 666 3084 287 
Q 2609 -91 1734 -91 
Q 1441 -91 1130 -33 
Q 819 25 488 141 
L 488 750 
Q 750 597 1062 519 
Q 1375 441 1716 441 
Q 2309 441 2620 675 
Q 2931 909 2931 1356 
Q 2931 1769 2642 2001 
Q 2353 2234 1838 2234 
L 1294 2234 
L 1294 2753 
L 1863 2753 
Q 2328 2753 2575 2939 
Q 2822 3125 2822 3475 
Q 2822 3834 2567 4026 
Q 2313 4219 1838 4219 
Q 1578 4219 1281 4162 
Q 984 4106 628 3988 
L 628 4550 
Q 988 4650 1302 4700 
Q 1616 4750 1894 4750 
Q 2613 4750 3031 4423 
Q 3450 4097 3450 3541 
Q 3450 3153 3228 2886 
Q 3006 2619 2597 2516 
z
" transform="scale(0.015625)"/>
       </defs>
       <use xlink:href="#DejaVuSans-32"/>
       <use xlink:href="#DejaVuSans-30" x="63.623047"/>
       <use xlink:href="#DejaVuSans-32" x="127.246094"/>
       <use xlink:href="#DejaVuSans-32" x="190.869141"/>
       <use xlink:href="#DejaVuSans-2d" x="254.492188"/>
       <use xlink:href="#DejaVuSans-30" x="290.576172"/>
       <use xlink:href="#DejaVuSans-33" x="354.199219"/>
      </g>
     </g>
    </g>
    <g id="xtick_6">
     <g id="line2d_11">
      <path d="M 458.160408 320.4 
L 458.160408 43.2 
" clip-path="url(#p11bef2c018)" style="fill: none; stroke-dasharray: 5.12,1.28,0.8,1.28; stroke-dashoffset: 0; stroke: #b0b0b0; stroke-width: 0.8"/>
     </g>
     <g id="line2d_12">
      <g>
       <use xlink:href="#m86f75ffa8e" x="458.160408" y="320.4" style="fill: #a9a9a9; stroke: #a9a9a9; stroke-width: 0.8"/>
      </g>
     </g>
     <g id="text_6">
      <!-- 2022-05 -->
      <g style="fill: #a9a9a9" transform="translate(437.269002 334.998438) scale(0.1 -0.1)">
       <defs>
        <path id="DejaVuSans-35" d="M 691 4666 
L 3169 4666 
L 3169 4134 
L 1269 4134 
L 1269 2991 
Q 1406 3038 1543 3061 
Q 1681 3084 1819 3084 
Q 2600 3084 3056 2656 
Q 3513 2228 3513 1497 
Q 3513 744 3044 326 
Q 2575 -91 1722 -91 
Q 1428 -91 1123 -41 
Q 819 9 494 109 
L 494 744 
Q 775 591 1075 516 
Q 1375 441 1709 441 
Q 2250 441 2565 725 
Q 2881 1009 2881 1497 
Q 2881 1984 2565 2268 
Q 2250 2553 1709 2553 
Q 1456 2553 1204 2497 
Q 953 2441 691 2322 
L 691 4666 
z
" transform="scale(0.015625)"/>
       </defs>
       <use xlink:href="#DejaVuSans-32"/>
       <use xlink:href="#DejaVuSans-30" x="63.623047"/>
       <use xlink:href="#DejaVuSans-32" x="127.246094"/>
       <use xlink:href="#DejaVuSans-32" x="190.869141"/>
       <use xlink:href="#DejaVuSans-2d" x="254.492188"/>
       <use xlink:href="#DejaVuSans-30" x="290.576172"/>
       <use xlink:href="#DejaVuSans-35" x="354.199219"/>
      </g>
     </g>
    </g>
    <g id="xtick_7">
     <g id="line2d_13">
      <path d="M 527.566695 320.4 
L 527.566695 43.2 
" clip-path="url(#p11bef2c018)" style="fill: none; stroke-dasharray: 5.12,1.28,0.8,1.28; stroke-dashoffset: 0; stroke: #b0b0b0; stroke-width: 0.8"/>
     </g>
     <g id="line2d_14">
      <g>
       <use xlink:href="#m86f75ffa8e" x="527.566695" y="320.4" style="fill: #a9a9a9; stroke: #a9a9a9; stroke-width: 0.8"/>
      </g>
     </g>
     <g id="text_7">
      <!-- 2022-07 -->
      <g style="fill: #a9a9a9" transform="translate(506.675289 334.998438) scale(0.1 -0.1)">
       <use xlink:href="#DejaVuSans-32"/>
       <use xlink:href="#DejaVuSans-30" x="63.623047"/>
       <use xlink:href="#DejaVuSans-32" x="127.246094"/>
       <use xlink:href="#DejaVuSans-32" x="190.869141"/>
       <use xlink:href="#DejaVuSans-2d" x="254.492188"/>
       <use xlink:href="#DejaVuSans-30" x="290.576172"/>
       <use xlink:href="#DejaVuSans-37" x="354.199219"/>
      </g>
     </g>
    </g>
    <g id="xtick_8">
     <g id="line2d_15">
      <path d="M 598.11079 320.4 
L 598.11079 43.2 
" clip-path="url(#p11bef2c018)" style="fill: none; stroke-dasharray: 5.12,1.28,0.8,1.28; stroke-dashoffset: 0; stroke: #b0b0b0; stroke-width: 0.8"/>
     </g>
     <g id="line2d_16">
      <g>
       <use xlink:href="#m86f75ffa8e" x="598.11079" y="320.4" style="fill: #a9a9a9; stroke: #a9a9a9; stroke-width: 0.8"/>
      </g>
     </g>
     <g id="text_8">
      <!-- 2022-09 -->
      <g style="fill: #a9a9a9" transform="translate(577.219384 334.998438) scale(0.1 -0.1)">
       <use xlink:href="#DejaVuSans-32"/>
       <use xlink:href="#DejaVuSans-30" x="63.623047"/>
       <use xlink:href="#DejaVuSans-32" x="127.246094"/>
       <use xlink:href="#DejaVuSans-32" x="190.869141"/>
       <use xlink:href="#DejaVuSans-2d" x="254.492188"/>
       <use xlink:href="#DejaVuSans-30" x="290.576172"/>
       <use xlink:href="#DejaVuSans-39" x="354.199219"/>
      </g>
     </g>
    </g>
    <g id="xtick_9">
     <g id="line2d_17">
      <path d="M 667.517077 320.4 
L 667.517077 43.2 
" clip-path="url(#p11bef2c018)" style="fill: none; stroke-dasharray: 5.12,1.28,0.8,1.28; stroke-dashoffset: 0; stroke: #b0b0b0; stroke-width: 0.8"/>
     </g>
     <g id="line2d_18">
      <g>
       <use xlink:href="#m86f75ffa8e" x="667.517077" y="320.4" style="fill: #a9a9a9; stroke: #a9a9a9; stroke-width: 0.8"/>
      </g>
     </g>
     <g id="text_9">
      <!-- 2022-11 -->
      <g style="fill: #a9a9a9" transform="translate(646.625671 334.998438) scale(0.1 -0.1)">
       <use xlink:href="#DejaVuSans-32"/>
       <use xlink:href="#DejaVuSans-30" x="63.623047"/>
       <use xlink:href="#DejaVuSans-32" x="127.246094"/>
       <use xlink:href="#DejaVuSans-32" x="190.869141"/>
       <use xlink:href="#DejaVuSans-2d" x="254.492188"/>
       <use xlink:href="#DejaVuSans-31" x="290.576172"/>
       <use xlink:href="#DejaVuSans-31" x="354.199219"/>
      </g>
     </g>
    </g>
    <g id="xtick_10">
     <g id="line2d_19">
      <path d="M 736.923364 320.4 
L 736.923364 43.2 
" clip-path="url(#p11bef2c018)" style="fill: none; stroke-dasharray: 5.12,1.28,0.8,1.28; stroke-dashoffset: 0; stroke: #b0b0b0; stroke-width: 0.8"/>
     </g>
     <g id="line2d_20">
      <g>
       <use xlink:href="#m86f75ffa8e" x="736.923364" y="320.4" style="fill: #a9a9a9; stroke: #a9a9a9; stroke-width: 0.8"/>
      </g>
     </g>
     <g id="text_10">
      <!-- 2023-01 -->
      <g style="fill: #a9a9a9" transform="translate(716.031958 334.998438) scale(0.1 -0.1)">
       <use xlink:href="#DejaVuSans-32"/>
       <use xlink:href="#DejaVuSans-30" x="63.623047"/>
       <use xlink:href="#DejaVuSans-32" x="127.246094"/>
       <use xlink:href="#DejaVuSans-33" x="190.869141"/>
       <use xlink:href="#DejaVuSans-2d" x="254.492188"/>
       <use xlink:href="#DejaVuSans-30" x="290.576172"/>
       <use xlink:href="#DejaVuSans-31" x="354.199219"/>
      </g>
     </g>
    </g>
   </g>
   <g id="matplotlib.axis_2">
    <g id="ytick_1">
     <g id="line2d_21">
      <path d="M 108 307.871227 
L 777.6 307.871227 
" clip-path="url(#p11bef2c018)" style="fill: none; stroke-dasharray: 5.12,1.28,0.8,1.28; stroke-dashoffset: 0; stroke: #b0b0b0; stroke-width: 0.8"/>
     </g>
     <g id="line2d_22">
      <defs>
       <path id="mf8b4db27a1" d="M 0 0 
L -3.5 0 
" style="stroke: #a9a9a9; stroke-width: 0.8"/>
      </defs>
      <g>
       <use xlink:href="#mf8b4db27a1" x="108" y="307.871227" style="fill: #a9a9a9; stroke: #a9a9a9; stroke-width: 0.8"/>
      </g>
     </g>
     <g id="text_11">
      <!-- 0 -->
      <g style="fill: #a9a9a9" transform="translate(94.6375 311.670445) scale(0.1 -0.1)">
       <use xlink:href="#DejaVuSans-30"/>
      </g>
     </g>
    </g>
    <g id="ytick_2">
     <g id="line2d_23">
      <path d="M 108 279.380554 
L 777.6 279.380554 
" clip-path="url(#p11bef2c018)" style="fill: none; stroke-dasharray: 5.12,1.28,0.8,1.28; stroke-dashoffset: 0; stroke: #b0b0b0; stroke-width: 0.8"/>
     </g>
     <g id="line2d_24">
      <g>
       <use xlink:href="#mf8b4db27a1" x="108" y="279.380554" style="fill: #a9a9a9; stroke: #a9a9a9; stroke-width: 0.8"/>
      </g>
     </g>
     <g id="text_12">
      <!-- 400 -->
      <g style="fill: #a9a9a9" transform="translate(81.9125 283.179773) scale(0.1 -0.1)">
       <defs>
        <path id="DejaVuSans-34" d="M 2419 4116 
L 825 1625 
L 2419 1625 
L 2419 4116 
z
M 2253 4666 
L 3047 4666 
L 3047 1625 
L 3713 1625 
L 3713 1100 
L 3047 1100 
L 3047 0 
L 2419 0 
L 2419 1100 
L 313 1100 
L 313 1709 
L 2253 4666 
z
" transform="scale(0.015625)"/>
       </defs>
       <use xlink:href="#DejaVuSans-34"/>
       <use xlink:href="#DejaVuSans-30" x="63.623047"/>
       <use xlink:href="#DejaVuSans-30" x="127.246094"/>
      </g>
     </g>
    </g>
    <g id="ytick_3">
     <g id="line2d_25">
      <path d="M 108 250.889881 
L 777.6 250.889881 
" clip-path="url(#p11bef2c018)" style="fill: none; stroke-dasharray: 5.12,1.28,0.8,1.28; stroke-dashoffset: 0; stroke: #b0b0b0; stroke-width: 0.8"/>
     </g>
     <g id="line2d_26">
      <g>
       <use xlink:href="#mf8b4db27a1" x="108" y="250.889881" style="fill: #a9a9a9; stroke: #a9a9a9; stroke-width: 0.8"/>
      </g>
     </g>
     <g id="text_13">
      <!-- 800 -->
      <g style="fill: #a9a9a9" transform="translate(81.9125 254.6891) scale(0.1 -0.1)">
       <defs>
        <path id="DejaVuSans-38" d="M 2034 2216 
Q 1584 2216 1326 1975 
Q 1069 1734 1069 1313 
Q 1069 891 1326 650 
Q 1584 409 2034 409 
Q 2484 409 2743 651 
Q 3003 894 3003 1313 
Q 3003 1734 2745 1975 
Q 2488 2216 2034 2216 
z
M 1403 2484 
Q 997 2584 770 2862 
Q 544 3141 544 3541 
Q 544 4100 942 4425 
Q 1341 4750 2034 4750 
Q 2731 4750 3128 4425 
Q 3525 4100 3525 3541 
Q 3525 3141 3298 2862 
Q 3072 2584 2669 2484 
Q 3125 2378 3379 2068 
Q 3634 1759 3634 1313 
Q 3634 634 3220 271 
Q 2806 -91 2034 -91 
Q 1263 -91 848 271 
Q 434 634 434 1313 
Q 434 1759 690 2068 
Q 947 2378 1403 2484 
z
M 1172 3481 
Q 1172 3119 1398 2916 
Q 1625 2713 2034 2713 
Q 2441 2713 2670 2916 
Q 2900 3119 2900 3481 
Q 2900 3844 2670 4047 
Q 2441 4250 2034 4250 
Q 1625 4250 1398 4047 
Q 1172 3844 1172 3481 
z
" transform="scale(0.015625)"/>
       </defs>
       <use xlink:href="#DejaVuSans-38"/>
       <use xlink:href="#DejaVuSans-30" x="63.623047"/>
       <use xlink:href="#DejaVuSans-30" x="127.246094"/>
      </g>
     </g>
    </g>
    <g id="ytick_4">
     <g id="line2d_27">
      <path d="M 108 222.399209 
L 777.6 222.399209 
" clip-path="url(#p11bef2c018)" style="fill: none; stroke-dasharray: 5.12,1.28,0.8,1.28; stroke-dashoffset: 0; stroke: #b0b0b0; stroke-width: 0.8"/>
     </g>
     <g id="line2d_28">
      <g>
       <use xlink:href="#mf8b4db27a1" x="108" y="222.399209" style="fill: #a9a9a9; stroke: #a9a9a9; stroke-width: 0.8"/>
      </g>
     </g>
     <g id="text_14">
      <!-- 1200 -->
      <g style="fill: #a9a9a9" transform="translate(75.55 226.198427) scale(0.1 -0.1)">
       <use xlink:href="#DejaVuSans-31"/>
       <use xlink:href="#DejaVuSans-32" x="63.623047"/>
       <use xlink:href="#DejaVuSans-30" x="127.246094"/>
       <use xlink:href="#DejaVuSans-30" x="190.869141"/>
      </g>
     </g>
    </g>
    <g id="ytick_5">
     <g id="line2d_29">
      <path d="M 108 193.908536 
L 777.6 193.908536 
" clip-path="url(#p11bef2c018)" style="fill: none; stroke-dasharray: 5.12,1.28,0.8,1.28; stroke-dashoffset: 0; stroke: #b0b0b0; stroke-width: 0.8"/>
     </g>
     <g id="line2d_30">
      <g>
       <use xlink:href="#mf8b4db27a1" x="108" y="193.908536" style="fill: #a9a9a9; stroke: #a9a9a9; stroke-width: 0.8"/>
      </g>
     </g>
     <g id="text_15">
      <!-- 1600 -->
      <g style="fill: #a9a9a9" transform="translate(75.55 197.707755) scale(0.1 -0.1)">
       <defs>
        <path id="DejaVuSans-36" d="M 2113 2584 
Q 1688 2584 1439 2293 
Q 1191 2003 1191 1497 
Q 1191 994 1439 701 
Q 1688 409 2113 409 
Q 2538 409 2786 701 
Q 3034 994 3034 1497 
Q 3034 2003 2786 2293 
Q 2538 2584 2113 2584 
z
M 3366 4563 
L 3366 3988 
Q 3128 4100 2886 4159 
Q 2644 4219 2406 4219 
Q 1781 4219 1451 3797 
Q 1122 3375 1075 2522 
Q 1259 2794 1537 2939 
Q 1816 3084 2150 3084 
Q 2853 3084 3261 2657 
Q 3669 2231 3669 1497 
Q 3669 778 3244 343 
Q 2819 -91 2113 -91 
Q 1303 -91 875 529 
Q 447 1150 447 2328 
Q 447 3434 972 4092 
Q 1497 4750 2381 4750 
Q 2619 4750 2861 4703 
Q 3103 4656 3366 4563 
z
" transform="scale(0.015625)"/>
       </defs>
       <use xlink:href="#DejaVuSans-31"/>
       <use xlink:href="#DejaVuSans-36" x="63.623047"/>
       <use xlink:href="#DejaVuSans-30" x="127.246094"/>
       <use xlink:href="#DejaVuSans-30" x="190.869141"/>
      </g>
     </g>
    </g>
    <g id="ytick_6">
     <g id="line2d_31">
      <path d="M 108 165.417863 
L 777.6 165.417863 
" clip-path="url(#p11bef2c018)" style="fill: none; stroke-dasharray: 5.12,1.28,0.8,1.28; stroke-dashoffset: 0; stroke: #b0b0b0; stroke-width: 0.8"/>
     </g>
     <g id="line2d_32">
      <g>
       <use xlink:href="#mf8b4db27a1" x="108" y="165.417863" style="fill: #a9a9a9; stroke: #a9a9a9; stroke-width: 0.8"/>
      </g>
     </g>
     <g id="text_16">
      <!-- 2000 -->
      <g style="fill: #a9a9a9" transform="translate(75.55 169.217082) scale(0.1 -0.1)">
       <use xlink:href="#DejaVuSans-32"/>
       <use xlink:href="#DejaVuSans-30" x="63.623047"/>
       <use xlink:href="#DejaVuSans-30" x="127.246094"/>
       <use xlink:href="#DejaVuSans-30" x="190.869141"/>
      </g>
     </g>
    </g>
    <g id="ytick_7">
     <g id="line2d_33">
      <path d="M 108 136.927191 
L 777.6 136.927191 
" clip-path="url(#p11bef2c018)" style="fill: none; stroke-dasharray: 5.12,1.28,0.8,1.28; stroke-dashoffset: 0; stroke: #b0b0b0; stroke-width: 0.8"/>
     </g>
     <g id="line2d_34">
      <g>
       <use xlink:href="#mf8b4db27a1" x="108" y="136.927191" style="fill: #a9a9a9; stroke: #a9a9a9; stroke-width: 0.8"/>
      </g>
     </g>
     <g id="text_17">
      <!-- 2400 -->
      <g style="fill: #a9a9a9" transform="translate(75.55 140.726409) scale(0.1 -0.1)">
       <use xlink:href="#DejaVuSans-32"/>
       <use xlink:href="#DejaVuSans-34" x="63.623047"/>
       <use xlink:href="#DejaVuSans-30" x="127.246094"/>
       <use xlink:href="#DejaVuSans-30" x="190.869141"/>
      </g>
     </g>
    </g>
    <g id="ytick_8">
     <g id="line2d_35">
      <path d="M 108 108.436518 
L 777.6 108.436518 
" clip-path="url(#p11bef2c018)" style="fill: none; stroke-dasharray: 5.12,1.28,0.8,1.28; stroke-dashoffset: 0; stroke: #b0b0b0; stroke-width: 0.8"/>
     </g>
     <g id="line2d_36">
      <g>
       <use xlink:href="#mf8b4db27a1" x="108" y="108.436518" style="fill: #a9a9a9; stroke: #a9a9a9; stroke-width: 0.8"/>
      </g>
     </g>
     <g id="text_18">
      <!-- 2800 -->
      <g style="fill: #a9a9a9" transform="translate(75.55 112.235737) scale(0.1 -0.1)">
       <use xlink:href="#DejaVuSans-32"/>
       <use xlink:href="#DejaVuSans-38" x="63.623047"/>
       <use xlink:href="#DejaVuSans-30" x="127.246094"/>
       <use xlink:href="#DejaVuSans-30" x="190.869141"/>
      </g>
     </g>
    </g>
    <g id="ytick_9">
     <g id="line2d_37">
      <path d="M 108 79.945845 
L 777.6 79.945845 
" clip-path="url(#p11bef2c018)" style="fill: none; stroke-dasharray: 5.12,1.28,0.8,1.28; stroke-dashoffset: 0; stroke: #b0b0b0; stroke-width: 0.8"/>
     </g>
     <g id="line2d_38">
      <g>
       <use xlink:href="#mf8b4db27a1" x="108" y="79.945845" style="fill: #a9a9a9; stroke: #a9a9a9; stroke-width: 0.8"/>
      </g>
     </g>
     <g id="text_19">
      <!-- 3200 -->
      <g style="fill: #a9a9a9" transform="translate(75.55 83.745064) scale(0.1 -0.1)">
       <use xlink:href="#DejaVuSans-33"/>
       <use xlink:href="#DejaVuSans-32" x="63.623047"/>
       <use xlink:href="#DejaVuSans-30" x="127.246094"/>
       <use xlink:href="#DejaVuSans-30" x="190.869141"/>
      </g>
     </g>
    </g>
    <g id="ytick_10">
     <g id="line2d_39">
      <path d="M 108 51.455172 
L 777.6 51.455172 
" clip-path="url(#p11bef2c018)" style="fill: none; stroke-dasharray: 5.12,1.28,0.8,1.28; stroke-dashoffset: 0; stroke: #b0b0b0; stroke-width: 0.8"/>
     </g>
     <g id="line2d_40">
      <g>
       <use xlink:href="#mf8b4db27a1" x="108" y="51.455172" style="fill: #a9a9a9; stroke: #a9a9a9; stroke-width: 0.8"/>
      </g>
     </g>
     <g id="text_20">
      <!-- 3600 -->
      <g style="fill: #a9a9a9" transform="translate(75.55 55.254391) scale(0.1 -0.1)">
       <use xlink:href="#DejaVuSans-33"/>
       <use xlink:href="#DejaVuSans-36" x="63.623047"/>
       <use xlink:href="#DejaVuSans-30" x="127.246094"/>
       <use xlink:href="#DejaVuSans-30" x="190.869141"/>
      </g>
     </g>
    </g>
   </g>
   <g id="line2d_41">
    <path d="M 138.436364 307.58632 
L 142.987596 307.230187 
L 144.125404 307.087733 
L 145.263212 307.087733 
L 146.40102 306.660373 
L 148.676636 306.51792 
L 156.641291 305.022159 
L 158.916907 304.879706 
L 160.054715 304.666026 
L 163.468139 304.452346 
L 164.605947 303.882533 
L 165.743755 303.597626 
L 166.881563 302.315546 
L 168.019371 301.603279 
L 169.157179 299.110345 
L 170.294987 298.967891 
L 171.432795 298.184398 
L 172.570603 297.757038 
L 173.708411 297.187224 
L 177.121835 294.551837 
L 178.259643 293.982024 
L 180.535259 293.127304 
L 181.673067 292.34381 
L 182.810875 291.91645 
L 185.086491 290.563143 
L 186.224299 290.20701 
L 187.362107 288.497569 
L 188.499915 287.642849 
L 189.637723 287.001809 
L 190.775531 286.503222 
L 195.326763 285.862182 
L 198.740187 285.292369 
L 201.015803 285.149915 
L 202.153611 284.936235 
L 203.291419 284.366422 
L 207.842651 284.010288 
L 211.256075 283.654155 
L 212.393883 283.298021 
L 218.082923 282.229621 
L 220.358539 282.015941 
L 221.496347 281.731034 
L 224.909771 281.303674 
L 226.047579 280.733861 
L 227.185387 280.591408 
L 229.461003 279.807914 
L 231.736619 279.594234 
L 232.874427 279.238101 
L 237.425658 278.59706 
L 238.563466 278.240927 
L 240.839082 277.884794 
L 241.97689 277.884794 
L 247.66593 277.172527 
L 249.941546 276.531487 
L 251.079354 276.24658 
L 253.35497 276.0329 
L 254.492778 275.961673 
L 257.906202 275.320633 
L 259.04401 274.893273 
L 260.181818 273.468739 
L 261.319626 273.041379 
L 262.457434 272.471566 
L 263.595242 272.329112 
L 264.73305 272.044206 
L 265.870858 271.901752 
L 268.146474 270.975806 
L 269.284282 270.904579 
L 274.973322 269.480045 
L 276.11113 269.480045 
L 278.386746 269.195138 
L 280.662362 268.554098 
L 284.075786 267.699378 
L 285.213594 267.628151 
L 287.48921 266.702205 
L 288.627018 266.559751 
L 289.764826 266.061164 
L 292.040442 265.847484 
L 293.17825 265.776258 
L 296.591674 265.206444 
L 298.86729 264.850311 
L 302.280714 264.209271 
L 303.418522 263.853137 
L 304.55633 263.710684 
L 306.831946 262.927191 
L 307.969754 262.28615 
L 309.107562 262.001244 
L 310.24537 261.85879 
L 312.520986 261.146523 
L 314.796602 259.93567 
L 315.93441 259.223403 
L 317.072218 259.08095 
L 318.210025 258.724816 
L 319.347833 258.582363 
L 320.485641 258.297456 
L 321.623449 258.155003 
L 322.761257 257.656416 
L 325.036873 257.300283 
L 326.174681 256.730469 
L 327.312489 256.303109 
L 328.450297 256.018202 
L 329.588105 255.875749 
L 330.725913 255.448389 
L 335.277145 254.593669 
L 337.552761 253.667722 
L 338.690569 253.454042 
L 339.828377 253.026682 
L 340.966185 252.884228 
L 342.103993 252.385642 
L 343.241801 252.100735 
L 345.517417 251.958282 
L 347.793033 251.246015 
L 348.930841 251.103561 
L 350.068649 251.103561 
L 351.206457 250.604975 
L 353.482073 250.248841 
L 354.619881 249.821481 
L 356.895497 249.750254 
L 358.033305 249.607801 
L 359.171113 249.607801 
L 361.446729 249.251668 
L 363.722345 248.183267 
L 365.997961 247.186094 
L 367.135769 246.901187 
L 368.273577 246.18892 
L 369.411385 245.832787 
L 371.687001 244.835613 
L 372.824809 244.621933 
L 373.962617 244.123347 
L 375.100425 243.767213 
L 376.238233 243.054946 
L 377.376041 242.485133 
L 378.513849 241.345506 
L 379.651657 239.564839 
L 380.789465 238.211532 
L 381.927273 237.855399 
L 383.065081 237.855399 
L 384.202889 237.143132 
L 385.340697 236.288412 
L 386.478505 236.003505 
L 387.616313 235.433691 
L 388.754121 235.220011 
L 389.891929 234.222838 
L 391.029737 233.937931 
L 394.443161 232.442171 
L 395.580969 231.16009 
L 396.718777 229.521877 
L 397.856585 228.880837 
L 398.994393 227.10017 
L 400.132201 226.031769 
L 401.270008 225.533183 
L 402.407816 225.248276 
L 403.545624 224.536009 
L 405.82124 223.467609 
L 406.959048 222.684115 
L 409.234664 220.974675 
L 410.372472 220.333635 
L 411.51028 218.837875 
L 412.648088 216.344941 
L 413.785896 214.777954 
L 414.923704 213.923233 
L 416.061512 213.424647 
L 424.026168 207.085472 
L 425.163976 205.518485 
L 426.301784 204.521311 
L 428.5774 203.025551 
L 430.853016 201.529791 
L 431.990824 200.746297 
L 433.128632 199.82035 
L 434.26644 199.535444 
L 435.404248 199.036857 
L 438.817672 197.184963 
L 441.093288 196.116563 
L 443.368904 194.193443 
L 444.506712 192.840136 
L 445.64452 192.056642 
L 446.782328 191.415602 
L 447.920136 191.130695 
L 449.057944 190.560882 
L 450.195752 189.777388 
L 452.471368 188.637761 
L 453.609176 188.424081 
L 454.746984 187.711815 
L 457.0226 186.572188 
L 458.160408 185.503787 
L 459.298216 184.720294 
L 460.436024 184.364161 
L 461.573832 183.651894 
L 462.71164 183.153307 
L 463.849448 182.44104 
L 464.987256 182.01368 
L 466.125064 181.301413 
L 467.262872 180.375466 
L 469.538488 179.591973 
L 470.676296 179.093386 
L 471.814104 178.879706 
L 472.951912 178.167439 
L 474.08972 177.953759 
L 476.365336 177.170266 
L 477.503144 176.814132 
L 479.77876 175.888185 
L 480.916568 175.460825 
L 482.054376 175.175919 
L 483.192184 174.748559 
L 485.467799 174.392425 
L 487.743415 172.540531 
L 488.881223 172.113171 
L 491.156839 170.902318 
L 493.432455 169.691464 
L 495.708071 169.050424 
L 496.845879 168.195704 
L 497.983687 167.910797 
L 500.259303 166.486263 
L 501.397111 165.91645 
L 504.810535 165.204183 
L 507.086151 164.563143 
L 510.499575 162.711249 
L 511.637383 162.568796 
L 512.775191 162.141436 
L 513.912999 161.998982 
L 515.050807 161.571622 
L 516.188615 160.859356 
L 517.326423 160.004635 
L 518.464231 159.292369 
L 519.602039 159.078689 
L 520.739847 158.651328 
L 521.877655 158.508875 
L 523.015463 158.081515 
L 524.153271 157.298021 
L 525.291079 156.941888 
L 526.428887 156.443301 
L 530.980119 155.232448 
L 532.117927 155.161221 
L 533.255735 154.805088 
L 535.531351 153.807914 
L 536.669159 153.451781 
L 537.806967 153.238101 
L 538.944775 152.739514 
L 540.082583 152.38338 
L 541.220391 151.884794 
L 543.496007 151.243754 
L 544.633815 151.172527 
L 546.909431 150.67394 
L 548.047239 150.175353 
L 549.185047 149.961673 
L 551.460663 149.035726 
L 554.874087 147.468739 
L 557.149703 146.044206 
L 558.287511 145.759299 
L 559.425319 145.118259 
L 560.563127 144.690899 
L 561.700935 144.049859 
L 563.976551 143.480045 
L 565.114359 142.839005 
L 566.252167 142.340418 
L 567.389975 141.984285 
L 569.66559 141.628151 
L 570.803398 140.844658 
L 571.941206 140.274845 
L 573.079014 140.061164 
L 574.216822 139.633804 
L 575.35463 139.063991 
L 576.492438 138.850311 
L 577.630246 138.280497 
L 582.181478 137.639457 
L 584.457094 136.642284 
L 585.594902 135.787564 
L 586.73271 133.864443 
L 587.870518 133.579536 
L 589.008326 133.437083 
L 590.146134 133.152176 
L 592.42175 131.941323 
L 593.559558 131.513963 
L 594.697366 130.944149 
L 595.835174 130.659243 
L 598.11079 129.590842 
L 600.386406 128.522442 
L 602.662022 127.596495 
L 603.79983 126.884228 
L 604.937638 126.456868 
L 608.351062 125.673375 
L 610.626678 124.604975 
L 611.764486 124.106388 
L 612.902294 123.892708 
L 616.315718 122.610627 
L 618.591334 121.257321 
L 619.729142 120.545054 
L 620.86695 119.97524 
L 622.004758 119.76156 
L 623.142566 119.3342 
L 624.280374 119.262973 
L 628.831606 117.83844 
L 629.969414 117.767213 
L 631.107222 116.98372 
L 632.24503 116.698813 
L 633.382838 116.200226 
L 636.796262 115.203053 
L 637.93407 114.562012 
L 639.071878 114.205879 
L 640.209686 113.493612 
L 641.347494 112.995025 
L 642.485302 112.353985 
L 648.174342 110.217185 
L 649.31215 109.576145 
L 650.449958 108.792651 
L 651.587766 107.581798 
L 652.725573 106.869531 
L 653.863381 106.655851 
L 656.138997 104.94641 
L 657.276805 104.590277 
L 658.414613 102.952063 
L 659.552421 102.524703 
L 660.690229 101.74121 
L 661.828037 101.52753 
L 662.965845 100.815263 
L 664.103653 100.316676 
L 665.241461 100.102996 
L 666.379269 99.675636 
L 667.517077 98.749689 
L 668.654885 98.393556 
L 670.930501 96.897795 
L 672.068309 96.185529 
L 673.206117 95.686942 
L 675.481733 94.476088 
L 676.619541 93.977501 
L 677.757349 93.835048 
L 678.895157 93.407688 
L 680.032965 92.837875 
L 681.170773 92.125608 
L 682.308581 90.416167 
L 683.446389 89.347767 
L 684.584197 88.706727 
L 685.722005 88.42182 
L 687.997621 87.13974 
L 689.135429 86.92606 
L 690.273237 86.356246 
L 693.686661 85.00294 
L 694.824469 84.433126 
L 697.100085 82.866139 
L 699.375701 80.586885 
L 700.513509 79.732165 
L 702.789125 78.378858 
L 703.926933 77.310458 
L 707.340357 74.746297 
L 708.478165 74.176484 
L 709.615973 72.96563 
L 710.753781 72.182137 
L 713.029397 71.398643 
L 714.167205 70.330243 
L 716.442821 69.261843 
L 717.580629 68.976936 
L 718.718437 68.193443 
L 719.856245 67.837309 
L 722.131861 66.840136 
L 724.407477 65.201922 
L 725.545285 64.632109 
L 727.820901 63.991068 
L 728.958709 63.350028 
L 733.509941 61.854268 
L 735.785556 60.928321 
L 736.923364 60.358508 
L 738.061172 59.432561 
L 742.612404 57.50944 
L 743.750212 57.08208 
L 744.88802 56.298587 
L 746.025828 55.8 
L 747.163636 55.8 
L 747.163636 55.8 
" clip-path="url(#p11bef2c018)" style="fill: none; stroke: #1f77b4; stroke-width: 1.5; stroke-linecap: square"/>
   </g>
   <g id="line2d_42">
    <path d="M 139.574172 307.8 
L 141.849788 307.8 
L 144.125404 307.515093 
L 150.952251 307.443867 
L 154.365675 307.301413 
L 157.779099 307.230187 
L 160.054715 307.15896 
L 163.468139 307.15896 
L 164.605947 306.874053 
L 168.019371 306.802826 
L 173.708411 306.161786 
L 182.810875 305.6632 
L 183.948683 305.6632 
L 185.086491 305.44952 
L 188.499915 305.378293 
L 190.775531 305.093386 
L 195.326763 305.093386 
L 196.464571 304.950933 
L 202.153611 304.879706 
L 205.567035 304.737253 
L 215.807307 304.666026 
L 218.082923 304.594799 
L 222.634155 304.523573 
L 226.047579 304.381119 
L 230.598811 304.381119 
L 231.736619 304.238666 
L 235.150042 304.167439 
L 239.701274 303.953759 
L 247.66593 303.882533 
L 249.941546 303.811306 
L 254.492778 303.740079 
L 257.906202 303.312719 
L 263.595242 303.241492 
L 269.284282 302.956586 
L 274.973322 302.885359 
L 278.386746 302.742906 
L 280.662362 302.671679 
L 282.937978 302.457999 
L 287.48921 302.244319 
L 290.902634 302.173092 
L 293.17825 302.101865 
L 295.453866 302.101865 
L 296.591674 301.959412 
L 300.005098 301.959412 
L 302.280714 301.745732 
L 305.694138 301.603279 
L 311.383178 301.532052 
L 315.93441 301.033465 
L 317.072218 300.962239 
L 318.210025 300.748559 
L 322.761257 300.677332 
L 326.174681 300.392425 
L 328.450297 300.178745 
L 334.139337 299.893838 
L 337.552761 299.822612 
L 340.966185 299.680158 
L 342.103993 299.680158 
L 344.379609 299.466478 
L 346.655225 299.395252 
L 347.793033 299.395252 
L 348.930841 299.252798 
L 351.206457 299.181572 
L 356.895497 298.896665 
L 359.171113 298.825438 
L 362.584537 298.682985 
L 365.997961 298.611758 
L 368.273577 298.540531 
L 373.962617 298.469305 
L 378.513849 297.970718 
L 379.651657 297.970718 
L 381.927273 297.757038 
L 384.202889 297.685811 
L 389.891929 297.258451 
L 391.029737 296.973544 
L 393.305353 296.831091 
L 394.443161 296.546184 
L 397.856585 296.261278 
L 400.132201 295.762691 
L 402.407816 295.691464 
L 404.683432 295.691464 
L 405.82124 295.549011 
L 406.959048 295.549011 
L 409.234664 295.192877 
L 413.785896 294.409384 
L 414.923704 294.409384 
L 416.061512 294.26693 
L 419.474936 294.195704 
L 434.26644 293.269757 
L 435.404248 293.056077 
L 438.817672 292.842397 
L 441.093288 292.486263 
L 443.368904 292.272583 
L 445.64452 292.201357 
L 447.920136 292.201357 
L 449.057944 291.91645 
L 450.195752 291.773997 
L 454.746984 291.70277 
L 457.0226 291.48909 
L 458.160408 291.48909 
L 461.573832 290.990503 
L 462.71164 290.705596 
L 463.849448 290.563143 
L 466.125064 290.491916 
L 471.814104 290.20701 
L 475.227528 290.135783 
L 490.019031 289.281063 
L 492.294647 289.281063 
L 494.570263 289.067383 
L 496.845879 289.067383 
L 500.259303 288.711249 
L 504.810535 288.497569 
L 507.086151 288.426343 
L 508.223959 288.283889 
L 512.775191 288.212663 
L 520.739847 287.785302 
L 526.428887 287.714076 
L 528.704503 287.642849 
L 529.842311 287.642849 
L 530.980119 287.429169 
L 533.255735 287.357942 
L 540.082583 287.286716 
L 543.496007 287.144262 
L 548.047239 287.073036 
L 549.185047 286.859356 
L 556.011895 286.788129 
L 558.287511 286.716902 
L 560.563127 286.645676 
L 562.838743 286.574449 
L 565.114359 286.503222 
L 574.216822 286.004635 
L 579.905862 285.933409 
L 583.319286 285.648502 
L 585.594902 285.434822 
L 587.870518 285.363595 
L 590.146134 285.292369 
L 591.283942 285.149915 
L 594.697366 285.078689 
L 595.835174 284.793782 
L 600.386406 284.580102 
L 610.626678 284.508875 
L 616.315718 284.081515 
L 619.729142 283.725382 
L 625.418182 283.654155 
L 628.831606 283.298021 
L 635.658454 282.941888 
L 637.93407 282.870661 
L 642.485302 282.656981 
L 647.036534 282.585755 
L 650.449958 282.443301 
L 655.001189 282.372075 
L 658.414613 282.015941 
L 660.690229 281.944715 
L 665.241461 281.873488 
L 668.654885 281.588581 
L 669.792693 281.446128 
L 670.930501 281.446128 
L 672.068309 281.232448 
L 674.343925 281.161221 
L 678.895157 281.089994 
L 681.170773 280.733861 
L 691.411045 280.662634 
L 693.686661 280.448954 
L 694.824469 280.306501 
L 697.100085 280.235274 
L 699.375701 280.164047 
L 700.513509 279.879141 
L 702.789125 279.807914 
L 703.926933 279.594234 
L 706.202549 279.594234 
L 709.615973 279.238101 
L 734.647749 277.74234 
L 744.88802 277.671114 
L 747.163636 277.599887 
L 747.163636 277.599887 
" clip-path="url(#p11bef2c018)" style="fill: none; stroke: #ff7f0e; stroke-width: 1.5; stroke-linecap: square"/>
   </g>
   <g id="patch_3">
    <path d="M 108 320.4 
L 108 43.2 
" style="fill: none; stroke: #a9a9a9; stroke-width: 0.8; stroke-linejoin: miter; stroke-linecap: square"/>
   </g>
   <g id="patch_4">
    <path d="M 777.6 320.4 
L 777.6 43.2 
" style="fill: none"/>
   </g>
   <g id="patch_5">
    <path d="M 108 320.4 
L 777.6 320.4 
" style="fill: none; stroke: #a9a9a9; stroke-width: 0.8; stroke-linejoin: miter; stroke-linecap: square"/>
   </g>
   <g id="patch_6">
    <path d="M 108 43.2 
L 777.6 43.2 
" style="fill: none"/>
   </g>
   <g id="text_21">
    <!-- get_subscribe history -->
    <g style="fill: #a9a9a9" transform="translate(378.6075 37.2) scale(0.12 -0.12)">
     <defs>
      <path id="DejaVuSans-67" d="M 2906 1791 
Q 2906 2416 2648 2759 
Q 2391 3103 1925 3103 
Q 1463 3103 1205 2759 
Q 947 2416 947 1791 
Q 947 1169 1205 825 
Q 1463 481 1925 481 
Q 2391 481 2648 825 
Q 2906 1169 2906 1791 
z
M 3481 434 
Q 3481 -459 3084 -895 
Q 2688 -1331 1869 -1331 
Q 1566 -1331 1297 -1286 
Q 1028 -1241 775 -1147 
L 775 -588 
Q 1028 -725 1275 -790 
Q 1522 -856 1778 -856 
Q 2344 -856 2625 -561 
Q 2906 -266 2906 331 
L 2906 616 
Q 2728 306 2450 153 
Q 2172 0 1784 0 
Q 1141 0 747 490 
Q 353 981 353 1791 
Q 353 2603 747 3093 
Q 1141 3584 1784 3584 
Q 2172 3584 2450 3431 
Q 2728 3278 2906 2969 
L 2906 3500 
L 3481 3500 
L 3481 434 
z
" transform="scale(0.015625)"/>
      <path id="DejaVuSans-65" d="M 3597 1894 
L 3597 1613 
L 953 1613 
Q 991 1019 1311 708 
Q 1631 397 2203 397 
Q 2534 397 2845 478 
Q 3156 559 3463 722 
L 3463 178 
Q 3153 47 2828 -22 
Q 2503 -91 2169 -91 
Q 1331 -91 842 396 
Q 353 884 353 1716 
Q 353 2575 817 3079 
Q 1281 3584 2069 3584 
Q 2775 3584 3186 3129 
Q 3597 2675 3597 1894 
z
M 3022 2063 
Q 3016 2534 2758 2815 
Q 2500 3097 2075 3097 
Q 1594 3097 1305 2825 
Q 1016 2553 972 2059 
L 3022 2063 
z
" transform="scale(0.015625)"/>
      <path id="DejaVuSans-74" d="M 1172 4494 
L 1172 3500 
L 2356 3500 
L 2356 3053 
L 1172 3053 
L 1172 1153 
Q 1172 725 1289 603 
Q 1406 481 1766 481 
L 2356 481 
L 2356 0 
L 1766 0 
Q 1100 0 847 248 
Q 594 497 594 1153 
L 594 3053 
L 172 3053 
L 172 3500 
L 594 3500 
L 594 4494 
L 1172 4494 
z
" transform="scale(0.015625)"/>
      <path id="DejaVuSans-5f" d="M 3263 -1063 
L 3263 -1509 
L -63 -1509 
L -63 -1063 
L 3263 -1063 
z
" transform="scale(0.015625)"/>
      <path id="DejaVuSans-73" d="M 2834 3397 
L 2834 2853 
Q 2591 2978 2328 3040 
Q 2066 3103 1784 3103 
Q 1356 3103 1142 2972 
Q 928 2841 928 2578 
Q 928 2378 1081 2264 
Q 1234 2150 1697 2047 
L 1894 2003 
Q 2506 1872 2764 1633 
Q 3022 1394 3022 966 
Q 3022 478 2636 193 
Q 2250 -91 1575 -91 
Q 1294 -91 989 -36 
Q 684 19 347 128 
L 347 722 
Q 666 556 975 473 
Q 1284 391 1588 391 
Q 1994 391 2212 530 
Q 2431 669 2431 922 
Q 2431 1156 2273 1281 
Q 2116 1406 1581 1522 
L 1381 1569 
Q 847 1681 609 1914 
Q 372 2147 372 2553 
Q 372 3047 722 3315 
Q 1072 3584 1716 3584 
Q 2034 3584 2315 3537 
Q 2597 3491 2834 3397 
z
" transform="scale(0.015625)"/>
      <path id="DejaVuSans-75" d="M 544 1381 
L 544 3500 
L 1119 3500 
L 1119 1403 
Q 1119 906 1312 657 
Q 1506 409 1894 409 
Q 2359 409 2629 706 
Q 2900 1003 2900 1516 
L 2900 3500 
L 3475 3500 
L 3475 0 
L 2900 0 
L 2900 538 
Q 2691 219 2414 64 
Q 2138 -91 1772 -91 
Q 1169 -91 856 284 
Q 544 659 544 1381 
z
M 1991 3584 
L 1991 3584 
z
" transform="scale(0.015625)"/>
      <path id="DejaVuSans-62" d="M 3116 1747 
Q 3116 2381 2855 2742 
Q 2594 3103 2138 3103 
Q 1681 3103 1420 2742 
Q 1159 2381 1159 1747 
Q 1159 1113 1420 752 
Q 1681 391 2138 391 
Q 2594 391 2855 752 
Q 3116 1113 3116 1747 
z
M 1159 2969 
Q 1341 3281 1617 3432 
Q 1894 3584 2278 3584 
Q 2916 3584 3314 3078 
Q 3713 2572 3713 1747 
Q 3713 922 3314 415 
Q 2916 -91 2278 -91 
Q 1894 -91 1617 61 
Q 1341 213 1159 525 
L 1159 0 
L 581 0 
L 581 4863 
L 1159 4863 
L 1159 2969 
z
" transform="scale(0.015625)"/>
      <path id="DejaVuSans-63" d="M 3122 3366 
L 3122 2828 
Q 2878 2963 2633 3030 
Q 2388 3097 2138 3097 
Q 1578 3097 1268 2742 
Q 959 2388 959 1747 
Q 959 1106 1268 751 
Q 1578 397 2138 397 
Q 2388 397 2633 464 
Q 2878 531 3122 666 
L 3122 134 
Q 2881 22 2623 -34 
Q 2366 -91 2075 -91 
Q 1284 -91 818 406 
Q 353 903 353 1747 
Q 353 2603 823 3093 
Q 1294 3584 2113 3584 
Q 2378 3584 2631 3529 
Q 2884 3475 3122 3366 
z
" transform="scale(0.015625)"/>
      <path id="DejaVuSans-72" d="M 2631 2963 
Q 2534 3019 2420 3045 
Q 2306 3072 2169 3072 
Q 1681 3072 1420 2755 
Q 1159 2438 1159 1844 
L 1159 0 
L 581 0 
L 581 3500 
L 1159 3500 
L 1159 2956 
Q 1341 3275 1631 3429 
Q 1922 3584 2338 3584 
Q 2397 3584 2469 3576 
Q 2541 3569 2628 3553 
L 2631 2963 
z
" transform="scale(0.015625)"/>
      <path id="DejaVuSans-69" d="M 603 3500 
L 1178 3500 
L 1178 0 
L 603 0 
L 603 3500 
z
M 603 4863 
L 1178 4863 
L 1178 4134 
L 603 4134 
L 603 4863 
z
" transform="scale(0.015625)"/>
      <path id="DejaVuSans-20" transform="scale(0.015625)"/>
      <path id="DejaVuSans-68" d="M 3513 2113 
L 3513 0 
L 2938 0 
L 2938 2094 
Q 2938 2591 2744 2837 
Q 2550 3084 2163 3084 
Q 1697 3084 1428 2787 
Q 1159 2491 1159 1978 
L 1159 0 
L 581 0 
L 581 4863 
L 1159 4863 
L 1159 2956 
Q 1366 3272 1645 3428 
Q 1925 3584 2291 3584 
Q 2894 3584 3203 3211 
Q 3513 2838 3513 2113 
z
" transform="scale(0.015625)"/>
      <path id="DejaVuSans-6f" d="M 1959 3097 
Q 1497 3097 1228 2736 
Q 959 2375 959 1747 
Q 959 1119 1226 758 
Q 1494 397 1959 397 
Q 2419 397 2687 759 
Q 2956 1122 2956 1747 
Q 2956 2369 2687 2733 
Q 2419 3097 1959 3097 
z
M 1959 3584 
Q 2709 3584 3137 3096 
Q 3566 2609 3566 1747 
Q 3566 888 3137 398 
Q 2709 -91 1959 -91 
Q 1206 -91 779 398 
Q 353 888 353 1747 
Q 353 2609 779 3096 
Q 1206 3584 1959 3584 
z
" transform="scale(0.015625)"/>
      <path id="DejaVuSans-79" d="M 2059 -325 
Q 1816 -950 1584 -1140 
Q 1353 -1331 966 -1331 
L 506 -1331 
L 506 -850 
L 844 -850 
Q 1081 -850 1212 -737 
Q 1344 -625 1503 -206 
L 1606 56 
L 191 3500 
L 800 3500 
L 1894 763 
L 2988 3500 
L 3597 3500 
L 2059 -325 
z
" transform="scale(0.015625)"/>
     </defs>
     <use xlink:href="#DejaVuSans-67"/>
     <use xlink:href="#DejaVuSans-65" x="63.476562"/>
     <use xlink:href="#DejaVuSans-74" x="125"/>
     <use xlink:href="#DejaVuSans-5f" x="164.208984"/>
     <use xlink:href="#DejaVuSans-73" x="214.208984"/>
     <use xlink:href="#DejaVuSans-75" x="266.308594"/>
     <use xlink:href="#DejaVuSans-62" x="329.6875"/>
     <use xlink:href="#DejaVuSans-73" x="393.164062"/>
     <use xlink:href="#DejaVuSans-63" x="445.263672"/>
     <use xlink:href="#DejaVuSans-72" x="500.244141"/>
     <use xlink:href="#DejaVuSans-69" x="541.357422"/>
     <use xlink:href="#DejaVuSans-62" x="569.140625"/>
     <use xlink:href="#DejaVuSans-65" x="632.617188"/>
     <use xlink:href="#DejaVuSans-20" x="694.140625"/>
     <use xlink:href="#DejaVuSans-68" x="725.927734"/>
     <use xlink:href="#DejaVuSans-69" x="789.306641"/>
     <use xlink:href="#DejaVuSans-73" x="817.089844"/>
     <use xlink:href="#DejaVuSans-74" x="869.189453"/>
     <use xlink:href="#DejaVuSans-6f" x="908.398438"/>
     <use xlink:href="#DejaVuSans-72" x="969.580078"/>
     <use xlink:href="#DejaVuSans-79" x="1010.693359"/>
    </g>
   </g>
   <g id="legend_1">
    <g id="line2d_43">
     <path d="M 815.08 328.498438 
L 825.08 328.498438 
L 835.08 328.498438 
" style="fill: none; stroke: #1f77b4; stroke-width: 1.5; stroke-linecap: square"/>
    </g>
    <g id="text_22">
     <!-- star -->
     <g style="fill: #a9a9a9" transform="translate(843.08 331.998438) scale(0.1 -0.1)">
      <defs>
       <path id="DejaVuSans-61" d="M 2194 1759 
Q 1497 1759 1228 1600 
Q 959 1441 959 1056 
Q 959 750 1161 570 
Q 1363 391 1709 391 
Q 2188 391 2477 730 
Q 2766 1069 2766 1631 
L 2766 1759 
L 2194 1759 
z
M 3341 1997 
L 3341 0 
L 2766 0 
L 2766 531 
Q 2569 213 2275 61 
Q 1981 -91 1556 -91 
Q 1019 -91 701 211 
Q 384 513 384 1019 
Q 384 1609 779 1909 
Q 1175 2209 1959 2209 
L 2766 2209 
L 2766 2266 
Q 2766 2663 2505 2880 
Q 2244 3097 1772 3097 
Q 1472 3097 1187 3025 
Q 903 2953 641 2809 
L 641 3341 
Q 956 3463 1253 3523 
Q 1550 3584 1831 3584 
Q 2591 3584 2966 3190 
Q 3341 2797 3341 1997 
z
" transform="scale(0.015625)"/>
      </defs>
      <use xlink:href="#DejaVuSans-73"/>
      <use xlink:href="#DejaVuSans-74" x="52.099609"/>
      <use xlink:href="#DejaVuSans-61" x="91.308594"/>
      <use xlink:href="#DejaVuSans-72" x="152.587891"/>
     </g>
    </g>
    <g id="line2d_44">
     <path d="M 815.08 343.176562 
L 825.08 343.176562 
L 835.08 343.176562 
" style="fill: none; stroke: #ff7f0e; stroke-width: 1.5; stroke-linecap: square"/>
    </g>
    <g id="text_23">
     <!-- fork -->
     <g style="fill: #a9a9a9" transform="translate(843.08 346.676562) scale(0.1 -0.1)">
      <defs>
       <path id="DejaVuSans-66" d="M 2375 4863 
L 2375 4384 
L 1825 4384 
Q 1516 4384 1395 4259 
Q 1275 4134 1275 3809 
L 1275 3500 
L 2222 3500 
L 2222 3053 
L 1275 3053 
L 1275 0 
L 697 0 
L 697 3053 
L 147 3053 
L 147 3500 
L 697 3500 
L 697 3744 
Q 697 4328 969 4595 
Q 1241 4863 1831 4863 
L 2375 4863 
z
" transform="scale(0.015625)"/>
       <path id="DejaVuSans-6b" d="M 581 4863 
L 1159 4863 
L 1159 1991 
L 2875 3500 
L 3609 3500 
L 1753 1863 
L 3688 0 
L 2938 0 
L 1159 1709 
L 1159 0 
L 581 0 
L 581 4863 
z
" transform="scale(0.015625)"/>
      </defs>
      <use xlink:href="#DejaVuSans-66"/>
      <use xlink:href="#DejaVuSans-6f" x="35.205078"/>
      <use xlink:href="#DejaVuSans-72" x="96.386719"/>
      <use xlink:href="#DejaVuSans-6b" x="137.5"/>
     </g>
    </g>
   </g>
  </g>
 </g>
 <defs>
  <clipPath id="p11bef2c018">
   <rect x="108" y="43.2" width="669.6" height="277.2"/>
  </clipPath>
 </defs>
</svg>
