<?xml version="1.0" encoding="utf-8" standalone="no"?>
<!DOCTYPE svg PUBLIC "-//W3C//DTD SVG 1.1//EN"
  "http://www.w3.org/Graphics/SVG/1.1/DTD/svg11.dtd">
<svg xmlns:xlink="http://www.w3.org/1999/xlink" width="864pt" height="360pt" viewBox="0 0 864 360" xmlns="http://www.w3.org/2000/svg" version="1.1">
 <metadata>
  <rdf:RDF xmlns:dc="http://purl.org/dc/elements/1.1/" xmlns:cc="http://creativecommons.org/ns#" xmlns:rdf="http://www.w3.org/1999/02/22-rdf-syntax-ns#">
   <cc:Work>
    <dc:type rdf:resource="http://purl.org/dc/dcmitype/StillImage"/>
    <dc:date>2023-01-09T08:56:51.289389</dc:date>
    <dc:format>image/svg+xml</dc:format>
    <dc:creator>
     <cc:Agent>
      <dc:title>Matplotlib v3.6.2, https://matplotlib.org/</dc:title>
     </cc:Agent>
    </dc:creator>
   </cc:Work>
  </rdf:RDF>
 </metadata>
 <defs>
  <style type="text/css">*{stroke-linejoin: round; stroke-linecap: butt}</style>
 </defs>
 <g id="figure_1">
  <g id="patch_1">
   <path d="M 0 360 
L 864 360 
L 864 0 
L 0 0 
L 0 360 
z
" style="fill: none; opacity: 0"/>
  </g>
  <g id="axes_1">
   <g id="patch_2">
    <path d="M 108 320.4 
L 777.6 320.4 
L 777.6 43.2 
L 108 43.2 
L 108 320.4 
z
" style="fill: none; opacity: 0"/>
   </g>
   <g id="matplotlib.axis_1">
    <g id="xtick_1">
     <g id="line2d_1">
      <path d="M 112.217773 320.4 
L 112.217773 43.2 
" clip-path="url(#p6aa97e6b59)" style="fill: none; stroke-dasharray: 5.12,1.28,0.8,1.28; stroke-dashoffset: 0; stroke: #b0b0b0; stroke-width: 0.8"/>
     </g>
     <g id="line2d_2">
      <defs>
       <path id="mcafda6a1da" d="M 0 0 
L 0 3.5 
" style="stroke: #a9a9a9; stroke-width: 0.8"/>
      </defs>
      <g>
       <use xlink:href="#mcafda6a1da" x="112.217773" y="320.4" style="fill: #a9a9a9; stroke: #a9a9a9; stroke-width: 0.8"/>
      </g>
     </g>
     <g id="text_1">
      <!-- 2021-07 -->
      <g style="fill: #a9a9a9" transform="translate(91.326367 334.998438) scale(0.1 -0.1)">
       <defs>
        <path id="DejaVuSans-32" d="M 1228 531 
L 3431 531 
L 3431 0 
L 469 0 
L 469 531 
Q 828 903 1448 1529 
Q 2069 2156 2228 2338 
Q 2531 2678 2651 2914 
Q 2772 3150 2772 3378 
Q 2772 3750 2511 3984 
Q 2250 4219 1831 4219 
Q 1534 4219 1204 4116 
Q 875 4013 500 3803 
L 500 4441 
Q 881 4594 1212 4672 
Q 1544 4750 1819 4750 
Q 2544 4750 2975 4387 
Q 3406 4025 3406 3419 
Q 3406 3131 3298 2873 
Q 3191 2616 2906 2266 
Q 2828 2175 2409 1742 
Q 1991 1309 1228 531 
z
" transform="scale(0.015625)"/>
        <path id="DejaVuSans-30" d="M 2034 4250 
Q 1547 4250 1301 3770 
Q 1056 3291 1056 2328 
Q 1056 1369 1301 889 
Q 1547 409 2034 409 
Q 2525 409 2770 889 
Q 3016 1369 3016 2328 
Q 3016 3291 2770 3770 
Q 2525 4250 2034 4250 
z
M 2034 4750 
Q 2819 4750 3233 4129 
Q 3647 3509 3647 2328 
Q 3647 1150 3233 529 
Q 2819 -91 2034 -91 
Q 1250 -91 836 529 
Q 422 1150 422 2328 
Q 422 3509 836 4129 
Q 1250 4750 2034 4750 
z
" transform="scale(0.015625)"/>
        <path id="DejaVuSans-31" d="M 794 531 
L 1825 531 
L 1825 4091 
L 703 3866 
L 703 4441 
L 1819 4666 
L 2450 4666 
L 2450 531 
L 3481 531 
L 3481 0 
L 794 0 
L 794 531 
z
" transform="scale(0.015625)"/>
        <path id="DejaVuSans-2d" d="M 313 2009 
L 1997 2009 
L 1997 1497 
L 313 1497 
L 313 2009 
z
" transform="scale(0.015625)"/>
        <path id="DejaVuSans-37" d="M 525 4666 
L 3525 4666 
L 3525 4397 
L 1831 0 
L 1172 0 
L 2766 4134 
L 525 4134 
L 525 4666 
z
" transform="scale(0.015625)"/>
       </defs>
       <use xlink:href="#DejaVuSans-32"/>
       <use xlink:href="#DejaVuSans-30" x="63.623047"/>
       <use xlink:href="#DejaVuSans-32" x="127.246094"/>
       <use xlink:href="#DejaVuSans-31" x="190.869141"/>
       <use xlink:href="#DejaVuSans-2d" x="254.492188"/>
       <use xlink:href="#DejaVuSans-30" x="290.576172"/>
       <use xlink:href="#DejaVuSans-37" x="354.199219"/>
      </g>
     </g>
    </g>
    <g id="xtick_2">
     <g id="line2d_3">
      <path d="M 182.893973 320.4 
L 182.893973 43.2 
" clip-path="url(#p6aa97e6b59)" style="fill: none; stroke-dasharray: 5.12,1.28,0.8,1.28; stroke-dashoffset: 0; stroke: #b0b0b0; stroke-width: 0.8"/>
     </g>
     <g id="line2d_4">
      <g>
       <use xlink:href="#mcafda6a1da" x="182.893973" y="320.4" style="fill: #a9a9a9; stroke: #a9a9a9; stroke-width: 0.8"/>
      </g>
     </g>
     <g id="text_2">
      <!-- 2021-09 -->
      <g style="fill: #a9a9a9" transform="translate(162.002567 334.998438) scale(0.1 -0.1)">
       <defs>
        <path id="DejaVuSans-39" d="M 703 97 
L 703 672 
Q 941 559 1184 500 
Q 1428 441 1663 441 
Q 2288 441 2617 861 
Q 2947 1281 2994 2138 
Q 2813 1869 2534 1725 
Q 2256 1581 1919 1581 
Q 1219 1581 811 2004 
Q 403 2428 403 3163 
Q 403 3881 828 4315 
Q 1253 4750 1959 4750 
Q 2769 4750 3195 4129 
Q 3622 3509 3622 2328 
Q 3622 1225 3098 567 
Q 2575 -91 1691 -91 
Q 1453 -91 1209 -44 
Q 966 3 703 97 
z
M 1959 2075 
Q 2384 2075 2632 2365 
Q 2881 2656 2881 3163 
Q 2881 3666 2632 3958 
Q 2384 4250 1959 4250 
Q 1534 4250 1286 3958 
Q 1038 3666 1038 3163 
Q 1038 2656 1286 2365 
Q 1534 2075 1959 2075 
z
" transform="scale(0.015625)"/>
       </defs>
       <use xlink:href="#DejaVuSans-32"/>
       <use xlink:href="#DejaVuSans-30" x="63.623047"/>
       <use xlink:href="#DejaVuSans-32" x="127.246094"/>
       <use xlink:href="#DejaVuSans-31" x="190.869141"/>
       <use xlink:href="#DejaVuSans-2d" x="254.492188"/>
       <use xlink:href="#DejaVuSans-30" x="290.576172"/>
       <use xlink:href="#DejaVuSans-39" x="354.199219"/>
      </g>
     </g>
    </g>
    <g id="xtick_3">
     <g id="line2d_5">
      <path d="M 252.430235 320.4 
L 252.430235 43.2 
" clip-path="url(#p6aa97e6b59)" style="fill: none; stroke-dasharray: 5.12,1.28,0.8,1.28; stroke-dashoffset: 0; stroke: #b0b0b0; stroke-width: 0.8"/>
     </g>
     <g id="line2d_6">
      <g>
       <use xlink:href="#mcafda6a1da" x="252.430235" y="320.4" style="fill: #a9a9a9; stroke: #a9a9a9; stroke-width: 0.8"/>
      </g>
     </g>
     <g id="text_3">
      <!-- 2021-11 -->
      <g style="fill: #a9a9a9" transform="translate(231.538829 334.998438) scale(0.1 -0.1)">
       <use xlink:href="#DejaVuSans-32"/>
       <use xlink:href="#DejaVuSans-30" x="63.623047"/>
       <use xlink:href="#DejaVuSans-32" x="127.246094"/>
       <use xlink:href="#DejaVuSans-31" x="190.869141"/>
       <use xlink:href="#DejaVuSans-2d" x="254.492188"/>
       <use xlink:href="#DejaVuSans-31" x="290.576172"/>
       <use xlink:href="#DejaVuSans-31" x="354.199219"/>
      </g>
     </g>
    </g>
    <g id="xtick_4">
     <g id="line2d_7">
      <path d="M 321.966496 320.4 
L 321.966496 43.2 
" clip-path="url(#p6aa97e6b59)" style="fill: none; stroke-dasharray: 5.12,1.28,0.8,1.28; stroke-dashoffset: 0; stroke: #b0b0b0; stroke-width: 0.8"/>
     </g>
     <g id="line2d_8">
      <g>
       <use xlink:href="#mcafda6a1da" x="321.966496" y="320.4" style="fill: #a9a9a9; stroke: #a9a9a9; stroke-width: 0.8"/>
      </g>
     </g>
     <g id="text_4">
      <!-- 2022-01 -->
      <g style="fill: #a9a9a9" transform="translate(301.07509 334.998438) scale(0.1 -0.1)">
       <use xlink:href="#DejaVuSans-32"/>
       <use xlink:href="#DejaVuSans-30" x="63.623047"/>
       <use xlink:href="#DejaVuSans-32" x="127.246094"/>
       <use xlink:href="#DejaVuSans-32" x="190.869141"/>
       <use xlink:href="#DejaVuSans-2d" x="254.492188"/>
       <use xlink:href="#DejaVuSans-30" x="290.576172"/>
       <use xlink:href="#DejaVuSans-31" x="354.199219"/>
      </g>
     </g>
    </g>
    <g id="xtick_5">
     <g id="line2d_9">
      <path d="M 389.22288 320.4 
L 389.22288 43.2 
" clip-path="url(#p6aa97e6b59)" style="fill: none; stroke-dasharray: 5.12,1.28,0.8,1.28; stroke-dashoffset: 0; stroke: #b0b0b0; stroke-width: 0.8"/>
     </g>
     <g id="line2d_10">
      <g>
       <use xlink:href="#mcafda6a1da" x="389.22288" y="320.4" style="fill: #a9a9a9; stroke: #a9a9a9; stroke-width: 0.8"/>
      </g>
     </g>
     <g id="text_5">
      <!-- 2022-03 -->
      <g style="fill: #a9a9a9" transform="translate(368.331474 334.998438) scale(0.1 -0.1)">
       <defs>
        <path id="DejaVuSans-33" d="M 2597 2516 
Q 3050 2419 3304 2112 
Q 3559 1806 3559 1356 
Q 3559 666 3084 287 
Q 2609 -91 1734 -91 
Q 1441 -91 1130 -33 
Q 819 25 488 141 
L 488 750 
Q 750 597 1062 519 
Q 1375 441 1716 441 
Q 2309 441 2620 675 
Q 2931 909 2931 1356 
Q 2931 1769 2642 2001 
Q 2353 2234 1838 2234 
L 1294 2234 
L 1294 2753 
L 1863 2753 
Q 2328 2753 2575 2939 
Q 2822 3125 2822 3475 
Q 2822 3834 2567 4026 
Q 2313 4219 1838 4219 
Q 1578 4219 1281 4162 
Q 984 4106 628 3988 
L 628 4550 
Q 988 4650 1302 4700 
Q 1616 4750 1894 4750 
Q 2613 4750 3031 4423 
Q 3450 4097 3450 3541 
Q 3450 3153 3228 2886 
Q 3006 2619 2597 2516 
z
" transform="scale(0.015625)"/>
       </defs>
       <use xlink:href="#DejaVuSans-32"/>
       <use xlink:href="#DejaVuSans-30" x="63.623047"/>
       <use xlink:href="#DejaVuSans-32" x="127.246094"/>
       <use xlink:href="#DejaVuSans-32" x="190.869141"/>
       <use xlink:href="#DejaVuSans-2d" x="254.492188"/>
       <use xlink:href="#DejaVuSans-30" x="290.576172"/>
       <use xlink:href="#DejaVuSans-33" x="354.199219"/>
      </g>
     </g>
    </g>
    <g id="xtick_6">
     <g id="line2d_11">
      <path d="M 458.759142 320.4 
L 458.759142 43.2 
" clip-path="url(#p6aa97e6b59)" style="fill: none; stroke-dasharray: 5.12,1.28,0.8,1.28; stroke-dashoffset: 0; stroke: #b0b0b0; stroke-width: 0.8"/>
     </g>
     <g id="line2d_12">
      <g>
       <use xlink:href="#mcafda6a1da" x="458.759142" y="320.4" style="fill: #a9a9a9; stroke: #a9a9a9; stroke-width: 0.8"/>
      </g>
     </g>
     <g id="text_6">
      <!-- 2022-05 -->
      <g style="fill: #a9a9a9" transform="translate(437.867736 334.998438) scale(0.1 -0.1)">
       <defs>
        <path id="DejaVuSans-35" d="M 691 4666 
L 3169 4666 
L 3169 4134 
L 1269 4134 
L 1269 2991 
Q 1406 3038 1543 3061 
Q 1681 3084 1819 3084 
Q 2600 3084 3056 2656 
Q 3513 2228 3513 1497 
Q 3513 744 3044 326 
Q 2575 -91 1722 -91 
Q 1428 -91 1123 -41 
Q 819 9 494 109 
L 494 744 
Q 775 591 1075 516 
Q 1375 441 1709 441 
Q 2250 441 2565 725 
Q 2881 1009 2881 1497 
Q 2881 1984 2565 2268 
Q 2250 2553 1709 2553 
Q 1456 2553 1204 2497 
Q 953 2441 691 2322 
L 691 4666 
z
" transform="scale(0.015625)"/>
       </defs>
       <use xlink:href="#DejaVuSans-32"/>
       <use xlink:href="#DejaVuSans-30" x="63.623047"/>
       <use xlink:href="#DejaVuSans-32" x="127.246094"/>
       <use xlink:href="#DejaVuSans-32" x="190.869141"/>
       <use xlink:href="#DejaVuSans-2d" x="254.492188"/>
       <use xlink:href="#DejaVuSans-30" x="290.576172"/>
       <use xlink:href="#DejaVuSans-35" x="354.199219"/>
      </g>
     </g>
    </g>
    <g id="xtick_7">
     <g id="line2d_13">
      <path d="M 528.295403 320.4 
L 528.295403 43.2 
" clip-path="url(#p6aa97e6b59)" style="fill: none; stroke-dasharray: 5.12,1.28,0.8,1.28; stroke-dashoffset: 0; stroke: #b0b0b0; stroke-width: 0.8"/>
     </g>
     <g id="line2d_14">
      <g>
       <use xlink:href="#mcafda6a1da" x="528.295403" y="320.4" style="fill: #a9a9a9; stroke: #a9a9a9; stroke-width: 0.8"/>
      </g>
     </g>
     <g id="text_7">
      <!-- 2022-07 -->
      <g style="fill: #a9a9a9" transform="translate(507.403997 334.998438) scale(0.1 -0.1)">
       <use xlink:href="#DejaVuSans-32"/>
       <use xlink:href="#DejaVuSans-30" x="63.623047"/>
       <use xlink:href="#DejaVuSans-32" x="127.246094"/>
       <use xlink:href="#DejaVuSans-32" x="190.869141"/>
       <use xlink:href="#DejaVuSans-2d" x="254.492188"/>
       <use xlink:href="#DejaVuSans-30" x="290.576172"/>
       <use xlink:href="#DejaVuSans-37" x="354.199219"/>
      </g>
     </g>
    </g>
    <g id="xtick_8">
     <g id="line2d_15">
      <path d="M 598.971604 320.4 
L 598.971604 43.2 
" clip-path="url(#p6aa97e6b59)" style="fill: none; stroke-dasharray: 5.12,1.28,0.8,1.28; stroke-dashoffset: 0; stroke: #b0b0b0; stroke-width: 0.8"/>
     </g>
     <g id="line2d_16">
      <g>
       <use xlink:href="#mcafda6a1da" x="598.971604" y="320.4" style="fill: #a9a9a9; stroke: #a9a9a9; stroke-width: 0.8"/>
      </g>
     </g>
     <g id="text_8">
      <!-- 2022-09 -->
      <g style="fill: #a9a9a9" transform="translate(578.080197 334.998438) scale(0.1 -0.1)">
       <use xlink:href="#DejaVuSans-32"/>
       <use xlink:href="#DejaVuSans-30" x="63.623047"/>
       <use xlink:href="#DejaVuSans-32" x="127.246094"/>
       <use xlink:href="#DejaVuSans-32" x="190.869141"/>
       <use xlink:href="#DejaVuSans-2d" x="254.492188"/>
       <use xlink:href="#DejaVuSans-30" x="290.576172"/>
       <use xlink:href="#DejaVuSans-39" x="354.199219"/>
      </g>
     </g>
    </g>
    <g id="xtick_9">
     <g id="line2d_17">
      <path d="M 668.507865 320.4 
L 668.507865 43.2 
" clip-path="url(#p6aa97e6b59)" style="fill: none; stroke-dasharray: 5.12,1.28,0.8,1.28; stroke-dashoffset: 0; stroke: #b0b0b0; stroke-width: 0.8"/>
     </g>
     <g id="line2d_18">
      <g>
       <use xlink:href="#mcafda6a1da" x="668.507865" y="320.4" style="fill: #a9a9a9; stroke: #a9a9a9; stroke-width: 0.8"/>
      </g>
     </g>
     <g id="text_9">
      <!-- 2022-11 -->
      <g style="fill: #a9a9a9" transform="translate(647.616459 334.998438) scale(0.1 -0.1)">
       <use xlink:href="#DejaVuSans-32"/>
       <use xlink:href="#DejaVuSans-30" x="63.623047"/>
       <use xlink:href="#DejaVuSans-32" x="127.246094"/>
       <use xlink:href="#DejaVuSans-32" x="190.869141"/>
       <use xlink:href="#DejaVuSans-2d" x="254.492188"/>
       <use xlink:href="#DejaVuSans-31" x="290.576172"/>
       <use xlink:href="#DejaVuSans-31" x="354.199219"/>
      </g>
     </g>
    </g>
    <g id="xtick_10">
     <g id="line2d_19">
      <path d="M 738.044127 320.4 
L 738.044127 43.2 
" clip-path="url(#p6aa97e6b59)" style="fill: none; stroke-dasharray: 5.12,1.28,0.8,1.28; stroke-dashoffset: 0; stroke: #b0b0b0; stroke-width: 0.8"/>
     </g>
     <g id="line2d_20">
      <g>
       <use xlink:href="#mcafda6a1da" x="738.044127" y="320.4" style="fill: #a9a9a9; stroke: #a9a9a9; stroke-width: 0.8"/>
      </g>
     </g>
     <g id="text_10">
      <!-- 2023-01 -->
      <g style="fill: #a9a9a9" transform="translate(717.15272 334.998438) scale(0.1 -0.1)">
       <use xlink:href="#DejaVuSans-32"/>
       <use xlink:href="#DejaVuSans-30" x="63.623047"/>
       <use xlink:href="#DejaVuSans-32" x="127.246094"/>
       <use xlink:href="#DejaVuSans-33" x="190.869141"/>
       <use xlink:href="#DejaVuSans-2d" x="254.492188"/>
       <use xlink:href="#DejaVuSans-30" x="290.576172"/>
       <use xlink:href="#DejaVuSans-31" x="354.199219"/>
      </g>
     </g>
    </g>
   </g>
   <g id="matplotlib.axis_2">
    <g id="ytick_1">
     <g id="line2d_21">
      <path d="M 108 307.871327 
L 777.6 307.871327 
" clip-path="url(#p6aa97e6b59)" style="fill: none; stroke-dasharray: 5.12,1.28,0.8,1.28; stroke-dashoffset: 0; stroke: #b0b0b0; stroke-width: 0.8"/>
     </g>
     <g id="line2d_22">
      <defs>
       <path id="m66a8632411" d="M 0 0 
L -3.5 0 
" style="stroke: #a9a9a9; stroke-width: 0.8"/>
      </defs>
      <g>
       <use xlink:href="#m66a8632411" x="108" y="307.871327" style="fill: #a9a9a9; stroke: #a9a9a9; stroke-width: 0.8"/>
      </g>
     </g>
     <g id="text_11">
      <!-- 0 -->
      <g style="fill: #a9a9a9" transform="translate(94.6375 311.670546) scale(0.1 -0.1)">
       <use xlink:href="#DejaVuSans-30"/>
      </g>
     </g>
    </g>
    <g id="ytick_2">
     <g id="line2d_23">
      <path d="M 108 279.340334 
L 777.6 279.340334 
" clip-path="url(#p6aa97e6b59)" style="fill: none; stroke-dasharray: 5.12,1.28,0.8,1.28; stroke-dashoffset: 0; stroke: #b0b0b0; stroke-width: 0.8"/>
     </g>
     <g id="line2d_24">
      <g>
       <use xlink:href="#m66a8632411" x="108" y="279.340334" style="fill: #a9a9a9; stroke: #a9a9a9; stroke-width: 0.8"/>
      </g>
     </g>
     <g id="text_12">
      <!-- 400 -->
      <g style="fill: #a9a9a9" transform="translate(81.9125 283.139553) scale(0.1 -0.1)">
       <defs>
        <path id="DejaVuSans-34" d="M 2419 4116 
L 825 1625 
L 2419 1625 
L 2419 4116 
z
M 2253 4666 
L 3047 4666 
L 3047 1625 
L 3713 1625 
L 3713 1100 
L 3047 1100 
L 3047 0 
L 2419 0 
L 2419 1100 
L 313 1100 
L 313 1709 
L 2253 4666 
z
" transform="scale(0.015625)"/>
       </defs>
       <use xlink:href="#DejaVuSans-34"/>
       <use xlink:href="#DejaVuSans-30" x="63.623047"/>
       <use xlink:href="#DejaVuSans-30" x="127.246094"/>
      </g>
     </g>
    </g>
    <g id="ytick_3">
     <g id="line2d_25">
      <path d="M 108 250.809341 
L 777.6 250.809341 
" clip-path="url(#p6aa97e6b59)" style="fill: none; stroke-dasharray: 5.12,1.28,0.8,1.28; stroke-dashoffset: 0; stroke: #b0b0b0; stroke-width: 0.8"/>
     </g>
     <g id="line2d_26">
      <g>
       <use xlink:href="#m66a8632411" x="108" y="250.809341" style="fill: #a9a9a9; stroke: #a9a9a9; stroke-width: 0.8"/>
      </g>
     </g>
     <g id="text_13">
      <!-- 800 -->
      <g style="fill: #a9a9a9" transform="translate(81.9125 254.608559) scale(0.1 -0.1)">
       <defs>
        <path id="DejaVuSans-38" d="M 2034 2216 
Q 1584 2216 1326 1975 
Q 1069 1734 1069 1313 
Q 1069 891 1326 650 
Q 1584 409 2034 409 
Q 2484 409 2743 651 
Q 3003 894 3003 1313 
Q 3003 1734 2745 1975 
Q 2488 2216 2034 2216 
z
M 1403 2484 
Q 997 2584 770 2862 
Q 544 3141 544 3541 
Q 544 4100 942 4425 
Q 1341 4750 2034 4750 
Q 2731 4750 3128 4425 
Q 3525 4100 3525 3541 
Q 3525 3141 3298 2862 
Q 3072 2584 2669 2484 
Q 3125 2378 3379 2068 
Q 3634 1759 3634 1313 
Q 3634 634 3220 271 
Q 2806 -91 2034 -91 
Q 1263 -91 848 271 
Q 434 634 434 1313 
Q 434 1759 690 2068 
Q 947 2378 1403 2484 
z
M 1172 3481 
Q 1172 3119 1398 2916 
Q 1625 2713 2034 2713 
Q 2441 2713 2670 2916 
Q 2900 3119 2900 3481 
Q 2900 3844 2670 4047 
Q 2441 4250 2034 4250 
Q 1625 4250 1398 4047 
Q 1172 3844 1172 3481 
z
" transform="scale(0.015625)"/>
       </defs>
       <use xlink:href="#DejaVuSans-38"/>
       <use xlink:href="#DejaVuSans-30" x="63.623047"/>
       <use xlink:href="#DejaVuSans-30" x="127.246094"/>
      </g>
     </g>
    </g>
    <g id="ytick_4">
     <g id="line2d_27">
      <path d="M 108 222.278347 
L 777.6 222.278347 
" clip-path="url(#p6aa97e6b59)" style="fill: none; stroke-dasharray: 5.12,1.28,0.8,1.28; stroke-dashoffset: 0; stroke: #b0b0b0; stroke-width: 0.8"/>
     </g>
     <g id="line2d_28">
      <g>
       <use xlink:href="#m66a8632411" x="108" y="222.278347" style="fill: #a9a9a9; stroke: #a9a9a9; stroke-width: 0.8"/>
      </g>
     </g>
     <g id="text_14">
      <!-- 1200 -->
      <g style="fill: #a9a9a9" transform="translate(75.55 226.077566) scale(0.1 -0.1)">
       <use xlink:href="#DejaVuSans-31"/>
       <use xlink:href="#DejaVuSans-32" x="63.623047"/>
       <use xlink:href="#DejaVuSans-30" x="127.246094"/>
       <use xlink:href="#DejaVuSans-30" x="190.869141"/>
      </g>
     </g>
    </g>
    <g id="ytick_5">
     <g id="line2d_29">
      <path d="M 108 193.747354 
L 777.6 193.747354 
" clip-path="url(#p6aa97e6b59)" style="fill: none; stroke-dasharray: 5.12,1.28,0.8,1.28; stroke-dashoffset: 0; stroke: #b0b0b0; stroke-width: 0.8"/>
     </g>
     <g id="line2d_30">
      <g>
       <use xlink:href="#m66a8632411" x="108" y="193.747354" style="fill: #a9a9a9; stroke: #a9a9a9; stroke-width: 0.8"/>
      </g>
     </g>
     <g id="text_15">
      <!-- 1600 -->
      <g style="fill: #a9a9a9" transform="translate(75.55 197.546572) scale(0.1 -0.1)">
       <defs>
        <path id="DejaVuSans-36" d="M 2113 2584 
Q 1688 2584 1439 2293 
Q 1191 2003 1191 1497 
Q 1191 994 1439 701 
Q 1688 409 2113 409 
Q 2538 409 2786 701 
Q 3034 994 3034 1497 
Q 3034 2003 2786 2293 
Q 2538 2584 2113 2584 
z
M 3366 4563 
L 3366 3988 
Q 3128 4100 2886 4159 
Q 2644 4219 2406 4219 
Q 1781 4219 1451 3797 
Q 1122 3375 1075 2522 
Q 1259 2794 1537 2939 
Q 1816 3084 2150 3084 
Q 2853 3084 3261 2657 
Q 3669 2231 3669 1497 
Q 3669 778 3244 343 
Q 2819 -91 2113 -91 
Q 1303 -91 875 529 
Q 447 1150 447 2328 
Q 447 3434 972 4092 
Q 1497 4750 2381 4750 
Q 2619 4750 2861 4703 
Q 3103 4656 3366 4563 
z
" transform="scale(0.015625)"/>
       </defs>
       <use xlink:href="#DejaVuSans-31"/>
       <use xlink:href="#DejaVuSans-36" x="63.623047"/>
       <use xlink:href="#DejaVuSans-30" x="127.246094"/>
       <use xlink:href="#DejaVuSans-30" x="190.869141"/>
      </g>
     </g>
    </g>
    <g id="ytick_6">
     <g id="line2d_31">
      <path d="M 108 165.21636 
L 777.6 165.21636 
" clip-path="url(#p6aa97e6b59)" style="fill: none; stroke-dasharray: 5.12,1.28,0.8,1.28; stroke-dashoffset: 0; stroke: #b0b0b0; stroke-width: 0.8"/>
     </g>
     <g id="line2d_32">
      <g>
       <use xlink:href="#m66a8632411" x="108" y="165.21636" style="fill: #a9a9a9; stroke: #a9a9a9; stroke-width: 0.8"/>
      </g>
     </g>
     <g id="text_16">
      <!-- 2000 -->
      <g style="fill: #a9a9a9" transform="translate(75.55 169.015579) scale(0.1 -0.1)">
       <use xlink:href="#DejaVuSans-32"/>
       <use xlink:href="#DejaVuSans-30" x="63.623047"/>
       <use xlink:href="#DejaVuSans-30" x="127.246094"/>
       <use xlink:href="#DejaVuSans-30" x="190.869141"/>
      </g>
     </g>
    </g>
    <g id="ytick_7">
     <g id="line2d_33">
      <path d="M 108 136.685367 
L 777.6 136.685367 
" clip-path="url(#p6aa97e6b59)" style="fill: none; stroke-dasharray: 5.12,1.28,0.8,1.28; stroke-dashoffset: 0; stroke: #b0b0b0; stroke-width: 0.8"/>
     </g>
     <g id="line2d_34">
      <g>
       <use xlink:href="#m66a8632411" x="108" y="136.685367" style="fill: #a9a9a9; stroke: #a9a9a9; stroke-width: 0.8"/>
      </g>
     </g>
     <g id="text_17">
      <!-- 2400 -->
      <g style="fill: #a9a9a9" transform="translate(75.55 140.484585) scale(0.1 -0.1)">
       <use xlink:href="#DejaVuSans-32"/>
       <use xlink:href="#DejaVuSans-34" x="63.623047"/>
       <use xlink:href="#DejaVuSans-30" x="127.246094"/>
       <use xlink:href="#DejaVuSans-30" x="190.869141"/>
      </g>
     </g>
    </g>
    <g id="ytick_8">
     <g id="line2d_35">
      <path d="M 108 108.154373 
L 777.6 108.154373 
" clip-path="url(#p6aa97e6b59)" style="fill: none; stroke-dasharray: 5.12,1.28,0.8,1.28; stroke-dashoffset: 0; stroke: #b0b0b0; stroke-width: 0.8"/>
     </g>
     <g id="line2d_36">
      <g>
       <use xlink:href="#m66a8632411" x="108" y="108.154373" style="fill: #a9a9a9; stroke: #a9a9a9; stroke-width: 0.8"/>
      </g>
     </g>
     <g id="text_18">
      <!-- 2800 -->
      <g style="fill: #a9a9a9" transform="translate(75.55 111.953592) scale(0.1 -0.1)">
       <use xlink:href="#DejaVuSans-32"/>
       <use xlink:href="#DejaVuSans-38" x="63.623047"/>
       <use xlink:href="#DejaVuSans-30" x="127.246094"/>
       <use xlink:href="#DejaVuSans-30" x="190.869141"/>
      </g>
     </g>
    </g>
    <g id="ytick_9">
     <g id="line2d_37">
      <path d="M 108 79.62338 
L 777.6 79.62338 
" clip-path="url(#p6aa97e6b59)" style="fill: none; stroke-dasharray: 5.12,1.28,0.8,1.28; stroke-dashoffset: 0; stroke: #b0b0b0; stroke-width: 0.8"/>
     </g>
     <g id="line2d_38">
      <g>
       <use xlink:href="#m66a8632411" x="108" y="79.62338" style="fill: #a9a9a9; stroke: #a9a9a9; stroke-width: 0.8"/>
      </g>
     </g>
     <g id="text_19">
      <!-- 3200 -->
      <g style="fill: #a9a9a9" transform="translate(75.55 83.422598) scale(0.1 -0.1)">
       <use xlink:href="#DejaVuSans-33"/>
       <use xlink:href="#DejaVuSans-32" x="63.623047"/>
       <use xlink:href="#DejaVuSans-30" x="127.246094"/>
       <use xlink:href="#DejaVuSans-30" x="190.869141"/>
      </g>
     </g>
    </g>
    <g id="ytick_10">
     <g id="line2d_39">
      <path d="M 108 51.092386 
L 777.6 51.092386 
" clip-path="url(#p6aa97e6b59)" style="fill: none; stroke-dasharray: 5.12,1.28,0.8,1.28; stroke-dashoffset: 0; stroke: #b0b0b0; stroke-width: 0.8"/>
     </g>
     <g id="line2d_40">
      <g>
       <use xlink:href="#m66a8632411" x="108" y="51.092386" style="fill: #a9a9a9; stroke: #a9a9a9; stroke-width: 0.8"/>
      </g>
     </g>
     <g id="text_20">
      <!-- 3600 -->
      <g style="fill: #a9a9a9" transform="translate(75.55 54.891605) scale(0.1 -0.1)">
       <use xlink:href="#DejaVuSans-33"/>
       <use xlink:href="#DejaVuSans-36" x="63.623047"/>
       <use xlink:href="#DejaVuSans-30" x="127.246094"/>
       <use xlink:href="#DejaVuSans-30" x="190.869141"/>
      </g>
     </g>
    </g>
   </g>
   <g id="line2d_41">
    <path d="M 138.436364 307.586018 
L 142.996118 307.22938 
L 144.136057 307.086725 
L 145.275996 307.086725 
L 146.415935 306.65876 
L 148.695812 306.516105 
L 156.675383 305.018228 
L 158.95526 304.875573 
L 160.095199 304.661591 
L 163.515015 304.447608 
L 164.654954 303.876988 
L 165.794893 303.591678 
L 166.934831 302.307784 
L 168.07477 301.594509 
L 169.214709 299.098047 
L 170.354648 298.955392 
L 171.494586 298.17079 
L 172.634525 297.742825 
L 173.774464 297.172205 
L 177.19428 294.533088 
L 178.334219 293.962468 
L 180.614096 293.106538 
L 181.754035 292.321936 
L 182.893973 291.893971 
L 185.173851 290.538749 
L 186.31379 290.182112 
L 187.453728 288.470252 
L 188.593667 287.614322 
L 189.733606 286.972375 
L 190.873544 286.473082 
L 195.433299 285.831135 
L 198.853115 285.260515 
L 201.132993 285.11786 
L 202.272932 284.903878 
L 203.41287 284.333258 
L 207.972625 283.97662 
L 211.392441 283.619983 
L 212.53238 283.263346 
L 218.232074 282.193433 
L 220.511951 281.979451 
L 221.65189 281.694141 
L 225.071706 281.266176 
L 226.211645 280.695556 
L 227.351583 280.552901 
L 229.631461 279.768299 
L 231.911338 279.554316 
L 233.051277 279.197679 
L 237.611032 278.555732 
L 238.75097 278.199094 
L 241.030848 277.842457 
L 242.170787 277.842457 
L 247.87048 277.129182 
L 250.150358 276.487235 
L 251.290296 276.201925 
L 253.570174 275.987942 
L 254.710112 275.916615 
L 258.129928 275.274667 
L 259.269867 274.846703 
L 260.409806 273.420153 
L 261.549745 272.992188 
L 262.689683 272.421568 
L 263.829622 272.278913 
L 264.969561 271.993603 
L 266.109499 271.850948 
L 268.389377 270.923691 
L 269.529316 270.852363 
L 275.229009 269.425814 
L 276.368948 269.425814 
L 278.648825 269.140504 
L 280.928703 268.498556 
L 284.348519 267.642627 
L 285.488458 267.571299 
L 287.768335 266.644042 
L 288.908274 266.501387 
L 290.048212 266.002095 
L 292.32809 265.788112 
L 293.468029 265.716785 
L 296.887845 265.146165 
L 299.167722 264.789527 
L 302.587538 264.14758 
L 303.727477 263.790943 
L 304.867416 263.648288 
L 307.147293 262.863685 
L 308.287232 262.221738 
L 309.427171 261.936428 
L 310.567109 261.793773 
L 312.846987 261.080498 
L 315.126864 259.867931 
L 316.266803 259.154656 
L 317.406742 259.012001 
L 318.54668 258.655364 
L 319.686619 258.512709 
L 320.826558 258.227399 
L 321.966496 258.084744 
L 323.106435 257.585451 
L 325.386313 257.228814 
L 326.526251 256.658194 
L 327.66619 256.230229 
L 328.806129 255.944919 
L 329.946067 255.802264 
L 331.086006 255.374299 
L 335.645761 254.51837 
L 337.925638 253.591112 
L 339.065577 253.37713 
L 340.205516 252.949165 
L 341.345455 252.80651 
L 342.485393 252.307218 
L 343.625332 252.021908 
L 345.905209 251.879253 
L 348.185087 251.165978 
L 349.325026 251.023323 
L 350.464964 251.023323 
L 351.604903 250.524031 
L 353.88478 250.167393 
L 355.024719 249.739428 
L 357.304597 249.668101 
L 358.444535 249.525446 
L 359.584474 249.525446 
L 361.864351 249.168808 
L 364.144229 248.098896 
L 366.424106 247.100311 
L 367.564045 246.815001 
L 368.703984 246.101727 
L 369.843922 245.745089 
L 372.1238 244.746504 
L 373.263739 244.532522 
L 374.403677 244.03323 
L 375.543616 243.676592 
L 376.683555 242.963317 
L 377.823493 242.392697 
L 378.963432 241.251458 
L 380.103371 239.468271 
L 381.243309 238.041721 
L 382.383248 237.685083 
L 383.523187 237.685083 
L 384.663126 236.971809 
L 385.803064 236.115879 
L 386.943003 235.830569 
L 388.082942 235.259949 
L 389.22288 235.045967 
L 390.362819 234.047382 
L 391.502758 233.762072 
L 394.922574 232.264195 
L 396.062513 230.9803 
L 397.202451 229.339768 
L 398.34239 228.697821 
L 399.482329 226.914633 
L 400.622268 225.844721 
L 401.762206 225.345429 
L 402.902145 225.060119 
L 404.042084 224.346844 
L 406.321961 223.276932 
L 407.4619 222.492329 
L 409.741777 220.78047 
L 410.881716 220.138523 
L 412.021655 218.640645 
L 413.161593 216.144183 
L 414.301532 214.574979 
L 415.441471 213.719049 
L 416.58141 213.219757 
L 424.560981 206.871611 
L 425.700919 205.302406 
L 426.840858 204.303821 
L 429.120735 202.805944 
L 431.400613 201.308067 
L 432.540552 200.523464 
L 433.68049 199.596207 
L 434.820429 199.310897 
L 435.960368 198.811605 
L 439.380184 196.95709 
L 441.660061 195.887178 
L 443.939939 193.961336 
L 445.079877 192.606114 
L 446.219816 191.821511 
L 447.359755 191.179564 
L 448.499694 190.894254 
L 449.639632 190.323634 
L 450.779571 189.539032 
L 453.059448 188.397792 
L 454.199387 188.18381 
L 455.339326 187.470535 
L 457.619203 186.329295 
L 458.759142 185.259383 
L 459.899081 184.474781 
L 461.039019 184.118143 
L 462.178958 183.404868 
L 463.318897 182.905576 
L 464.458836 182.192301 
L 465.598774 181.764336 
L 466.738713 181.051061 
L 467.878652 180.123804 
L 470.158529 179.339202 
L 471.298468 178.839909 
L 472.438407 178.625927 
L 473.578345 177.912652 
L 474.718284 177.69867 
L 476.998161 176.914067 
L 478.1381 176.55743 
L 480.417978 175.630173 
L 481.557916 175.202208 
L 482.697855 174.916898 
L 483.837794 174.488933 
L 486.117671 174.132295 
L 488.397549 172.277781 
L 489.537487 171.849816 
L 491.817365 170.637249 
L 494.097242 169.424682 
L 496.37712 168.782734 
L 497.517058 167.926804 
L 498.656997 167.641494 
L 500.936874 166.214945 
L 502.076813 165.644325 
L 505.496629 164.93105 
L 507.776507 164.289103 
L 511.196323 162.434588 
L 512.336261 162.291933 
L 513.4762 161.863968 
L 514.616139 161.721313 
L 515.756078 161.293348 
L 516.896016 160.580074 
L 518.035955 159.724144 
L 519.175894 159.010869 
L 520.315832 158.796886 
L 521.455771 158.297594 
L 522.59571 158.154939 
L 523.735649 157.726974 
L 524.875587 156.942372 
L 526.015526 156.585735 
L 527.155465 156.086442 
L 531.71522 154.873875 
L 532.855158 154.802547 
L 533.995097 154.44591 
L 536.274974 153.447325 
L 537.414913 153.090688 
L 538.554852 152.876705 
L 539.694791 152.377413 
L 540.834729 152.020776 
L 541.974668 151.521483 
L 544.254545 150.879536 
L 545.394484 150.808208 
L 547.674362 150.308916 
L 548.8143 149.809624 
L 549.954239 149.595641 
L 552.234116 148.668384 
L 555.653933 147.099179 
L 557.93381 145.672629 
L 559.073749 145.38732 
L 560.213687 144.745372 
L 561.353626 144.317407 
L 562.493565 143.67546 
L 564.773442 143.10484 
L 565.913381 142.462893 
L 567.05332 141.9636 
L 568.193258 141.606963 
L 570.473136 141.250326 
L 571.613075 140.465723 
L 572.753013 139.895103 
L 573.892952 139.681121 
L 575.032891 139.253156 
L 576.172829 138.682536 
L 577.312768 138.468554 
L 578.452707 137.897934 
L 583.012462 137.255986 
L 585.292339 136.257402 
L 586.432278 135.401472 
L 587.572217 133.47563 
L 588.712155 133.19032 
L 589.852094 133.047665 
L 590.992033 132.762355 
L 593.27191 131.549788 
L 594.411849 131.121823 
L 595.551788 130.551203 
L 596.691726 130.265893 
L 598.971604 129.195981 
L 601.251481 128.126068 
L 603.531359 127.198811 
L 604.671297 126.485536 
L 605.811236 126.057571 
L 609.231052 125.272969 
L 611.51093 124.203057 
L 612.650868 123.703765 
L 613.790807 123.489782 
L 617.210623 122.205887 
L 619.490501 120.850665 
L 620.630439 120.13739 
L 621.770378 119.56677 
L 622.910317 119.352788 
L 624.050255 118.924823 
L 625.190194 118.853496 
L 629.749949 117.426946 
L 630.889888 117.355618 
L 632.029826 116.571016 
L 633.169765 116.285706 
L 634.309704 115.786414 
L 637.72952 114.787829 
L 638.869459 114.145882 
L 640.009397 113.789244 
L 641.149336 113.075969 
L 642.289275 112.576677 
L 643.429213 111.93473 
L 649.128907 109.794905 
L 650.268846 109.152958 
L 651.408784 108.368356 
L 652.548723 107.155788 
L 653.688662 106.442513 
L 654.828601 106.228531 
L 657.108478 104.516671 
L 658.248417 104.160034 
L 659.388355 102.519502 
L 660.528294 102.091537 
L 661.668233 101.306935 
L 662.808172 101.092952 
L 663.94811 100.379677 
L 665.088049 99.880385 
L 666.227988 99.666402 
L 667.367926 99.238438 
L 668.507865 98.31118 
L 669.647804 97.954543 
L 671.927681 96.456666 
L 673.06762 95.743391 
L 674.207559 95.244098 
L 676.487436 94.031531 
L 677.627375 93.532239 
L 678.767314 93.389584 
L 679.907252 92.961619 
L 681.047191 92.390999 
L 682.18713 91.677724 
L 683.327068 89.965865 
L 684.467007 88.895952 
L 685.606946 88.254005 
L 686.746885 87.968695 
L 689.026762 86.6848 
L 690.166701 86.470818 
L 691.306639 85.900198 
L 694.726456 84.544976 
L 695.866394 83.974356 
L 698.146272 82.405151 
L 700.426149 80.122672 
L 701.566088 79.266742 
L 703.845965 77.91152 
L 704.985904 76.841608 
L 708.40572 74.273818 
L 709.545659 73.703198 
L 710.685598 72.490631 
L 711.825536 71.706029 
L 714.105414 70.921427 
L 715.245352 69.851514 
L 717.52523 68.781602 
L 718.665169 68.496292 
L 719.805107 67.71169 
L 720.945046 67.355052 
L 723.224923 66.356468 
L 725.504801 64.715935 
L 726.64474 64.145316 
L 728.924617 63.503368 
L 730.064556 62.861421 
L 734.624311 61.363544 
L 736.904188 60.436286 
L 738.044127 59.865667 
L 739.184065 58.938409 
L 743.74382 57.012567 
L 744.883759 56.584602 
L 746.023698 55.8 
L 747.163636 55.8 
L 747.163636 55.8 
" clip-path="url(#p6aa97e6b59)" style="fill: none; stroke: #1f77b4; stroke-width: 1.5; stroke-linecap: square"/>
   </g>
   <g id="line2d_42">
    <path d="M 139.576302 307.8 
L 141.85618 307.8 
L 144.136057 307.51469 
L 150.975689 307.443363 
L 154.395506 307.300708 
L 157.815322 307.22938 
L 160.095199 307.158053 
L 163.515015 307.158053 
L 164.654954 306.872743 
L 168.07477 306.801415 
L 173.774464 306.159468 
L 182.893973 305.660175 
L 184.033912 305.660175 
L 185.173851 305.446193 
L 188.593667 305.374866 
L 190.873544 305.089556 
L 195.433299 305.089556 
L 196.573238 304.946901 
L 202.272932 304.875573 
L 205.692748 304.732918 
L 215.952196 304.661591 
L 218.232074 304.590263 
L 222.791828 304.518936 
L 226.211645 304.376281 
L 230.771399 304.376281 
L 231.911338 304.233626 
L 235.331154 304.162298 
L 239.890909 303.948316 
L 247.87048 303.876988 
L 250.150358 303.805661 
L 254.710112 303.734333 
L 258.129928 303.306369 
L 263.829622 303.235041 
L 269.529316 302.949731 
L 275.229009 302.878404 
L 278.648825 302.735749 
L 280.928703 302.664421 
L 283.20858 302.450439 
L 287.768335 302.236456 
L 291.188151 302.165129 
L 293.468029 302.093801 
L 295.747906 302.093801 
L 296.887845 301.951146 
L 300.307661 301.951146 
L 302.587538 301.737164 
L 306.007354 301.594509 
L 311.707048 301.523181 
L 316.266803 301.023889 
L 317.406742 300.952562 
L 318.54668 300.738579 
L 323.106435 300.667252 
L 326.526251 300.381942 
L 328.806129 300.167959 
L 334.505822 299.882649 
L 337.925638 299.811322 
L 341.345455 299.668667 
L 342.485393 299.668667 
L 344.765271 299.454684 
L 347.045148 299.383357 
L 348.185087 299.383357 
L 349.325026 299.240702 
L 351.604903 299.169374 
L 357.304597 298.884065 
L 359.584474 298.812737 
L 363.00429 298.670082 
L 366.424106 298.598755 
L 368.703984 298.527427 
L 374.403677 298.4561 
L 378.963432 297.956807 
L 380.103371 297.956807 
L 382.383248 297.742825 
L 384.663126 297.671497 
L 390.362819 297.243532 
L 391.502758 296.958222 
L 393.782635 296.815568 
L 394.922574 296.530258 
L 398.34239 296.244948 
L 400.622268 295.745655 
L 402.902145 295.674328 
L 405.182022 295.674328 
L 406.321961 295.531673 
L 407.4619 295.531673 
L 409.741777 295.175035 
L 414.301532 294.390433 
L 415.441471 294.390433 
L 416.58141 294.247778 
L 420.001226 294.176451 
L 434.820429 293.249193 
L 435.960368 293.035211 
L 439.380184 292.821228 
L 441.660061 292.464591 
L 443.939939 292.250609 
L 446.219816 292.179281 
L 448.499694 292.179281 
L 449.639632 291.893971 
L 450.779571 291.751316 
L 455.339326 291.679989 
L 457.619203 291.466006 
L 458.759142 291.466006 
L 462.178958 290.966714 
L 463.318897 290.681404 
L 464.458836 290.538749 
L 466.738713 290.467421 
L 472.438407 290.182112 
L 475.858223 290.110784 
L 490.677426 289.254854 
L 492.957303 289.254854 
L 495.237181 289.040872 
L 497.517058 289.040872 
L 500.936874 288.684234 
L 505.496629 288.470252 
L 507.776507 288.398924 
L 508.916445 288.256269 
L 513.4762 288.184942 
L 521.455771 287.756977 
L 527.155465 287.68565 
L 529.435342 287.614322 
L 530.575281 287.614322 
L 531.71522 287.40034 
L 533.995097 287.329012 
L 540.834729 287.257685 
L 544.254545 287.11503 
L 548.8143 287.043702 
L 549.954239 286.82972 
L 556.793871 286.758392 
L 559.073749 286.687065 
L 561.353626 286.615737 
L 563.633504 286.54441 
L 565.913381 286.473082 
L 575.032891 285.97379 
L 580.732584 285.902462 
L 584.1524 285.617153 
L 586.432278 285.40317 
L 588.712155 285.331843 
L 590.992033 285.260515 
L 592.131971 285.11786 
L 595.551788 285.046533 
L 596.691726 284.761223 
L 601.251481 284.54724 
L 611.51093 284.475913 
L 617.210623 284.047948 
L 620.630439 283.691311 
L 626.330133 283.619983 
L 629.749949 283.263346 
L 636.589581 282.906708 
L 638.869459 282.835381 
L 643.429213 282.621398 
L 647.988968 282.550071 
L 651.408784 282.407416 
L 655.968539 282.336088 
L 659.388355 281.979451 
L 661.668233 281.908123 
L 666.227988 281.836796 
L 669.647804 281.551486 
L 670.787743 281.408831 
L 671.927681 281.408831 
L 673.06762 281.194849 
L 675.347497 281.123521 
L 679.907252 281.052194 
L 682.18713 280.695556 
L 692.446578 280.624229 
L 694.726456 280.410246 
L 695.866394 280.267591 
L 698.146272 280.196264 
L 700.426149 280.124936 
L 701.566088 279.839626 
L 703.845965 279.768299 
L 704.985904 279.554316 
L 707.265781 279.554316 
L 710.685598 279.197679 
L 735.764249 277.699802 
L 747.163636 277.628474 
L 747.163636 277.628474 
" clip-path="url(#p6aa97e6b59)" style="fill: none; stroke: #ff7f0e; stroke-width: 1.5; stroke-linecap: square"/>
   </g>
   <g id="patch_3">
    <path d="M 108 320.4 
L 108 43.2 
" style="fill: none; stroke: #a9a9a9; stroke-width: 0.8; stroke-linejoin: miter; stroke-linecap: square"/>
   </g>
   <g id="patch_4">
    <path d="M 777.6 320.4 
L 777.6 43.2 
" style="fill: none"/>
   </g>
   <g id="patch_5">
    <path d="M 108 320.4 
L 777.6 320.4 
" style="fill: none; stroke: #a9a9a9; stroke-width: 0.8; stroke-linejoin: miter; stroke-linecap: square"/>
   </g>
   <g id="patch_6">
    <path d="M 108 43.2 
L 777.6 43.2 
" style="fill: none"/>
   </g>
   <g id="text_21">
    <!-- get_subscribe history -->
    <g style="fill: #a9a9a9" transform="translate(378.6075 37.2) scale(0.12 -0.12)">
     <defs>
      <path id="DejaVuSans-67" d="M 2906 1791 
Q 2906 2416 2648 2759 
Q 2391 3103 1925 3103 
Q 1463 3103 1205 2759 
Q 947 2416 947 1791 
Q 947 1169 1205 825 
Q 1463 481 1925 481 
Q 2391 481 2648 825 
Q 2906 1169 2906 1791 
z
M 3481 434 
Q 3481 -459 3084 -895 
Q 2688 -1331 1869 -1331 
Q 1566 -1331 1297 -1286 
Q 1028 -1241 775 -1147 
L 775 -588 
Q 1028 -725 1275 -790 
Q 1522 -856 1778 -856 
Q 2344 -856 2625 -561 
Q 2906 -266 2906 331 
L 2906 616 
Q 2728 306 2450 153 
Q 2172 0 1784 0 
Q 1141 0 747 490 
Q 353 981 353 1791 
Q 353 2603 747 3093 
Q 1141 3584 1784 3584 
Q 2172 3584 2450 3431 
Q 2728 3278 2906 2969 
L 2906 3500 
L 3481 3500 
L 3481 434 
z
" transform="scale(0.015625)"/>
      <path id="DejaVuSans-65" d="M 3597 1894 
L 3597 1613 
L 953 1613 
Q 991 1019 1311 708 
Q 1631 397 2203 397 
Q 2534 397 2845 478 
Q 3156 559 3463 722 
L 3463 178 
Q 3153 47 2828 -22 
Q 2503 -91 2169 -91 
Q 1331 -91 842 396 
Q 353 884 353 1716 
Q 353 2575 817 3079 
Q 1281 3584 2069 3584 
Q 2775 3584 3186 3129 
Q 3597 2675 3597 1894 
z
M 3022 2063 
Q 3016 2534 2758 2815 
Q 2500 3097 2075 3097 
Q 1594 3097 1305 2825 
Q 1016 2553 972 2059 
L 3022 2063 
z
" transform="scale(0.015625)"/>
      <path id="DejaVuSans-74" d="M 1172 4494 
L 1172 3500 
L 2356 3500 
L 2356 3053 
L 1172 3053 
L 1172 1153 
Q 1172 725 1289 603 
Q 1406 481 1766 481 
L 2356 481 
L 2356 0 
L 1766 0 
Q 1100 0 847 248 
Q 594 497 594 1153 
L 594 3053 
L 172 3053 
L 172 3500 
L 594 3500 
L 594 4494 
L 1172 4494 
z
" transform="scale(0.015625)"/>
      <path id="DejaVuSans-5f" d="M 3263 -1063 
L 3263 -1509 
L -63 -1509 
L -63 -1063 
L 3263 -1063 
z
" transform="scale(0.015625)"/>
      <path id="DejaVuSans-73" d="M 2834 3397 
L 2834 2853 
Q 2591 2978 2328 3040 
Q 2066 3103 1784 3103 
Q 1356 3103 1142 2972 
Q 928 2841 928 2578 
Q 928 2378 1081 2264 
Q 1234 2150 1697 2047 
L 1894 2003 
Q 2506 1872 2764 1633 
Q 3022 1394 3022 966 
Q 3022 478 2636 193 
Q 2250 -91 1575 -91 
Q 1294 -91 989 -36 
Q 684 19 347 128 
L 347 722 
Q 666 556 975 473 
Q 1284 391 1588 391 
Q 1994 391 2212 530 
Q 2431 669 2431 922 
Q 2431 1156 2273 1281 
Q 2116 1406 1581 1522 
L 1381 1569 
Q 847 1681 609 1914 
Q 372 2147 372 2553 
Q 372 3047 722 3315 
Q 1072 3584 1716 3584 
Q 2034 3584 2315 3537 
Q 2597 3491 2834 3397 
z
" transform="scale(0.015625)"/>
      <path id="DejaVuSans-75" d="M 544 1381 
L 544 3500 
L 1119 3500 
L 1119 1403 
Q 1119 906 1312 657 
Q 1506 409 1894 409 
Q 2359 409 2629 706 
Q 2900 1003 2900 1516 
L 2900 3500 
L 3475 3500 
L 3475 0 
L 2900 0 
L 2900 538 
Q 2691 219 2414 64 
Q 2138 -91 1772 -91 
Q 1169 -91 856 284 
Q 544 659 544 1381 
z
M 1991 3584 
L 1991 3584 
z
" transform="scale(0.015625)"/>
      <path id="DejaVuSans-62" d="M 3116 1747 
Q 3116 2381 2855 2742 
Q 2594 3103 2138 3103 
Q 1681 3103 1420 2742 
Q 1159 2381 1159 1747 
Q 1159 1113 1420 752 
Q 1681 391 2138 391 
Q 2594 391 2855 752 
Q 3116 1113 3116 1747 
z
M 1159 2969 
Q 1341 3281 1617 3432 
Q 1894 3584 2278 3584 
Q 2916 3584 3314 3078 
Q 3713 2572 3713 1747 
Q 3713 922 3314 415 
Q 2916 -91 2278 -91 
Q 1894 -91 1617 61 
Q 1341 213 1159 525 
L 1159 0 
L 581 0 
L 581 4863 
L 1159 4863 
L 1159 2969 
z
" transform="scale(0.015625)"/>
      <path id="DejaVuSans-63" d="M 3122 3366 
L 3122 2828 
Q 2878 2963 2633 3030 
Q 2388 3097 2138 3097 
Q 1578 3097 1268 2742 
Q 959 2388 959 1747 
Q 959 1106 1268 751 
Q 1578 397 2138 397 
Q 2388 397 2633 464 
Q 2878 531 3122 666 
L 3122 134 
Q 2881 22 2623 -34 
Q 2366 -91 2075 -91 
Q 1284 -91 818 406 
Q 353 903 353 1747 
Q 353 2603 823 3093 
Q 1294 3584 2113 3584 
Q 2378 3584 2631 3529 
Q 2884 3475 3122 3366 
z
" transform="scale(0.015625)"/>
      <path id="DejaVuSans-72" d="M 2631 2963 
Q 2534 3019 2420 3045 
Q 2306 3072 2169 3072 
Q 1681 3072 1420 2755 
Q 1159 2438 1159 1844 
L 1159 0 
L 581 0 
L 581 3500 
L 1159 3500 
L 1159 2956 
Q 1341 3275 1631 3429 
Q 1922 3584 2338 3584 
Q 2397 3584 2469 3576 
Q 2541 3569 2628 3553 
L 2631 2963 
z
" transform="scale(0.015625)"/>
      <path id="DejaVuSans-69" d="M 603 3500 
L 1178 3500 
L 1178 0 
L 603 0 
L 603 3500 
z
M 603 4863 
L 1178 4863 
L 1178 4134 
L 603 4134 
L 603 4863 
z
" transform="scale(0.015625)"/>
      <path id="DejaVuSans-20" transform="scale(0.015625)"/>
      <path id="DejaVuSans-68" d="M 3513 2113 
L 3513 0 
L 2938 0 
L 2938 2094 
Q 2938 2591 2744 2837 
Q 2550 3084 2163 3084 
Q 1697 3084 1428 2787 
Q 1159 2491 1159 1978 
L 1159 0 
L 581 0 
L 581 4863 
L 1159 4863 
L 1159 2956 
Q 1366 3272 1645 3428 
Q 1925 3584 2291 3584 
Q 2894 3584 3203 3211 
Q 3513 2838 3513 2113 
z
" transform="scale(0.015625)"/>
      <path id="DejaVuSans-6f" d="M 1959 3097 
Q 1497 3097 1228 2736 
Q 959 2375 959 1747 
Q 959 1119 1226 758 
Q 1494 397 1959 397 
Q 2419 397 2687 759 
Q 2956 1122 2956 1747 
Q 2956 2369 2687 2733 
Q 2419 3097 1959 3097 
z
M 1959 3584 
Q 2709 3584 3137 3096 
Q 3566 2609 3566 1747 
Q 3566 888 3137 398 
Q 2709 -91 1959 -91 
Q 1206 -91 779 398 
Q 353 888 353 1747 
Q 353 2609 779 3096 
Q 1206 3584 1959 3584 
z
" transform="scale(0.015625)"/>
      <path id="DejaVuSans-79" d="M 2059 -325 
Q 1816 -950 1584 -1140 
Q 1353 -1331 966 -1331 
L 506 -1331 
L 506 -850 
L 844 -850 
Q 1081 -850 1212 -737 
Q 1344 -625 1503 -206 
L 1606 56 
L 191 3500 
L 800 3500 
L 1894 763 
L 2988 3500 
L 3597 3500 
L 2059 -325 
z
" transform="scale(0.015625)"/>
     </defs>
     <use xlink:href="#DejaVuSans-67"/>
     <use xlink:href="#DejaVuSans-65" x="63.476562"/>
     <use xlink:href="#DejaVuSans-74" x="125"/>
     <use xlink:href="#DejaVuSans-5f" x="164.208984"/>
     <use xlink:href="#DejaVuSans-73" x="214.208984"/>
     <use xlink:href="#DejaVuSans-75" x="266.308594"/>
     <use xlink:href="#DejaVuSans-62" x="329.6875"/>
     <use xlink:href="#DejaVuSans-73" x="393.164062"/>
     <use xlink:href="#DejaVuSans-63" x="445.263672"/>
     <use xlink:href="#DejaVuSans-72" x="500.244141"/>
     <use xlink:href="#DejaVuSans-69" x="541.357422"/>
     <use xlink:href="#DejaVuSans-62" x="569.140625"/>
     <use xlink:href="#DejaVuSans-65" x="632.617188"/>
     <use xlink:href="#DejaVuSans-20" x="694.140625"/>
     <use xlink:href="#DejaVuSans-68" x="725.927734"/>
     <use xlink:href="#DejaVuSans-69" x="789.306641"/>
     <use xlink:href="#DejaVuSans-73" x="817.089844"/>
     <use xlink:href="#DejaVuSans-74" x="869.189453"/>
     <use xlink:href="#DejaVuSans-6f" x="908.398438"/>
     <use xlink:href="#DejaVuSans-72" x="969.580078"/>
     <use xlink:href="#DejaVuSans-79" x="1010.693359"/>
    </g>
   </g>
   <g id="legend_1">
    <g id="line2d_43">
     <path d="M 815.08 328.498438 
L 825.08 328.498438 
L 835.08 328.498438 
" style="fill: none; stroke: #1f77b4; stroke-width: 1.5; stroke-linecap: square"/>
    </g>
    <g id="text_22">
     <!-- star -->
     <g style="fill: #a9a9a9" transform="translate(843.08 331.998438) scale(0.1 -0.1)">
      <defs>
       <path id="DejaVuSans-61" d="M 2194 1759 
Q 1497 1759 1228 1600 
Q 959 1441 959 1056 
Q 959 750 1161 570 
Q 1363 391 1709 391 
Q 2188 391 2477 730 
Q 2766 1069 2766 1631 
L 2766 1759 
L 2194 1759 
z
M 3341 1997 
L 3341 0 
L 2766 0 
L 2766 531 
Q 2569 213 2275 61 
Q 1981 -91 1556 -91 
Q 1019 -91 701 211 
Q 384 513 384 1019 
Q 384 1609 779 1909 
Q 1175 2209 1959 2209 
L 2766 2209 
L 2766 2266 
Q 2766 2663 2505 2880 
Q 2244 3097 1772 3097 
Q 1472 3097 1187 3025 
Q 903 2953 641 2809 
L 641 3341 
Q 956 3463 1253 3523 
Q 1550 3584 1831 3584 
Q 2591 3584 2966 3190 
Q 3341 2797 3341 1997 
z
" transform="scale(0.015625)"/>
      </defs>
      <use xlink:href="#DejaVuSans-73"/>
      <use xlink:href="#DejaVuSans-74" x="52.099609"/>
      <use xlink:href="#DejaVuSans-61" x="91.308594"/>
      <use xlink:href="#DejaVuSans-72" x="152.587891"/>
     </g>
    </g>
    <g id="line2d_44">
     <path d="M 815.08 343.176562 
L 825.08 343.176562 
L 835.08 343.176562 
" style="fill: none; stroke: #ff7f0e; stroke-width: 1.5; stroke-linecap: square"/>
    </g>
    <g id="text_23">
     <!-- fork -->
     <g style="fill: #a9a9a9" transform="translate(843.08 346.676562) scale(0.1 -0.1)">
      <defs>
       <path id="DejaVuSans-66" d="M 2375 4863 
L 2375 4384 
L 1825 4384 
Q 1516 4384 1395 4259 
Q 1275 4134 1275 3809 
L 1275 3500 
L 2222 3500 
L 2222 3053 
L 1275 3053 
L 1275 0 
L 697 0 
L 697 3053 
L 147 3053 
L 147 3500 
L 697 3500 
L 697 3744 
Q 697 4328 969 4595 
Q 1241 4863 1831 4863 
L 2375 4863 
z
" transform="scale(0.015625)"/>
       <path id="DejaVuSans-6b" d="M 581 4863 
L 1159 4863 
L 1159 1991 
L 2875 3500 
L 3609 3500 
L 1753 1863 
L 3688 0 
L 2938 0 
L 1159 1709 
L 1159 0 
L 581 0 
L 581 4863 
z
" transform="scale(0.015625)"/>
      </defs>
      <use xlink:href="#DejaVuSans-66"/>
      <use xlink:href="#DejaVuSans-6f" x="35.205078"/>
      <use xlink:href="#DejaVuSans-72" x="96.386719"/>
      <use xlink:href="#DejaVuSans-6b" x="137.5"/>
     </g>
    </g>
   </g>
  </g>
 </g>
 <defs>
  <clipPath id="p6aa97e6b59">
   <rect x="108" y="43.2" width="669.6" height="277.2"/>
  </clipPath>
 </defs>
</svg>
