<?xml version="1.0" encoding="utf-8" standalone="no"?>
<!DOCTYPE svg PUBLIC "-//W3C//DTD SVG 1.1//EN"
  "http://www.w3.org/Graphics/SVG/1.1/DTD/svg11.dtd">
<svg xmlns:xlink="http://www.w3.org/1999/xlink" width="864pt" height="360pt" viewBox="0 0 864 360" xmlns="http://www.w3.org/2000/svg" version="1.1">
 <metadata>
  <rdf:RDF xmlns:dc="http://purl.org/dc/elements/1.1/" xmlns:cc="http://creativecommons.org/ns#" xmlns:rdf="http://www.w3.org/1999/02/22-rdf-syntax-ns#">
   <cc:Work>
    <dc:type rdf:resource="http://purl.org/dc/dcmitype/StillImage"/>
    <dc:date>2022-12-20T08:57:55.829775</dc:date>
    <dc:format>image/svg+xml</dc:format>
    <dc:creator>
     <cc:Agent>
      <dc:title>Matplotlib v3.6.2, https://matplotlib.org/</dc:title>
     </cc:Agent>
    </dc:creator>
   </cc:Work>
  </rdf:RDF>
 </metadata>
 <defs>
  <style type="text/css">*{stroke-linejoin: round; stroke-linecap: butt}</style>
 </defs>
 <g id="figure_1">
  <g id="patch_1">
   <path d="M 0 360 
L 864 360 
L 864 0 
L 0 0 
L 0 360 
z
" style="fill: none; opacity: 0"/>
  </g>
  <g id="axes_1">
   <g id="patch_2">
    <path d="M 108 320.4 
L 777.6 320.4 
L 777.6 43.2 
L 108 43.2 
L 108 320.4 
z
" style="fill: none; opacity: 0"/>
   </g>
   <g id="matplotlib.axis_1">
    <g id="xtick_1">
     <g id="line2d_1">
      <path d="M 111.197595 320.4 
L 111.197595 43.2 
" clip-path="url(#pf24977b4e8)" style="fill: none; stroke-dasharray: 5.12,1.28,0.8,1.28; stroke-dashoffset: 0; stroke: #b0b0b0; stroke-width: 0.8"/>
     </g>
     <g id="line2d_2">
      <defs>
       <path id="m5e6752a489" d="M 0 0 
L 0 3.5 
" style="stroke: #a9a9a9; stroke-width: 0.8"/>
      </defs>
      <g>
       <use xlink:href="#m5e6752a489" x="111.197595" y="320.4" style="fill: #a9a9a9; stroke: #a9a9a9; stroke-width: 0.8"/>
      </g>
     </g>
     <g id="text_1">
      <!-- 2021-07 -->
      <g style="fill: #a9a9a9" transform="translate(90.306188 334.998438) scale(0.1 -0.1)">
       <defs>
        <path id="DejaVuSans-32" d="M 1228 531 
L 3431 531 
L 3431 0 
L 469 0 
L 469 531 
Q 828 903 1448 1529 
Q 2069 2156 2228 2338 
Q 2531 2678 2651 2914 
Q 2772 3150 2772 3378 
Q 2772 3750 2511 3984 
Q 2250 4219 1831 4219 
Q 1534 4219 1204 4116 
Q 875 4013 500 3803 
L 500 4441 
Q 881 4594 1212 4672 
Q 1544 4750 1819 4750 
Q 2544 4750 2975 4387 
Q 3406 4025 3406 3419 
Q 3406 3131 3298 2873 
Q 3191 2616 2906 2266 
Q 2828 2175 2409 1742 
Q 1991 1309 1228 531 
z
" transform="scale(0.015625)"/>
        <path id="DejaVuSans-30" d="M 2034 4250 
Q 1547 4250 1301 3770 
Q 1056 3291 1056 2328 
Q 1056 1369 1301 889 
Q 1547 409 2034 409 
Q 2525 409 2770 889 
Q 3016 1369 3016 2328 
Q 3016 3291 2770 3770 
Q 2525 4250 2034 4250 
z
M 2034 4750 
Q 2819 4750 3233 4129 
Q 3647 3509 3647 2328 
Q 3647 1150 3233 529 
Q 2819 -91 2034 -91 
Q 1250 -91 836 529 
Q 422 1150 422 2328 
Q 422 3509 836 4129 
Q 1250 4750 2034 4750 
z
" transform="scale(0.015625)"/>
        <path id="DejaVuSans-31" d="M 794 531 
L 1825 531 
L 1825 4091 
L 703 3866 
L 703 4441 
L 1819 4666 
L 2450 4666 
L 2450 531 
L 3481 531 
L 3481 0 
L 794 0 
L 794 531 
z
" transform="scale(0.015625)"/>
        <path id="DejaVuSans-2d" d="M 313 2009 
L 1997 2009 
L 1997 1497 
L 313 1497 
L 313 2009 
z
" transform="scale(0.015625)"/>
        <path id="DejaVuSans-37" d="M 525 4666 
L 3525 4666 
L 3525 4397 
L 1831 0 
L 1172 0 
L 2766 4134 
L 525 4134 
L 525 4666 
z
" transform="scale(0.015625)"/>
       </defs>
       <use xlink:href="#DejaVuSans-32"/>
       <use xlink:href="#DejaVuSans-30" x="63.623047"/>
       <use xlink:href="#DejaVuSans-32" x="127.246094"/>
       <use xlink:href="#DejaVuSans-31" x="190.869141"/>
       <use xlink:href="#DejaVuSans-2d" x="254.492188"/>
       <use xlink:href="#DejaVuSans-30" x="290.576172"/>
       <use xlink:href="#DejaVuSans-37" x="354.199219"/>
      </g>
     </g>
    </g>
    <g id="xtick_2">
     <g id="line2d_3">
      <path d="M 184.623842 320.4 
L 184.623842 43.2 
" clip-path="url(#pf24977b4e8)" style="fill: none; stroke-dasharray: 5.12,1.28,0.8,1.28; stroke-dashoffset: 0; stroke: #b0b0b0; stroke-width: 0.8"/>
     </g>
     <g id="line2d_4">
      <g>
       <use xlink:href="#m5e6752a489" x="184.623842" y="320.4" style="fill: #a9a9a9; stroke: #a9a9a9; stroke-width: 0.8"/>
      </g>
     </g>
     <g id="text_2">
      <!-- 2021-09 -->
      <g style="fill: #a9a9a9" transform="translate(163.732435 334.998438) scale(0.1 -0.1)">
       <defs>
        <path id="DejaVuSans-39" d="M 703 97 
L 703 672 
Q 941 559 1184 500 
Q 1428 441 1663 441 
Q 2288 441 2617 861 
Q 2947 1281 2994 2138 
Q 2813 1869 2534 1725 
Q 2256 1581 1919 1581 
Q 1219 1581 811 2004 
Q 403 2428 403 3163 
Q 403 3881 828 4315 
Q 1253 4750 1959 4750 
Q 2769 4750 3195 4129 
Q 3622 3509 3622 2328 
Q 3622 1225 3098 567 
Q 2575 -91 1691 -91 
Q 1453 -91 1209 -44 
Q 966 3 703 97 
z
M 1959 2075 
Q 2384 2075 2632 2365 
Q 2881 2656 2881 3163 
Q 2881 3666 2632 3958 
Q 2384 4250 1959 4250 
Q 1534 4250 1286 3958 
Q 1038 3666 1038 3163 
Q 1038 2656 1286 2365 
Q 1534 2075 1959 2075 
z
" transform="scale(0.015625)"/>
       </defs>
       <use xlink:href="#DejaVuSans-32"/>
       <use xlink:href="#DejaVuSans-30" x="63.623047"/>
       <use xlink:href="#DejaVuSans-32" x="127.246094"/>
       <use xlink:href="#DejaVuSans-31" x="190.869141"/>
       <use xlink:href="#DejaVuSans-2d" x="254.492188"/>
       <use xlink:href="#DejaVuSans-30" x="290.576172"/>
       <use xlink:href="#DejaVuSans-39" x="354.199219"/>
      </g>
     </g>
    </g>
    <g id="xtick_3">
     <g id="line2d_5">
      <path d="M 256.865794 320.4 
L 256.865794 43.2 
" clip-path="url(#pf24977b4e8)" style="fill: none; stroke-dasharray: 5.12,1.28,0.8,1.28; stroke-dashoffset: 0; stroke: #b0b0b0; stroke-width: 0.8"/>
     </g>
     <g id="line2d_6">
      <g>
       <use xlink:href="#m5e6752a489" x="256.865794" y="320.4" style="fill: #a9a9a9; stroke: #a9a9a9; stroke-width: 0.8"/>
      </g>
     </g>
     <g id="text_3">
      <!-- 2021-11 -->
      <g style="fill: #a9a9a9" transform="translate(235.974388 334.998438) scale(0.1 -0.1)">
       <use xlink:href="#DejaVuSans-32"/>
       <use xlink:href="#DejaVuSans-30" x="63.623047"/>
       <use xlink:href="#DejaVuSans-32" x="127.246094"/>
       <use xlink:href="#DejaVuSans-31" x="190.869141"/>
       <use xlink:href="#DejaVuSans-2d" x="254.492188"/>
       <use xlink:href="#DejaVuSans-31" x="290.576172"/>
       <use xlink:href="#DejaVuSans-31" x="354.199219"/>
      </g>
     </g>
    </g>
    <g id="xtick_4">
     <g id="line2d_7">
      <path d="M 329.107747 320.4 
L 329.107747 43.2 
" clip-path="url(#pf24977b4e8)" style="fill: none; stroke-dasharray: 5.12,1.28,0.8,1.28; stroke-dashoffset: 0; stroke: #b0b0b0; stroke-width: 0.8"/>
     </g>
     <g id="line2d_8">
      <g>
       <use xlink:href="#m5e6752a489" x="329.107747" y="320.4" style="fill: #a9a9a9; stroke: #a9a9a9; stroke-width: 0.8"/>
      </g>
     </g>
     <g id="text_4">
      <!-- 2022-01 -->
      <g style="fill: #a9a9a9" transform="translate(308.21634 334.998438) scale(0.1 -0.1)">
       <use xlink:href="#DejaVuSans-32"/>
       <use xlink:href="#DejaVuSans-30" x="63.623047"/>
       <use xlink:href="#DejaVuSans-32" x="127.246094"/>
       <use xlink:href="#DejaVuSans-32" x="190.869141"/>
       <use xlink:href="#DejaVuSans-2d" x="254.492188"/>
       <use xlink:href="#DejaVuSans-30" x="290.576172"/>
       <use xlink:href="#DejaVuSans-31" x="354.199219"/>
      </g>
     </g>
    </g>
    <g id="xtick_5">
     <g id="line2d_9">
      <path d="M 398.981111 320.4 
L 398.981111 43.2 
" clip-path="url(#pf24977b4e8)" style="fill: none; stroke-dasharray: 5.12,1.28,0.8,1.28; stroke-dashoffset: 0; stroke: #b0b0b0; stroke-width: 0.8"/>
     </g>
     <g id="line2d_10">
      <g>
       <use xlink:href="#m5e6752a489" x="398.981111" y="320.4" style="fill: #a9a9a9; stroke: #a9a9a9; stroke-width: 0.8"/>
      </g>
     </g>
     <g id="text_5">
      <!-- 2022-03 -->
      <g style="fill: #a9a9a9" transform="translate(378.089704 334.998438) scale(0.1 -0.1)">
       <defs>
        <path id="DejaVuSans-33" d="M 2597 2516 
Q 3050 2419 3304 2112 
Q 3559 1806 3559 1356 
Q 3559 666 3084 287 
Q 2609 -91 1734 -91 
Q 1441 -91 1130 -33 
Q 819 25 488 141 
L 488 750 
Q 750 597 1062 519 
Q 1375 441 1716 441 
Q 2309 441 2620 675 
Q 2931 909 2931 1356 
Q 2931 1769 2642 2001 
Q 2353 2234 1838 2234 
L 1294 2234 
L 1294 2753 
L 1863 2753 
Q 2328 2753 2575 2939 
Q 2822 3125 2822 3475 
Q 2822 3834 2567 4026 
Q 2313 4219 1838 4219 
Q 1578 4219 1281 4162 
Q 984 4106 628 3988 
L 628 4550 
Q 988 4650 1302 4700 
Q 1616 4750 1894 4750 
Q 2613 4750 3031 4423 
Q 3450 4097 3450 3541 
Q 3450 3153 3228 2886 
Q 3006 2619 2597 2516 
z
" transform="scale(0.015625)"/>
       </defs>
       <use xlink:href="#DejaVuSans-32"/>
       <use xlink:href="#DejaVuSans-30" x="63.623047"/>
       <use xlink:href="#DejaVuSans-32" x="127.246094"/>
       <use xlink:href="#DejaVuSans-32" x="190.869141"/>
       <use xlink:href="#DejaVuSans-2d" x="254.492188"/>
       <use xlink:href="#DejaVuSans-30" x="290.576172"/>
       <use xlink:href="#DejaVuSans-33" x="354.199219"/>
      </g>
     </g>
    </g>
    <g id="xtick_6">
     <g id="line2d_11">
      <path d="M 471.223063 320.4 
L 471.223063 43.2 
" clip-path="url(#pf24977b4e8)" style="fill: none; stroke-dasharray: 5.12,1.28,0.8,1.28; stroke-dashoffset: 0; stroke: #b0b0b0; stroke-width: 0.8"/>
     </g>
     <g id="line2d_12">
      <g>
       <use xlink:href="#m5e6752a489" x="471.223063" y="320.4" style="fill: #a9a9a9; stroke: #a9a9a9; stroke-width: 0.8"/>
      </g>
     </g>
     <g id="text_6">
      <!-- 2022-05 -->
      <g style="fill: #a9a9a9" transform="translate(450.331657 334.998438) scale(0.1 -0.1)">
       <defs>
        <path id="DejaVuSans-35" d="M 691 4666 
L 3169 4666 
L 3169 4134 
L 1269 4134 
L 1269 2991 
Q 1406 3038 1543 3061 
Q 1681 3084 1819 3084 
Q 2600 3084 3056 2656 
Q 3513 2228 3513 1497 
Q 3513 744 3044 326 
Q 2575 -91 1722 -91 
Q 1428 -91 1123 -41 
Q 819 9 494 109 
L 494 744 
Q 775 591 1075 516 
Q 1375 441 1709 441 
Q 2250 441 2565 725 
Q 2881 1009 2881 1497 
Q 2881 1984 2565 2268 
Q 2250 2553 1709 2553 
Q 1456 2553 1204 2497 
Q 953 2441 691 2322 
L 691 4666 
z
" transform="scale(0.015625)"/>
       </defs>
       <use xlink:href="#DejaVuSans-32"/>
       <use xlink:href="#DejaVuSans-30" x="63.623047"/>
       <use xlink:href="#DejaVuSans-32" x="127.246094"/>
       <use xlink:href="#DejaVuSans-32" x="190.869141"/>
       <use xlink:href="#DejaVuSans-2d" x="254.492188"/>
       <use xlink:href="#DejaVuSans-30" x="290.576172"/>
       <use xlink:href="#DejaVuSans-35" x="354.199219"/>
      </g>
     </g>
    </g>
    <g id="xtick_7">
     <g id="line2d_13">
      <path d="M 543.465016 320.4 
L 543.465016 43.2 
" clip-path="url(#pf24977b4e8)" style="fill: none; stroke-dasharray: 5.12,1.28,0.8,1.28; stroke-dashoffset: 0; stroke: #b0b0b0; stroke-width: 0.8"/>
     </g>
     <g id="line2d_14">
      <g>
       <use xlink:href="#m5e6752a489" x="543.465016" y="320.4" style="fill: #a9a9a9; stroke: #a9a9a9; stroke-width: 0.8"/>
      </g>
     </g>
     <g id="text_7">
      <!-- 2022-07 -->
      <g style="fill: #a9a9a9" transform="translate(522.57361 334.998438) scale(0.1 -0.1)">
       <use xlink:href="#DejaVuSans-32"/>
       <use xlink:href="#DejaVuSans-30" x="63.623047"/>
       <use xlink:href="#DejaVuSans-32" x="127.246094"/>
       <use xlink:href="#DejaVuSans-32" x="190.869141"/>
       <use xlink:href="#DejaVuSans-2d" x="254.492188"/>
       <use xlink:href="#DejaVuSans-30" x="290.576172"/>
       <use xlink:href="#DejaVuSans-37" x="354.199219"/>
      </g>
     </g>
    </g>
    <g id="xtick_8">
     <g id="line2d_15">
      <path d="M 616.891263 320.4 
L 616.891263 43.2 
" clip-path="url(#pf24977b4e8)" style="fill: none; stroke-dasharray: 5.12,1.28,0.8,1.28; stroke-dashoffset: 0; stroke: #b0b0b0; stroke-width: 0.8"/>
     </g>
     <g id="line2d_16">
      <g>
       <use xlink:href="#m5e6752a489" x="616.891263" y="320.4" style="fill: #a9a9a9; stroke: #a9a9a9; stroke-width: 0.8"/>
      </g>
     </g>
     <g id="text_8">
      <!-- 2022-09 -->
      <g style="fill: #a9a9a9" transform="translate(595.999857 334.998438) scale(0.1 -0.1)">
       <use xlink:href="#DejaVuSans-32"/>
       <use xlink:href="#DejaVuSans-30" x="63.623047"/>
       <use xlink:href="#DejaVuSans-32" x="127.246094"/>
       <use xlink:href="#DejaVuSans-32" x="190.869141"/>
       <use xlink:href="#DejaVuSans-2d" x="254.492188"/>
       <use xlink:href="#DejaVuSans-30" x="290.576172"/>
       <use xlink:href="#DejaVuSans-39" x="354.199219"/>
      </g>
     </g>
    </g>
    <g id="xtick_9">
     <g id="line2d_17">
      <path d="M 689.133215 320.4 
L 689.133215 43.2 
" clip-path="url(#pf24977b4e8)" style="fill: none; stroke-dasharray: 5.12,1.28,0.8,1.28; stroke-dashoffset: 0; stroke: #b0b0b0; stroke-width: 0.8"/>
     </g>
     <g id="line2d_18">
      <g>
       <use xlink:href="#m5e6752a489" x="689.133215" y="320.4" style="fill: #a9a9a9; stroke: #a9a9a9; stroke-width: 0.8"/>
      </g>
     </g>
     <g id="text_9">
      <!-- 2022-11 -->
      <g style="fill: #a9a9a9" transform="translate(668.241809 334.998438) scale(0.1 -0.1)">
       <use xlink:href="#DejaVuSans-32"/>
       <use xlink:href="#DejaVuSans-30" x="63.623047"/>
       <use xlink:href="#DejaVuSans-32" x="127.246094"/>
       <use xlink:href="#DejaVuSans-32" x="190.869141"/>
       <use xlink:href="#DejaVuSans-2d" x="254.492188"/>
       <use xlink:href="#DejaVuSans-31" x="290.576172"/>
       <use xlink:href="#DejaVuSans-31" x="354.199219"/>
      </g>
     </g>
    </g>
    <g id="xtick_10">
     <g id="line2d_19">
      <path d="M 761.375168 320.4 
L 761.375168 43.2 
" clip-path="url(#pf24977b4e8)" style="fill: none; stroke-dasharray: 5.12,1.28,0.8,1.28; stroke-dashoffset: 0; stroke: #b0b0b0; stroke-width: 0.8"/>
     </g>
     <g id="line2d_20">
      <g>
       <use xlink:href="#m5e6752a489" x="761.375168" y="320.4" style="fill: #a9a9a9; stroke: #a9a9a9; stroke-width: 0.8"/>
      </g>
     </g>
     <g id="text_10">
      <!-- 2023-01 -->
      <g style="fill: #a9a9a9" transform="translate(740.483762 334.998438) scale(0.1 -0.1)">
       <use xlink:href="#DejaVuSans-32"/>
       <use xlink:href="#DejaVuSans-30" x="63.623047"/>
       <use xlink:href="#DejaVuSans-32" x="127.246094"/>
       <use xlink:href="#DejaVuSans-33" x="190.869141"/>
       <use xlink:href="#DejaVuSans-2d" x="254.492188"/>
       <use xlink:href="#DejaVuSans-30" x="290.576172"/>
       <use xlink:href="#DejaVuSans-31" x="354.199219"/>
      </g>
     </g>
    </g>
   </g>
   <g id="matplotlib.axis_2">
    <g id="ytick_1">
     <g id="line2d_21">
      <path d="M 108 307.874161 
L 777.6 307.874161 
" clip-path="url(#pf24977b4e8)" style="fill: none; stroke-dasharray: 5.12,1.28,0.8,1.28; stroke-dashoffset: 0; stroke: #b0b0b0; stroke-width: 0.8"/>
     </g>
     <g id="line2d_22">
      <defs>
       <path id="mdab2fd45ca" d="M 0 0 
L -3.5 0 
" style="stroke: #a9a9a9; stroke-width: 0.8"/>
      </defs>
      <g>
       <use xlink:href="#mdab2fd45ca" x="108" y="307.874161" style="fill: #a9a9a9; stroke: #a9a9a9; stroke-width: 0.8"/>
      </g>
     </g>
     <g id="text_11">
      <!-- 0 -->
      <g style="fill: #a9a9a9" transform="translate(94.6375 311.67338) scale(0.1 -0.1)">
       <use xlink:href="#DejaVuSans-30"/>
      </g>
     </g>
    </g>
    <g id="ytick_2">
     <g id="line2d_23">
      <path d="M 108 278.209653 
L 777.6 278.209653 
" clip-path="url(#pf24977b4e8)" style="fill: none; stroke-dasharray: 5.12,1.28,0.8,1.28; stroke-dashoffset: 0; stroke: #b0b0b0; stroke-width: 0.8"/>
     </g>
     <g id="line2d_24">
      <g>
       <use xlink:href="#mdab2fd45ca" x="108" y="278.209653" style="fill: #a9a9a9; stroke: #a9a9a9; stroke-width: 0.8"/>
      </g>
     </g>
     <g id="text_12">
      <!-- 400 -->
      <g style="fill: #a9a9a9" transform="translate(81.9125 282.008871) scale(0.1 -0.1)">
       <defs>
        <path id="DejaVuSans-34" d="M 2419 4116 
L 825 1625 
L 2419 1625 
L 2419 4116 
z
M 2253 4666 
L 3047 4666 
L 3047 1625 
L 3713 1625 
L 3713 1100 
L 3047 1100 
L 3047 0 
L 2419 0 
L 2419 1100 
L 313 1100 
L 313 1709 
L 2253 4666 
z
" transform="scale(0.015625)"/>
       </defs>
       <use xlink:href="#DejaVuSans-34"/>
       <use xlink:href="#DejaVuSans-30" x="63.623047"/>
       <use xlink:href="#DejaVuSans-30" x="127.246094"/>
      </g>
     </g>
    </g>
    <g id="ytick_3">
     <g id="line2d_25">
      <path d="M 108 248.545144 
L 777.6 248.545144 
" clip-path="url(#pf24977b4e8)" style="fill: none; stroke-dasharray: 5.12,1.28,0.8,1.28; stroke-dashoffset: 0; stroke: #b0b0b0; stroke-width: 0.8"/>
     </g>
     <g id="line2d_26">
      <g>
       <use xlink:href="#mdab2fd45ca" x="108" y="248.545144" style="fill: #a9a9a9; stroke: #a9a9a9; stroke-width: 0.8"/>
      </g>
     </g>
     <g id="text_13">
      <!-- 800 -->
      <g style="fill: #a9a9a9" transform="translate(81.9125 252.344363) scale(0.1 -0.1)">
       <defs>
        <path id="DejaVuSans-38" d="M 2034 2216 
Q 1584 2216 1326 1975 
Q 1069 1734 1069 1313 
Q 1069 891 1326 650 
Q 1584 409 2034 409 
Q 2484 409 2743 651 
Q 3003 894 3003 1313 
Q 3003 1734 2745 1975 
Q 2488 2216 2034 2216 
z
M 1403 2484 
Q 997 2584 770 2862 
Q 544 3141 544 3541 
Q 544 4100 942 4425 
Q 1341 4750 2034 4750 
Q 2731 4750 3128 4425 
Q 3525 4100 3525 3541 
Q 3525 3141 3298 2862 
Q 3072 2584 2669 2484 
Q 3125 2378 3379 2068 
Q 3634 1759 3634 1313 
Q 3634 634 3220 271 
Q 2806 -91 2034 -91 
Q 1263 -91 848 271 
Q 434 634 434 1313 
Q 434 1759 690 2068 
Q 947 2378 1403 2484 
z
M 1172 3481 
Q 1172 3119 1398 2916 
Q 1625 2713 2034 2713 
Q 2441 2713 2670 2916 
Q 2900 3119 2900 3481 
Q 2900 3844 2670 4047 
Q 2441 4250 2034 4250 
Q 1625 4250 1398 4047 
Q 1172 3844 1172 3481 
z
" transform="scale(0.015625)"/>
       </defs>
       <use xlink:href="#DejaVuSans-38"/>
       <use xlink:href="#DejaVuSans-30" x="63.623047"/>
       <use xlink:href="#DejaVuSans-30" x="127.246094"/>
      </g>
     </g>
    </g>
    <g id="ytick_4">
     <g id="line2d_27">
      <path d="M 108 218.880636 
L 777.6 218.880636 
" clip-path="url(#pf24977b4e8)" style="fill: none; stroke-dasharray: 5.12,1.28,0.8,1.28; stroke-dashoffset: 0; stroke: #b0b0b0; stroke-width: 0.8"/>
     </g>
     <g id="line2d_28">
      <g>
       <use xlink:href="#mdab2fd45ca" x="108" y="218.880636" style="fill: #a9a9a9; stroke: #a9a9a9; stroke-width: 0.8"/>
      </g>
     </g>
     <g id="text_14">
      <!-- 1200 -->
      <g style="fill: #a9a9a9" transform="translate(75.55 222.679854) scale(0.1 -0.1)">
       <use xlink:href="#DejaVuSans-31"/>
       <use xlink:href="#DejaVuSans-32" x="63.623047"/>
       <use xlink:href="#DejaVuSans-30" x="127.246094"/>
       <use xlink:href="#DejaVuSans-30" x="190.869141"/>
      </g>
     </g>
    </g>
    <g id="ytick_5">
     <g id="line2d_29">
      <path d="M 108 189.216127 
L 777.6 189.216127 
" clip-path="url(#pf24977b4e8)" style="fill: none; stroke-dasharray: 5.12,1.28,0.8,1.28; stroke-dashoffset: 0; stroke: #b0b0b0; stroke-width: 0.8"/>
     </g>
     <g id="line2d_30">
      <g>
       <use xlink:href="#mdab2fd45ca" x="108" y="189.216127" style="fill: #a9a9a9; stroke: #a9a9a9; stroke-width: 0.8"/>
      </g>
     </g>
     <g id="text_15">
      <!-- 1600 -->
      <g style="fill: #a9a9a9" transform="translate(75.55 193.015346) scale(0.1 -0.1)">
       <defs>
        <path id="DejaVuSans-36" d="M 2113 2584 
Q 1688 2584 1439 2293 
Q 1191 2003 1191 1497 
Q 1191 994 1439 701 
Q 1688 409 2113 409 
Q 2538 409 2786 701 
Q 3034 994 3034 1497 
Q 3034 2003 2786 2293 
Q 2538 2584 2113 2584 
z
M 3366 4563 
L 3366 3988 
Q 3128 4100 2886 4159 
Q 2644 4219 2406 4219 
Q 1781 4219 1451 3797 
Q 1122 3375 1075 2522 
Q 1259 2794 1537 2939 
Q 1816 3084 2150 3084 
Q 2853 3084 3261 2657 
Q 3669 2231 3669 1497 
Q 3669 778 3244 343 
Q 2819 -91 2113 -91 
Q 1303 -91 875 529 
Q 447 1150 447 2328 
Q 447 3434 972 4092 
Q 1497 4750 2381 4750 
Q 2619 4750 2861 4703 
Q 3103 4656 3366 4563 
z
" transform="scale(0.015625)"/>
       </defs>
       <use xlink:href="#DejaVuSans-31"/>
       <use xlink:href="#DejaVuSans-36" x="63.623047"/>
       <use xlink:href="#DejaVuSans-30" x="127.246094"/>
       <use xlink:href="#DejaVuSans-30" x="190.869141"/>
      </g>
     </g>
    </g>
    <g id="ytick_6">
     <g id="line2d_31">
      <path d="M 108 159.551619 
L 777.6 159.551619 
" clip-path="url(#pf24977b4e8)" style="fill: none; stroke-dasharray: 5.12,1.28,0.8,1.28; stroke-dashoffset: 0; stroke: #b0b0b0; stroke-width: 0.8"/>
     </g>
     <g id="line2d_32">
      <g>
       <use xlink:href="#mdab2fd45ca" x="108" y="159.551619" style="fill: #a9a9a9; stroke: #a9a9a9; stroke-width: 0.8"/>
      </g>
     </g>
     <g id="text_16">
      <!-- 2000 -->
      <g style="fill: #a9a9a9" transform="translate(75.55 163.350837) scale(0.1 -0.1)">
       <use xlink:href="#DejaVuSans-32"/>
       <use xlink:href="#DejaVuSans-30" x="63.623047"/>
       <use xlink:href="#DejaVuSans-30" x="127.246094"/>
       <use xlink:href="#DejaVuSans-30" x="190.869141"/>
      </g>
     </g>
    </g>
    <g id="ytick_7">
     <g id="line2d_33">
      <path d="M 108 129.88711 
L 777.6 129.88711 
" clip-path="url(#pf24977b4e8)" style="fill: none; stroke-dasharray: 5.12,1.28,0.8,1.28; stroke-dashoffset: 0; stroke: #b0b0b0; stroke-width: 0.8"/>
     </g>
     <g id="line2d_34">
      <g>
       <use xlink:href="#mdab2fd45ca" x="108" y="129.88711" style="fill: #a9a9a9; stroke: #a9a9a9; stroke-width: 0.8"/>
      </g>
     </g>
     <g id="text_17">
      <!-- 2400 -->
      <g style="fill: #a9a9a9" transform="translate(75.55 133.686329) scale(0.1 -0.1)">
       <use xlink:href="#DejaVuSans-32"/>
       <use xlink:href="#DejaVuSans-34" x="63.623047"/>
       <use xlink:href="#DejaVuSans-30" x="127.246094"/>
       <use xlink:href="#DejaVuSans-30" x="190.869141"/>
      </g>
     </g>
    </g>
    <g id="ytick_8">
     <g id="line2d_35">
      <path d="M 108 100.222602 
L 777.6 100.222602 
" clip-path="url(#pf24977b4e8)" style="fill: none; stroke-dasharray: 5.12,1.28,0.8,1.28; stroke-dashoffset: 0; stroke: #b0b0b0; stroke-width: 0.8"/>
     </g>
     <g id="line2d_36">
      <g>
       <use xlink:href="#mdab2fd45ca" x="108" y="100.222602" style="fill: #a9a9a9; stroke: #a9a9a9; stroke-width: 0.8"/>
      </g>
     </g>
     <g id="text_18">
      <!-- 2800 -->
      <g style="fill: #a9a9a9" transform="translate(75.55 104.02182) scale(0.1 -0.1)">
       <use xlink:href="#DejaVuSans-32"/>
       <use xlink:href="#DejaVuSans-38" x="63.623047"/>
       <use xlink:href="#DejaVuSans-30" x="127.246094"/>
       <use xlink:href="#DejaVuSans-30" x="190.869141"/>
      </g>
     </g>
    </g>
    <g id="ytick_9">
     <g id="line2d_37">
      <path d="M 108 70.558093 
L 777.6 70.558093 
" clip-path="url(#pf24977b4e8)" style="fill: none; stroke-dasharray: 5.12,1.28,0.8,1.28; stroke-dashoffset: 0; stroke: #b0b0b0; stroke-width: 0.8"/>
     </g>
     <g id="line2d_38">
      <g>
       <use xlink:href="#mdab2fd45ca" x="108" y="70.558093" style="fill: #a9a9a9; stroke: #a9a9a9; stroke-width: 0.8"/>
      </g>
     </g>
     <g id="text_19">
      <!-- 3200 -->
      <g style="fill: #a9a9a9" transform="translate(75.55 74.357312) scale(0.1 -0.1)">
       <use xlink:href="#DejaVuSans-33"/>
       <use xlink:href="#DejaVuSans-32" x="63.623047"/>
       <use xlink:href="#DejaVuSans-30" x="127.246094"/>
       <use xlink:href="#DejaVuSans-30" x="190.869141"/>
      </g>
     </g>
    </g>
   </g>
   <g id="line2d_39">
    <path d="M 138.436364 307.577516 
L 143.173541 307.20671 
L 144.357835 307.058387 
L 145.542129 307.058387 
L 146.726424 306.61342 
L 149.095012 306.465097 
L 157.385073 304.90771 
L 159.753661 304.759388 
L 160.937955 304.536904 
L 164.490838 304.31442 
L 165.675133 303.72113 
L 166.859427 303.424485 
L 168.043721 302.089582 
L 169.228016 301.347969 
L 170.41231 298.752325 
L 171.596604 298.604002 
L 172.780898 297.788228 
L 173.965193 297.343261 
L 175.149487 296.749971 
L 178.70237 294.006004 
L 179.886664 293.412713 
L 182.255253 292.522778 
L 183.439547 291.707004 
L 184.623842 291.262036 
L 186.99243 289.852972 
L 188.176724 289.482166 
L 189.361019 287.702295 
L 190.545313 286.81236 
L 191.729607 286.144909 
L 192.913902 285.62578 
L 197.651079 284.958328 
L 201.203962 284.365038 
L 203.57255 284.216716 
L 204.756845 283.994232 
L 205.941139 283.400942 
L 210.678316 283.030135 
L 214.231199 282.659329 
L 215.415493 282.288523 
L 221.336965 281.176104 
L 223.705554 280.95362 
L 224.889848 280.656975 
L 228.442731 280.212007 
L 229.627025 279.618717 
L 230.811319 279.470394 
L 233.179908 278.65462 
L 235.548497 278.432137 
L 236.732791 278.06133 
L 241.469968 277.393879 
L 242.654262 277.023072 
L 245.022851 276.652266 
L 246.207145 276.652266 
L 252.128617 275.910653 
L 254.497206 275.243202 
L 255.6815 274.946557 
L 258.050088 274.724073 
L 259.234383 274.649912 
L 262.787266 273.98246 
L 263.97156 273.537493 
L 265.155854 272.054267 
L 266.340149 271.6093 
L 267.524443 271.016009 
L 268.708737 270.867687 
L 269.893031 270.571042 
L 271.077326 270.422719 
L 273.445914 269.458623 
L 274.630209 269.384461 
L 280.55168 267.827075 
L 281.735975 267.827075 
L 284.104563 267.53043 
L 286.473152 266.862978 
L 290.026035 265.973043 
L 291.210329 265.898882 
L 293.578918 264.934785 
L 294.763212 264.786463 
L 295.947506 264.267334 
L 298.316095 264.04485 
L 299.500389 263.970689 
L 303.053272 263.377398 
L 305.421861 263.006592 
L 308.974744 262.339141 
L 310.159038 261.968334 
L 311.343332 261.820012 
L 313.711921 261.004238 
L 314.896215 260.336786 
L 316.080509 260.040141 
L 317.264804 259.891819 
L 319.633392 259.150206 
L 322.001981 257.889464 
L 323.186275 257.147852 
L 324.37057 256.999529 
L 325.554864 256.628723 
L 326.739158 256.4804 
L 327.923452 256.183755 
L 329.107747 256.035433 
L 330.292041 255.516304 
L 332.66063 255.145497 
L 333.844924 254.552207 
L 335.029218 254.10724 
L 336.213513 253.810594 
L 337.397807 253.662272 
L 338.582101 253.217304 
L 343.319278 252.327369 
L 345.687867 251.363273 
L 346.872161 251.140789 
L 348.056456 250.695821 
L 349.24075 250.547499 
L 350.425044 250.02837 
L 351.609339 249.731725 
L 353.977927 249.583402 
L 356.346516 248.841789 
L 357.53081 248.693467 
L 358.715104 248.693467 
L 359.899399 248.174338 
L 362.267987 247.803531 
L 363.452282 247.358564 
L 365.82087 247.284403 
L 367.005164 247.13608 
L 368.189459 247.13608 
L 370.558047 246.765274 
L 372.926636 245.652855 
L 375.295225 244.614597 
L 376.479519 244.317952 
L 377.663813 243.576339 
L 378.848108 243.205533 
L 381.216696 242.167275 
L 382.40099 241.944791 
L 383.585285 241.425662 
L 384.769579 241.054856 
L 385.953873 240.313243 
L 387.138168 239.719953 
L 388.322462 238.533373 
L 389.506756 236.679341 
L 390.691051 235.196115 
L 391.875345 234.825309 
L 393.059639 234.825309 
L 394.243933 234.083696 
L 395.428228 233.193761 
L 396.612522 232.897116 
L 397.796816 232.303826 
L 398.981111 232.081342 
L 400.165405 231.043084 
L 401.349699 230.746439 
L 404.902582 229.189052 
L 406.086877 227.854149 
L 407.271171 226.14844 
L 408.455465 225.480989 
L 409.639759 223.626957 
L 410.824054 222.514538 
L 412.008348 221.995409 
L 413.192642 221.698764 
L 414.376937 220.957151 
L 416.745525 219.844732 
L 417.92982 219.028958 
L 419.114114 218.064862 
L 420.298408 217.249088 
L 421.482703 216.581636 
L 422.666997 215.02425 
L 423.851291 212.428605 
L 425.035585 210.797057 
L 426.21988 209.907122 
L 427.404174 209.387993 
L 432.141351 205.605768 
L 434.50994 203.751736 
L 435.694234 202.78764 
L 436.878528 201.156092 
L 438.062823 200.117834 
L 439.247117 199.227899 
L 442.8 196.928899 
L 443.984294 196.113125 
L 445.168589 195.149029 
L 446.352883 194.852384 
L 447.537177 194.333255 
L 451.09006 192.405062 
L 453.458649 191.292643 
L 455.827237 189.290288 
L 457.011532 187.881224 
L 458.195826 187.06545 
L 459.38012 186.397999 
L 460.564415 186.101354 
L 461.748709 185.508064 
L 462.933003 184.69229 
L 465.301592 183.505709 
L 466.485886 183.283225 
L 467.67018 182.541613 
L 470.038769 181.280871 
L 471.223063 180.168452 
L 472.407358 179.352678 
L 473.591652 178.981872 
L 474.775946 178.240259 
L 475.960241 177.72113 
L 477.144535 176.979517 
L 478.328829 176.53455 
L 479.513123 175.792937 
L 480.697418 174.82884 
L 483.066006 174.013067 
L 484.250301 173.493938 
L 485.434595 173.271454 
L 486.618889 172.529841 
L 487.803184 172.307357 
L 490.171772 171.491583 
L 491.356067 171.120777 
L 493.724655 170.15668 
L 494.908949 169.711713 
L 496.093244 169.415068 
L 497.277538 168.9701 
L 499.646127 168.599294 
L 500.830421 167.561036 
L 502.014715 166.671101 
L 503.19901 166.226133 
L 505.567598 164.965391 
L 507.936187 163.70465 
L 510.304775 163.037198 
L 511.48907 162.147263 
L 512.673364 161.850618 
L 515.041953 160.367393 
L 516.226247 159.774102 
L 519.77913 159.03249 
L 522.147718 158.365038 
L 525.700601 156.436845 
L 526.884896 156.288523 
L 528.06919 155.843555 
L 529.253484 155.695232 
L 530.437779 155.250265 
L 531.622073 154.508652 
L 532.806367 153.618717 
L 533.990661 152.877104 
L 535.174956 152.65462 
L 536.35925 152.06133 
L 537.543544 151.913008 
L 538.727839 151.46804 
L 539.912133 150.652266 
L 541.096427 150.28146 
L 542.280722 149.762331 
L 547.017899 148.501589 
L 548.202193 148.427428 
L 549.386487 148.056622 
L 551.755076 147.018364 
L 552.93937 146.647557 
L 554.123665 146.425074 
L 555.307959 145.905945 
L 556.492253 145.535138 
L 557.676548 145.016009 
L 560.045136 144.348558 
L 561.22943 144.274397 
L 563.598019 143.755268 
L 564.782313 143.236139 
L 565.966608 143.013655 
L 568.335196 142.049559 
L 571.888079 140.418011 
L 574.256668 138.934785 
L 575.440962 138.63814 
L 576.625256 137.970689 
L 577.809551 137.525721 
L 578.993845 136.85827 
L 581.362434 136.264979 
L 582.546728 135.597528 
L 584.915317 134.633431 
L 587.283905 134.262625 
L 588.4682 133.446851 
L 589.652494 132.853561 
L 590.836788 132.631077 
L 592.021082 132.186109 
L 593.205377 131.592819 
L 594.389671 131.370335 
L 595.573965 130.777045 
L 600.311143 130.109594 
L 602.679731 129.071336 
L 603.864025 128.181401 
L 605.04832 126.179046 
L 606.232614 125.882401 
L 607.416908 125.734079 
L 608.601203 125.437434 
L 610.969791 124.176692 
L 612.154086 123.731725 
L 613.33838 123.138434 
L 614.522674 122.841789 
L 616.891263 121.72937 
L 619.259851 120.616951 
L 621.62844 119.652855 
L 622.812734 118.911242 
L 623.997029 118.466274 
L 627.549912 117.6505 
L 629.9185 116.538081 
L 631.102794 116.018952 
L 632.287089 115.796469 
L 635.839972 114.461566 
L 638.20856 113.052501 
L 639.392855 112.236727 
L 640.577149 111.643437 
L 641.761443 111.420954 
L 642.945738 110.975986 
L 644.130032 110.901825 
L 648.867209 109.344438 
L 650.051503 109.270277 
L 651.235798 108.454503 
L 652.420092 108.157858 
L 653.604386 107.638729 
L 657.157269 106.600471 
L 658.341563 105.933019 
L 659.525858 105.562213 
L 660.710152 104.8206 
L 661.894446 104.301471 
L 663.078741 103.63402 
L 669.000212 101.335021 
L 670.184507 100.667569 
L 671.368801 99.851795 
L 672.553095 98.591054 
L 673.737389 97.849441 
L 674.921684 97.626957 
L 677.290272 95.847087 
L 678.474567 95.47628 
L 679.658861 93.770571 
L 680.843155 93.325603 
L 682.02745 92.509829 
L 683.211744 92.287345 
L 684.396038 91.545733 
L 685.580333 91.026604 
L 686.764627 90.80412 
L 687.948921 90.359152 
L 689.133215 89.395056 
L 690.31751 89.02425 
L 692.686098 87.466863 
L 693.870393 86.72525 
L 695.054687 86.206121 
L 697.423276 84.94538 
L 698.60757 84.426251 
L 699.791864 84.277928 
L 700.976158 83.832961 
L 703.344747 82.423896 
L 704.529041 80.644026 
L 705.713336 79.531607 
L 706.89763 78.864155 
L 708.081924 78.56751 
L 710.450513 77.232607 
L 711.634807 77.010124 
L 712.819102 76.416833 
L 716.371984 75.007769 
L 717.556279 74.414479 
L 719.924867 72.782931 
L 722.293456 70.40977 
L 723.47775 69.519835 
L 725.846339 68.110771 
L 727.030633 66.998352 
L 730.583516 64.328546 
L 731.76781 63.735256 
L 732.952105 62.474514 
L 734.136399 61.65874 
L 735.320693 61.287934 
L 736.504988 60.768805 
L 737.689282 59.656386 
L 740.057871 58.469806 
L 741.242165 58.173161 
L 742.426459 57.357387 
L 744.795048 56.39329 
L 745.979342 55.874161 
L 747.163636 55.8 
L 747.163636 55.8 
" clip-path="url(#pf24977b4e8)" style="fill: none; stroke: #1f77b4; stroke-width: 1.5; stroke-linecap: square"/>
   </g>
   <g id="line2d_40">
    <path d="M 139.620658 307.8 
L 141.989247 307.8 
L 144.357835 307.503355 
L 151.463601 307.429194 
L 155.016484 307.280871 
L 158.569367 307.20671 
L 160.937955 307.132549 
L 164.490838 307.132549 
L 165.675133 306.835903 
L 169.228016 306.761742 
L 175.149487 306.094291 
L 184.623842 305.575162 
L 185.808136 305.575162 
L 186.99243 305.352678 
L 190.545313 305.278517 
L 192.913902 304.981872 
L 197.651079 304.981872 
L 198.835373 304.833549 
L 204.756845 304.759388 
L 208.309728 304.611065 
L 218.968376 304.536904 
L 221.336965 304.462743 
L 226.074142 304.388582 
L 229.627025 304.240259 
L 234.364202 304.240259 
L 235.548497 304.091936 
L 239.10138 304.017775 
L 243.838557 303.795291 
L 252.128617 303.72113 
L 254.497206 303.646969 
L 259.234383 303.572808 
L 262.787266 303.12784 
L 268.708737 303.053679 
L 274.630209 302.757034 
L 280.55168 302.682872 
L 284.104563 302.53455 
L 286.473152 302.460388 
L 288.84174 302.237905 
L 293.578918 302.015421 
L 297.1318 301.94126 
L 299.500389 301.867098 
L 301.868978 301.867098 
L 303.053272 301.718776 
L 306.606155 301.718776 
L 308.974744 301.496292 
L 312.527626 301.347969 
L 318.449098 301.273808 
L 323.186275 300.754679 
L 324.37057 300.680518 
L 325.554864 300.458034 
L 330.292041 300.383873 
L 333.844924 300.087228 
L 336.213513 299.864744 
L 342.134984 299.568099 
L 345.687867 299.493938 
L 349.24075 299.345615 
L 350.425044 299.345615 
L 352.793633 299.123131 
L 355.162221 299.04897 
L 356.346516 299.04897 
L 357.53081 298.900647 
L 359.899399 298.826486 
L 365.82087 298.529841 
L 368.189459 298.45568 
L 371.742342 298.307357 
L 375.295225 298.233196 
L 377.663813 298.159035 
L 383.585285 298.084873 
L 388.322462 297.565745 
L 389.506756 297.565745 
L 391.875345 297.343261 
L 394.243933 297.269099 
L 398.981111 296.898293 
L 400.165405 296.749971 
L 401.349699 296.453325 
L 403.718288 296.305003 
L 404.902582 296.008358 
L 408.455465 295.711713 
L 410.824054 295.192584 
L 413.192642 295.118423 
L 415.561231 295.118423 
L 416.745525 294.9701 
L 417.92982 294.9701 
L 420.298408 294.599294 
L 425.035585 293.78352 
L 426.21988 293.78352 
L 427.404174 293.635197 
L 430.957057 293.561036 
L 446.352883 292.596939 
L 447.537177 292.374456 
L 451.09006 292.151972 
L 453.458649 291.781165 
L 455.827237 291.558682 
L 458.195826 291.48452 
L 460.564415 291.48452 
L 461.748709 291.187875 
L 462.933003 291.039553 
L 467.67018 290.965391 
L 470.038769 290.742908 
L 471.223063 290.742908 
L 474.775946 290.223779 
L 475.960241 289.927134 
L 477.144535 289.778811 
L 479.513123 289.70465 
L 485.434595 289.408005 
L 488.987478 289.333843 
L 504.383304 288.443908 
L 506.751892 288.443908 
L 509.120481 288.221424 
L 511.48907 288.221424 
L 515.041953 287.850618 
L 519.77913 287.628134 
L 522.147718 287.553973 
L 523.332013 287.40565 
L 528.06919 287.331489 
L 536.35925 286.886521 
L 542.280722 286.81236 
L 544.64931 286.738199 
L 545.833605 286.738199 
L 547.017899 286.515715 
L 549.386487 286.441554 
L 556.492253 286.367393 
L 560.045136 286.21907 
L 564.782313 286.144909 
L 565.966608 285.922425 
L 573.072374 285.848264 
L 575.440962 285.774102 
L 577.809551 285.699941 
L 580.178139 285.62578 
L 582.546728 285.551619 
L 592.021082 285.03249 
L 597.942554 284.958328 
L 601.495437 284.661683 
L 603.864025 284.4392 
L 606.232614 284.365038 
L 608.601203 284.290877 
L 609.785497 284.142554 
L 613.33838 284.068393 
L 614.522674 283.771748 
L 619.259851 283.549264 
L 629.9185 283.475103 
L 635.839972 283.030135 
L 639.392855 282.659329 
L 645.314326 282.585168 
L 648.867209 282.214361 
L 655.972975 281.843555 
L 658.341563 281.769394 
L 663.078741 281.54691 
L 667.815918 281.472749 
L 671.368801 281.324426 
L 676.105978 281.250265 
L 679.658861 280.879459 
L 682.02745 280.805297 
L 686.764627 280.731136 
L 690.31751 280.434491 
L 691.501804 280.286168 
L 692.686098 280.286168 
L 693.870393 280.063685 
L 696.238981 279.989523 
L 700.976158 279.915362 
L 703.344747 279.544556 
L 706.89763 279.470394 
L 709.266219 279.396233 
L 715.18769 279.322072 
L 717.556279 279.025427 
L 719.924867 278.951265 
L 722.293456 278.877104 
L 723.47775 278.580459 
L 725.846339 278.506298 
L 727.030633 278.283814 
L 729.399222 278.283814 
L 732.952105 277.913008 
L 747.163636 277.023072 
L 747.163636 277.023072 
" clip-path="url(#pf24977b4e8)" style="fill: none; stroke: #ff7f0e; stroke-width: 1.5; stroke-linecap: square"/>
   </g>
   <g id="patch_3">
    <path d="M 108 320.4 
L 108 43.2 
" style="fill: none; stroke: #a9a9a9; stroke-width: 0.8; stroke-linejoin: miter; stroke-linecap: square"/>
   </g>
   <g id="patch_4">
    <path d="M 777.6 320.4 
L 777.6 43.2 
" style="fill: none"/>
   </g>
   <g id="patch_5">
    <path d="M 108 320.4 
L 777.6 320.4 
" style="fill: none; stroke: #a9a9a9; stroke-width: 0.8; stroke-linejoin: miter; stroke-linecap: square"/>
   </g>
   <g id="patch_6">
    <path d="M 108 43.2 
L 777.6 43.2 
" style="fill: none"/>
   </g>
   <g id="text_20">
    <!-- get_subscribe history -->
    <g style="fill: #a9a9a9" transform="translate(378.6075 37.2) scale(0.12 -0.12)">
     <defs>
      <path id="DejaVuSans-67" d="M 2906 1791 
Q 2906 2416 2648 2759 
Q 2391 3103 1925 3103 
Q 1463 3103 1205 2759 
Q 947 2416 947 1791 
Q 947 1169 1205 825 
Q 1463 481 1925 481 
Q 2391 481 2648 825 
Q 2906 1169 2906 1791 
z
M 3481 434 
Q 3481 -459 3084 -895 
Q 2688 -1331 1869 -1331 
Q 1566 -1331 1297 -1286 
Q 1028 -1241 775 -1147 
L 775 -588 
Q 1028 -725 1275 -790 
Q 1522 -856 1778 -856 
Q 2344 -856 2625 -561 
Q 2906 -266 2906 331 
L 2906 616 
Q 2728 306 2450 153 
Q 2172 0 1784 0 
Q 1141 0 747 490 
Q 353 981 353 1791 
Q 353 2603 747 3093 
Q 1141 3584 1784 3584 
Q 2172 3584 2450 3431 
Q 2728 3278 2906 2969 
L 2906 3500 
L 3481 3500 
L 3481 434 
z
" transform="scale(0.015625)"/>
      <path id="DejaVuSans-65" d="M 3597 1894 
L 3597 1613 
L 953 1613 
Q 991 1019 1311 708 
Q 1631 397 2203 397 
Q 2534 397 2845 478 
Q 3156 559 3463 722 
L 3463 178 
Q 3153 47 2828 -22 
Q 2503 -91 2169 -91 
Q 1331 -91 842 396 
Q 353 884 353 1716 
Q 353 2575 817 3079 
Q 1281 3584 2069 3584 
Q 2775 3584 3186 3129 
Q 3597 2675 3597 1894 
z
M 3022 2063 
Q 3016 2534 2758 2815 
Q 2500 3097 2075 3097 
Q 1594 3097 1305 2825 
Q 1016 2553 972 2059 
L 3022 2063 
z
" transform="scale(0.015625)"/>
      <path id="DejaVuSans-74" d="M 1172 4494 
L 1172 3500 
L 2356 3500 
L 2356 3053 
L 1172 3053 
L 1172 1153 
Q 1172 725 1289 603 
Q 1406 481 1766 481 
L 2356 481 
L 2356 0 
L 1766 0 
Q 1100 0 847 248 
Q 594 497 594 1153 
L 594 3053 
L 172 3053 
L 172 3500 
L 594 3500 
L 594 4494 
L 1172 4494 
z
" transform="scale(0.015625)"/>
      <path id="DejaVuSans-5f" d="M 3263 -1063 
L 3263 -1509 
L -63 -1509 
L -63 -1063 
L 3263 -1063 
z
" transform="scale(0.015625)"/>
      <path id="DejaVuSans-73" d="M 2834 3397 
L 2834 2853 
Q 2591 2978 2328 3040 
Q 2066 3103 1784 3103 
Q 1356 3103 1142 2972 
Q 928 2841 928 2578 
Q 928 2378 1081 2264 
Q 1234 2150 1697 2047 
L 1894 2003 
Q 2506 1872 2764 1633 
Q 3022 1394 3022 966 
Q 3022 478 2636 193 
Q 2250 -91 1575 -91 
Q 1294 -91 989 -36 
Q 684 19 347 128 
L 347 722 
Q 666 556 975 473 
Q 1284 391 1588 391 
Q 1994 391 2212 530 
Q 2431 669 2431 922 
Q 2431 1156 2273 1281 
Q 2116 1406 1581 1522 
L 1381 1569 
Q 847 1681 609 1914 
Q 372 2147 372 2553 
Q 372 3047 722 3315 
Q 1072 3584 1716 3584 
Q 2034 3584 2315 3537 
Q 2597 3491 2834 3397 
z
" transform="scale(0.015625)"/>
      <path id="DejaVuSans-75" d="M 544 1381 
L 544 3500 
L 1119 3500 
L 1119 1403 
Q 1119 906 1312 657 
Q 1506 409 1894 409 
Q 2359 409 2629 706 
Q 2900 1003 2900 1516 
L 2900 3500 
L 3475 3500 
L 3475 0 
L 2900 0 
L 2900 538 
Q 2691 219 2414 64 
Q 2138 -91 1772 -91 
Q 1169 -91 856 284 
Q 544 659 544 1381 
z
M 1991 3584 
L 1991 3584 
z
" transform="scale(0.015625)"/>
      <path id="DejaVuSans-62" d="M 3116 1747 
Q 3116 2381 2855 2742 
Q 2594 3103 2138 3103 
Q 1681 3103 1420 2742 
Q 1159 2381 1159 1747 
Q 1159 1113 1420 752 
Q 1681 391 2138 391 
Q 2594 391 2855 752 
Q 3116 1113 3116 1747 
z
M 1159 2969 
Q 1341 3281 1617 3432 
Q 1894 3584 2278 3584 
Q 2916 3584 3314 3078 
Q 3713 2572 3713 1747 
Q 3713 922 3314 415 
Q 2916 -91 2278 -91 
Q 1894 -91 1617 61 
Q 1341 213 1159 525 
L 1159 0 
L 581 0 
L 581 4863 
L 1159 4863 
L 1159 2969 
z
" transform="scale(0.015625)"/>
      <path id="DejaVuSans-63" d="M 3122 3366 
L 3122 2828 
Q 2878 2963 2633 3030 
Q 2388 3097 2138 3097 
Q 1578 3097 1268 2742 
Q 959 2388 959 1747 
Q 959 1106 1268 751 
Q 1578 397 2138 397 
Q 2388 397 2633 464 
Q 2878 531 3122 666 
L 3122 134 
Q 2881 22 2623 -34 
Q 2366 -91 2075 -91 
Q 1284 -91 818 406 
Q 353 903 353 1747 
Q 353 2603 823 3093 
Q 1294 3584 2113 3584 
Q 2378 3584 2631 3529 
Q 2884 3475 3122 3366 
z
" transform="scale(0.015625)"/>
      <path id="DejaVuSans-72" d="M 2631 2963 
Q 2534 3019 2420 3045 
Q 2306 3072 2169 3072 
Q 1681 3072 1420 2755 
Q 1159 2438 1159 1844 
L 1159 0 
L 581 0 
L 581 3500 
L 1159 3500 
L 1159 2956 
Q 1341 3275 1631 3429 
Q 1922 3584 2338 3584 
Q 2397 3584 2469 3576 
Q 2541 3569 2628 3553 
L 2631 2963 
z
" transform="scale(0.015625)"/>
      <path id="DejaVuSans-69" d="M 603 3500 
L 1178 3500 
L 1178 0 
L 603 0 
L 603 3500 
z
M 603 4863 
L 1178 4863 
L 1178 4134 
L 603 4134 
L 603 4863 
z
" transform="scale(0.015625)"/>
      <path id="DejaVuSans-20" transform="scale(0.015625)"/>
      <path id="DejaVuSans-68" d="M 3513 2113 
L 3513 0 
L 2938 0 
L 2938 2094 
Q 2938 2591 2744 2837 
Q 2550 3084 2163 3084 
Q 1697 3084 1428 2787 
Q 1159 2491 1159 1978 
L 1159 0 
L 581 0 
L 581 4863 
L 1159 4863 
L 1159 2956 
Q 1366 3272 1645 3428 
Q 1925 3584 2291 3584 
Q 2894 3584 3203 3211 
Q 3513 2838 3513 2113 
z
" transform="scale(0.015625)"/>
      <path id="DejaVuSans-6f" d="M 1959 3097 
Q 1497 3097 1228 2736 
Q 959 2375 959 1747 
Q 959 1119 1226 758 
Q 1494 397 1959 397 
Q 2419 397 2687 759 
Q 2956 1122 2956 1747 
Q 2956 2369 2687 2733 
Q 2419 3097 1959 3097 
z
M 1959 3584 
Q 2709 3584 3137 3096 
Q 3566 2609 3566 1747 
Q 3566 888 3137 398 
Q 2709 -91 1959 -91 
Q 1206 -91 779 398 
Q 353 888 353 1747 
Q 353 2609 779 3096 
Q 1206 3584 1959 3584 
z
" transform="scale(0.015625)"/>
      <path id="DejaVuSans-79" d="M 2059 -325 
Q 1816 -950 1584 -1140 
Q 1353 -1331 966 -1331 
L 506 -1331 
L 506 -850 
L 844 -850 
Q 1081 -850 1212 -737 
Q 1344 -625 1503 -206 
L 1606 56 
L 191 3500 
L 800 3500 
L 1894 763 
L 2988 3500 
L 3597 3500 
L 2059 -325 
z
" transform="scale(0.015625)"/>
     </defs>
     <use xlink:href="#DejaVuSans-67"/>
     <use xlink:href="#DejaVuSans-65" x="63.476562"/>
     <use xlink:href="#DejaVuSans-74" x="125"/>
     <use xlink:href="#DejaVuSans-5f" x="164.208984"/>
     <use xlink:href="#DejaVuSans-73" x="214.208984"/>
     <use xlink:href="#DejaVuSans-75" x="266.308594"/>
     <use xlink:href="#DejaVuSans-62" x="329.6875"/>
     <use xlink:href="#DejaVuSans-73" x="393.164062"/>
     <use xlink:href="#DejaVuSans-63" x="445.263672"/>
     <use xlink:href="#DejaVuSans-72" x="500.244141"/>
     <use xlink:href="#DejaVuSans-69" x="541.357422"/>
     <use xlink:href="#DejaVuSans-62" x="569.140625"/>
     <use xlink:href="#DejaVuSans-65" x="632.617188"/>
     <use xlink:href="#DejaVuSans-20" x="694.140625"/>
     <use xlink:href="#DejaVuSans-68" x="725.927734"/>
     <use xlink:href="#DejaVuSans-69" x="789.306641"/>
     <use xlink:href="#DejaVuSans-73" x="817.089844"/>
     <use xlink:href="#DejaVuSans-74" x="869.189453"/>
     <use xlink:href="#DejaVuSans-6f" x="908.398438"/>
     <use xlink:href="#DejaVuSans-72" x="969.580078"/>
     <use xlink:href="#DejaVuSans-79" x="1010.693359"/>
    </g>
   </g>
   <g id="legend_1">
    <g id="line2d_41">
     <path d="M 815.08 328.498438 
L 825.08 328.498438 
L 835.08 328.498438 
" style="fill: none; stroke: #1f77b4; stroke-width: 1.5; stroke-linecap: square"/>
    </g>
    <g id="text_21">
     <!-- star -->
     <g style="fill: #a9a9a9" transform="translate(843.08 331.998438) scale(0.1 -0.1)">
      <defs>
       <path id="DejaVuSans-61" d="M 2194 1759 
Q 1497 1759 1228 1600 
Q 959 1441 959 1056 
Q 959 750 1161 570 
Q 1363 391 1709 391 
Q 2188 391 2477 730 
Q 2766 1069 2766 1631 
L 2766 1759 
L 2194 1759 
z
M 3341 1997 
L 3341 0 
L 2766 0 
L 2766 531 
Q 2569 213 2275 61 
Q 1981 -91 1556 -91 
Q 1019 -91 701 211 
Q 384 513 384 1019 
Q 384 1609 779 1909 
Q 1175 2209 1959 2209 
L 2766 2209 
L 2766 2266 
Q 2766 2663 2505 2880 
Q 2244 3097 1772 3097 
Q 1472 3097 1187 3025 
Q 903 2953 641 2809 
L 641 3341 
Q 956 3463 1253 3523 
Q 1550 3584 1831 3584 
Q 2591 3584 2966 3190 
Q 3341 2797 3341 1997 
z
" transform="scale(0.015625)"/>
      </defs>
      <use xlink:href="#DejaVuSans-73"/>
      <use xlink:href="#DejaVuSans-74" x="52.099609"/>
      <use xlink:href="#DejaVuSans-61" x="91.308594"/>
      <use xlink:href="#DejaVuSans-72" x="152.587891"/>
     </g>
    </g>
    <g id="line2d_42">
     <path d="M 815.08 343.176562 
L 825.08 343.176562 
L 835.08 343.176562 
" style="fill: none; stroke: #ff7f0e; stroke-width: 1.5; stroke-linecap: square"/>
    </g>
    <g id="text_22">
     <!-- fork -->
     <g style="fill: #a9a9a9" transform="translate(843.08 346.676562) scale(0.1 -0.1)">
      <defs>
       <path id="DejaVuSans-66" d="M 2375 4863 
L 2375 4384 
L 1825 4384 
Q 1516 4384 1395 4259 
Q 1275 4134 1275 3809 
L 1275 3500 
L 2222 3500 
L 2222 3053 
L 1275 3053 
L 1275 0 
L 697 0 
L 697 3053 
L 147 3053 
L 147 3500 
L 697 3500 
L 697 3744 
Q 697 4328 969 4595 
Q 1241 4863 1831 4863 
L 2375 4863 
z
" transform="scale(0.015625)"/>
       <path id="DejaVuSans-6b" d="M 581 4863 
L 1159 4863 
L 1159 1991 
L 2875 3500 
L 3609 3500 
L 1753 1863 
L 3688 0 
L 2938 0 
L 1159 1709 
L 1159 0 
L 581 0 
L 581 4863 
z
" transform="scale(0.015625)"/>
      </defs>
      <use xlink:href="#DejaVuSans-66"/>
      <use xlink:href="#DejaVuSans-6f" x="35.205078"/>
      <use xlink:href="#DejaVuSans-72" x="96.386719"/>
      <use xlink:href="#DejaVuSans-6b" x="137.5"/>
     </g>
    </g>
   </g>
  </g>
 </g>
 <defs>
  <clipPath id="pf24977b4e8">
   <rect x="108" y="43.2" width="669.6" height="277.2"/>
  </clipPath>
 </defs>
</svg>
