<?xml version="1.0" encoding="utf-8" standalone="no"?>
<!DOCTYPE svg PUBLIC "-//W3C//DTD SVG 1.1//EN"
  "http://www.w3.org/Graphics/SVG/1.1/DTD/svg11.dtd">
<svg xmlns:xlink="http://www.w3.org/1999/xlink" width="864pt" height="360pt" viewBox="0 0 864 360" xmlns="http://www.w3.org/2000/svg" version="1.1">
 <metadata>
  <rdf:RDF xmlns:dc="http://purl.org/dc/elements/1.1/" xmlns:cc="http://creativecommons.org/ns#" xmlns:rdf="http://www.w3.org/1999/02/22-rdf-syntax-ns#">
   <cc:Work>
    <dc:type rdf:resource="http://purl.org/dc/dcmitype/StillImage"/>
    <dc:date>2023-01-12T08:58:55.924397</dc:date>
    <dc:format>image/svg+xml</dc:format>
    <dc:creator>
     <cc:Agent>
      <dc:title>Matplotlib v3.6.2, https://matplotlib.org/</dc:title>
     </cc:Agent>
    </dc:creator>
   </cc:Work>
  </rdf:RDF>
 </metadata>
 <defs>
  <style type="text/css">*{stroke-linejoin: round; stroke-linecap: butt}</style>
 </defs>
 <g id="figure_1">
  <g id="patch_1">
   <path d="M 0 360 
L 864 360 
L 864 0 
L 0 0 
L 0 360 
z
" style="fill: none; opacity: 0"/>
  </g>
  <g id="axes_1">
   <g id="patch_2">
    <path d="M 108 320.4 
L 777.6 320.4 
L 777.6 43.2 
L 108 43.2 
L 108 320.4 
z
" style="fill: none; opacity: 0"/>
   </g>
   <g id="matplotlib.axis_1">
    <g id="xtick_1">
     <g id="line2d_1">
      <path d="M 112.364246 320.4 
L 112.364246 43.2 
" clip-path="url(#p5c953c9560)" style="fill: none; stroke-dasharray: 5.12,1.28,0.8,1.28; stroke-dashoffset: 0; stroke: #b0b0b0; stroke-width: 0.8"/>
     </g>
     <g id="line2d_2">
      <defs>
       <path id="mb6a03be50b" d="M 0 0 
L 0 3.5 
" style="stroke: #a9a9a9; stroke-width: 0.8"/>
      </defs>
      <g>
       <use xlink:href="#mb6a03be50b" x="112.364246" y="320.4" style="fill: #a9a9a9; stroke: #a9a9a9; stroke-width: 0.8"/>
      </g>
     </g>
     <g id="text_1">
      <!-- 2021-07 -->
      <g style="fill: #a9a9a9" transform="translate(91.47284 334.998438) scale(0.1 -0.1)">
       <defs>
        <path id="DejaVuSans-32" d="M 1228 531 
L 3431 531 
L 3431 0 
L 469 0 
L 469 531 
Q 828 903 1448 1529 
Q 2069 2156 2228 2338 
Q 2531 2678 2651 2914 
Q 2772 3150 2772 3378 
Q 2772 3750 2511 3984 
Q 2250 4219 1831 4219 
Q 1534 4219 1204 4116 
Q 875 4013 500 3803 
L 500 4441 
Q 881 4594 1212 4672 
Q 1544 4750 1819 4750 
Q 2544 4750 2975 4387 
Q 3406 4025 3406 3419 
Q 3406 3131 3298 2873 
Q 3191 2616 2906 2266 
Q 2828 2175 2409 1742 
Q 1991 1309 1228 531 
z
" transform="scale(0.015625)"/>
        <path id="DejaVuSans-30" d="M 2034 4250 
Q 1547 4250 1301 3770 
Q 1056 3291 1056 2328 
Q 1056 1369 1301 889 
Q 1547 409 2034 409 
Q 2525 409 2770 889 
Q 3016 1369 3016 2328 
Q 3016 3291 2770 3770 
Q 2525 4250 2034 4250 
z
M 2034 4750 
Q 2819 4750 3233 4129 
Q 3647 3509 3647 2328 
Q 3647 1150 3233 529 
Q 2819 -91 2034 -91 
Q 1250 -91 836 529 
Q 422 1150 422 2328 
Q 422 3509 836 4129 
Q 1250 4750 2034 4750 
z
" transform="scale(0.015625)"/>
        <path id="DejaVuSans-31" d="M 794 531 
L 1825 531 
L 1825 4091 
L 703 3866 
L 703 4441 
L 1819 4666 
L 2450 4666 
L 2450 531 
L 3481 531 
L 3481 0 
L 794 0 
L 794 531 
z
" transform="scale(0.015625)"/>
        <path id="DejaVuSans-2d" d="M 313 2009 
L 1997 2009 
L 1997 1497 
L 313 1497 
L 313 2009 
z
" transform="scale(0.015625)"/>
        <path id="DejaVuSans-37" d="M 525 4666 
L 3525 4666 
L 3525 4397 
L 1831 0 
L 1172 0 
L 2766 4134 
L 525 4134 
L 525 4666 
z
" transform="scale(0.015625)"/>
       </defs>
       <use xlink:href="#DejaVuSans-32"/>
       <use xlink:href="#DejaVuSans-30" x="63.623047"/>
       <use xlink:href="#DejaVuSans-32" x="127.246094"/>
       <use xlink:href="#DejaVuSans-31" x="190.869141"/>
       <use xlink:href="#DejaVuSans-2d" x="254.492188"/>
       <use xlink:href="#DejaVuSans-30" x="290.576172"/>
       <use xlink:href="#DejaVuSans-37" x="354.199219"/>
      </g>
     </g>
    </g>
    <g id="xtick_2">
     <g id="line2d_3">
      <path d="M 182.645607 320.4 
L 182.645607 43.2 
" clip-path="url(#p5c953c9560)" style="fill: none; stroke-dasharray: 5.12,1.28,0.8,1.28; stroke-dashoffset: 0; stroke: #b0b0b0; stroke-width: 0.8"/>
     </g>
     <g id="line2d_4">
      <g>
       <use xlink:href="#mb6a03be50b" x="182.645607" y="320.4" style="fill: #a9a9a9; stroke: #a9a9a9; stroke-width: 0.8"/>
      </g>
     </g>
     <g id="text_2">
      <!-- 2021-09 -->
      <g style="fill: #a9a9a9" transform="translate(161.754201 334.998438) scale(0.1 -0.1)">
       <defs>
        <path id="DejaVuSans-39" d="M 703 97 
L 703 672 
Q 941 559 1184 500 
Q 1428 441 1663 441 
Q 2288 441 2617 861 
Q 2947 1281 2994 2138 
Q 2813 1869 2534 1725 
Q 2256 1581 1919 1581 
Q 1219 1581 811 2004 
Q 403 2428 403 3163 
Q 403 3881 828 4315 
Q 1253 4750 1959 4750 
Q 2769 4750 3195 4129 
Q 3622 3509 3622 2328 
Q 3622 1225 3098 567 
Q 2575 -91 1691 -91 
Q 1453 -91 1209 -44 
Q 966 3 703 97 
z
M 1959 2075 
Q 2384 2075 2632 2365 
Q 2881 2656 2881 3163 
Q 2881 3666 2632 3958 
Q 2384 4250 1959 4250 
Q 1534 4250 1286 3958 
Q 1038 3666 1038 3163 
Q 1038 2656 1286 2365 
Q 1534 2075 1959 2075 
z
" transform="scale(0.015625)"/>
       </defs>
       <use xlink:href="#DejaVuSans-32"/>
       <use xlink:href="#DejaVuSans-30" x="63.623047"/>
       <use xlink:href="#DejaVuSans-32" x="127.246094"/>
       <use xlink:href="#DejaVuSans-31" x="190.869141"/>
       <use xlink:href="#DejaVuSans-2d" x="254.492188"/>
       <use xlink:href="#DejaVuSans-30" x="290.576172"/>
       <use xlink:href="#DejaVuSans-39" x="354.199219"/>
      </g>
     </g>
    </g>
    <g id="xtick_3">
     <g id="line2d_5">
      <path d="M 251.793398 320.4 
L 251.793398 43.2 
" clip-path="url(#p5c953c9560)" style="fill: none; stroke-dasharray: 5.12,1.28,0.8,1.28; stroke-dashoffset: 0; stroke: #b0b0b0; stroke-width: 0.8"/>
     </g>
     <g id="line2d_6">
      <g>
       <use xlink:href="#mb6a03be50b" x="251.793398" y="320.4" style="fill: #a9a9a9; stroke: #a9a9a9; stroke-width: 0.8"/>
      </g>
     </g>
     <g id="text_3">
      <!-- 2021-11 -->
      <g style="fill: #a9a9a9" transform="translate(230.901991 334.998438) scale(0.1 -0.1)">
       <use xlink:href="#DejaVuSans-32"/>
       <use xlink:href="#DejaVuSans-30" x="63.623047"/>
       <use xlink:href="#DejaVuSans-32" x="127.246094"/>
       <use xlink:href="#DejaVuSans-31" x="190.869141"/>
       <use xlink:href="#DejaVuSans-2d" x="254.492188"/>
       <use xlink:href="#DejaVuSans-31" x="290.576172"/>
       <use xlink:href="#DejaVuSans-31" x="354.199219"/>
      </g>
     </g>
    </g>
    <g id="xtick_4">
     <g id="line2d_7">
      <path d="M 320.941188 320.4 
L 320.941188 43.2 
" clip-path="url(#p5c953c9560)" style="fill: none; stroke-dasharray: 5.12,1.28,0.8,1.28; stroke-dashoffset: 0; stroke: #b0b0b0; stroke-width: 0.8"/>
     </g>
     <g id="line2d_8">
      <g>
       <use xlink:href="#mb6a03be50b" x="320.941188" y="320.4" style="fill: #a9a9a9; stroke: #a9a9a9; stroke-width: 0.8"/>
      </g>
     </g>
     <g id="text_4">
      <!-- 2022-01 -->
      <g style="fill: #a9a9a9" transform="translate(300.049782 334.998438) scale(0.1 -0.1)">
       <use xlink:href="#DejaVuSans-32"/>
       <use xlink:href="#DejaVuSans-30" x="63.623047"/>
       <use xlink:href="#DejaVuSans-32" x="127.246094"/>
       <use xlink:href="#DejaVuSans-32" x="190.869141"/>
       <use xlink:href="#DejaVuSans-2d" x="254.492188"/>
       <use xlink:href="#DejaVuSans-30" x="290.576172"/>
       <use xlink:href="#DejaVuSans-31" x="354.199219"/>
      </g>
     </g>
    </g>
    <g id="xtick_5">
     <g id="line2d_9">
      <path d="M 387.821838 320.4 
L 387.821838 43.2 
" clip-path="url(#p5c953c9560)" style="fill: none; stroke-dasharray: 5.12,1.28,0.8,1.28; stroke-dashoffset: 0; stroke: #b0b0b0; stroke-width: 0.8"/>
     </g>
     <g id="line2d_10">
      <g>
       <use xlink:href="#mb6a03be50b" x="387.821838" y="320.4" style="fill: #a9a9a9; stroke: #a9a9a9; stroke-width: 0.8"/>
      </g>
     </g>
     <g id="text_5">
      <!-- 2022-03 -->
      <g style="fill: #a9a9a9" transform="translate(366.930432 334.998438) scale(0.1 -0.1)">
       <defs>
        <path id="DejaVuSans-33" d="M 2597 2516 
Q 3050 2419 3304 2112 
Q 3559 1806 3559 1356 
Q 3559 666 3084 287 
Q 2609 -91 1734 -91 
Q 1441 -91 1130 -33 
Q 819 25 488 141 
L 488 750 
Q 750 597 1062 519 
Q 1375 441 1716 441 
Q 2309 441 2620 675 
Q 2931 909 2931 1356 
Q 2931 1769 2642 2001 
Q 2353 2234 1838 2234 
L 1294 2234 
L 1294 2753 
L 1863 2753 
Q 2328 2753 2575 2939 
Q 2822 3125 2822 3475 
Q 2822 3834 2567 4026 
Q 2313 4219 1838 4219 
Q 1578 4219 1281 4162 
Q 984 4106 628 3988 
L 628 4550 
Q 988 4650 1302 4700 
Q 1616 4750 1894 4750 
Q 2613 4750 3031 4423 
Q 3450 4097 3450 3541 
Q 3450 3153 3228 2886 
Q 3006 2619 2597 2516 
z
" transform="scale(0.015625)"/>
       </defs>
       <use xlink:href="#DejaVuSans-32"/>
       <use xlink:href="#DejaVuSans-30" x="63.623047"/>
       <use xlink:href="#DejaVuSans-32" x="127.246094"/>
       <use xlink:href="#DejaVuSans-32" x="190.869141"/>
       <use xlink:href="#DejaVuSans-2d" x="254.492188"/>
       <use xlink:href="#DejaVuSans-30" x="290.576172"/>
       <use xlink:href="#DejaVuSans-33" x="354.199219"/>
      </g>
     </g>
    </g>
    <g id="xtick_6">
     <g id="line2d_11">
      <path d="M 456.969629 320.4 
L 456.969629 43.2 
" clip-path="url(#p5c953c9560)" style="fill: none; stroke-dasharray: 5.12,1.28,0.8,1.28; stroke-dashoffset: 0; stroke: #b0b0b0; stroke-width: 0.8"/>
     </g>
     <g id="line2d_12">
      <g>
       <use xlink:href="#mb6a03be50b" x="456.969629" y="320.4" style="fill: #a9a9a9; stroke: #a9a9a9; stroke-width: 0.8"/>
      </g>
     </g>
     <g id="text_6">
      <!-- 2022-05 -->
      <g style="fill: #a9a9a9" transform="translate(436.078223 334.998438) scale(0.1 -0.1)">
       <defs>
        <path id="DejaVuSans-35" d="M 691 4666 
L 3169 4666 
L 3169 4134 
L 1269 4134 
L 1269 2991 
Q 1406 3038 1543 3061 
Q 1681 3084 1819 3084 
Q 2600 3084 3056 2656 
Q 3513 2228 3513 1497 
Q 3513 744 3044 326 
Q 2575 -91 1722 -91 
Q 1428 -91 1123 -41 
Q 819 9 494 109 
L 494 744 
Q 775 591 1075 516 
Q 1375 441 1709 441 
Q 2250 441 2565 725 
Q 2881 1009 2881 1497 
Q 2881 1984 2565 2268 
Q 2250 2553 1709 2553 
Q 1456 2553 1204 2497 
Q 953 2441 691 2322 
L 691 4666 
z
" transform="scale(0.015625)"/>
       </defs>
       <use xlink:href="#DejaVuSans-32"/>
       <use xlink:href="#DejaVuSans-30" x="63.623047"/>
       <use xlink:href="#DejaVuSans-32" x="127.246094"/>
       <use xlink:href="#DejaVuSans-32" x="190.869141"/>
       <use xlink:href="#DejaVuSans-2d" x="254.492188"/>
       <use xlink:href="#DejaVuSans-30" x="290.576172"/>
       <use xlink:href="#DejaVuSans-35" x="354.199219"/>
      </g>
     </g>
    </g>
    <g id="xtick_7">
     <g id="line2d_13">
      <path d="M 526.11742 320.4 
L 526.11742 43.2 
" clip-path="url(#p5c953c9560)" style="fill: none; stroke-dasharray: 5.12,1.28,0.8,1.28; stroke-dashoffset: 0; stroke: #b0b0b0; stroke-width: 0.8"/>
     </g>
     <g id="line2d_14">
      <g>
       <use xlink:href="#mb6a03be50b" x="526.11742" y="320.4" style="fill: #a9a9a9; stroke: #a9a9a9; stroke-width: 0.8"/>
      </g>
     </g>
     <g id="text_7">
      <!-- 2022-07 -->
      <g style="fill: #a9a9a9" transform="translate(505.226014 334.998438) scale(0.1 -0.1)">
       <use xlink:href="#DejaVuSans-32"/>
       <use xlink:href="#DejaVuSans-30" x="63.623047"/>
       <use xlink:href="#DejaVuSans-32" x="127.246094"/>
       <use xlink:href="#DejaVuSans-32" x="190.869141"/>
       <use xlink:href="#DejaVuSans-2d" x="254.492188"/>
       <use xlink:href="#DejaVuSans-30" x="290.576172"/>
       <use xlink:href="#DejaVuSans-37" x="354.199219"/>
      </g>
     </g>
    </g>
    <g id="xtick_8">
     <g id="line2d_15">
      <path d="M 596.398781 320.4 
L 596.398781 43.2 
" clip-path="url(#p5c953c9560)" style="fill: none; stroke-dasharray: 5.12,1.28,0.8,1.28; stroke-dashoffset: 0; stroke: #b0b0b0; stroke-width: 0.8"/>
     </g>
     <g id="line2d_16">
      <g>
       <use xlink:href="#mb6a03be50b" x="596.398781" y="320.4" style="fill: #a9a9a9; stroke: #a9a9a9; stroke-width: 0.8"/>
      </g>
     </g>
     <g id="text_8">
      <!-- 2022-09 -->
      <g style="fill: #a9a9a9" transform="translate(575.507375 334.998438) scale(0.1 -0.1)">
       <use xlink:href="#DejaVuSans-32"/>
       <use xlink:href="#DejaVuSans-30" x="63.623047"/>
       <use xlink:href="#DejaVuSans-32" x="127.246094"/>
       <use xlink:href="#DejaVuSans-32" x="190.869141"/>
       <use xlink:href="#DejaVuSans-2d" x="254.492188"/>
       <use xlink:href="#DejaVuSans-30" x="290.576172"/>
       <use xlink:href="#DejaVuSans-39" x="354.199219"/>
      </g>
     </g>
    </g>
    <g id="xtick_9">
     <g id="line2d_17">
      <path d="M 665.546572 320.4 
L 665.546572 43.2 
" clip-path="url(#p5c953c9560)" style="fill: none; stroke-dasharray: 5.12,1.28,0.8,1.28; stroke-dashoffset: 0; stroke: #b0b0b0; stroke-width: 0.8"/>
     </g>
     <g id="line2d_18">
      <g>
       <use xlink:href="#mb6a03be50b" x="665.546572" y="320.4" style="fill: #a9a9a9; stroke: #a9a9a9; stroke-width: 0.8"/>
      </g>
     </g>
     <g id="text_9">
      <!-- 2022-11 -->
      <g style="fill: #a9a9a9" transform="translate(644.655166 334.998438) scale(0.1 -0.1)">
       <use xlink:href="#DejaVuSans-32"/>
       <use xlink:href="#DejaVuSans-30" x="63.623047"/>
       <use xlink:href="#DejaVuSans-32" x="127.246094"/>
       <use xlink:href="#DejaVuSans-32" x="190.869141"/>
       <use xlink:href="#DejaVuSans-2d" x="254.492188"/>
       <use xlink:href="#DejaVuSans-31" x="290.576172"/>
       <use xlink:href="#DejaVuSans-31" x="354.199219"/>
      </g>
     </g>
    </g>
    <g id="xtick_10">
     <g id="line2d_19">
      <path d="M 734.694363 320.4 
L 734.694363 43.2 
" clip-path="url(#p5c953c9560)" style="fill: none; stroke-dasharray: 5.12,1.28,0.8,1.28; stroke-dashoffset: 0; stroke: #b0b0b0; stroke-width: 0.8"/>
     </g>
     <g id="line2d_20">
      <g>
       <use xlink:href="#mb6a03be50b" x="734.694363" y="320.4" style="fill: #a9a9a9; stroke: #a9a9a9; stroke-width: 0.8"/>
      </g>
     </g>
     <g id="text_10">
      <!-- 2023-01 -->
      <g style="fill: #a9a9a9" transform="translate(713.802956 334.998438) scale(0.1 -0.1)">
       <use xlink:href="#DejaVuSans-32"/>
       <use xlink:href="#DejaVuSans-30" x="63.623047"/>
       <use xlink:href="#DejaVuSans-32" x="127.246094"/>
       <use xlink:href="#DejaVuSans-33" x="190.869141"/>
       <use xlink:href="#DejaVuSans-2d" x="254.492188"/>
       <use xlink:href="#DejaVuSans-30" x="290.576172"/>
       <use xlink:href="#DejaVuSans-31" x="354.199219"/>
      </g>
     </g>
    </g>
   </g>
   <g id="matplotlib.axis_2">
    <g id="ytick_1">
     <g id="line2d_21">
      <path d="M 108 307.870966 
L 777.6 307.870966 
" clip-path="url(#p5c953c9560)" style="fill: none; stroke-dasharray: 5.12,1.28,0.8,1.28; stroke-dashoffset: 0; stroke: #b0b0b0; stroke-width: 0.8"/>
     </g>
     <g id="line2d_22">
      <defs>
       <path id="mcd48273cf3" d="M 0 0 
L -3.5 0 
" style="stroke: #a9a9a9; stroke-width: 0.8"/>
      </defs>
      <g>
       <use xlink:href="#mcd48273cf3" x="108" y="307.870966" style="fill: #a9a9a9; stroke: #a9a9a9; stroke-width: 0.8"/>
      </g>
     </g>
     <g id="text_11">
      <!-- 0 -->
      <g style="fill: #a9a9a9" transform="translate(94.6375 311.670185) scale(0.1 -0.1)">
       <use xlink:href="#DejaVuSans-30"/>
      </g>
     </g>
    </g>
    <g id="ytick_2">
     <g id="line2d_23">
      <path d="M 108 279.484596 
L 777.6 279.484596 
" clip-path="url(#p5c953c9560)" style="fill: none; stroke-dasharray: 5.12,1.28,0.8,1.28; stroke-dashoffset: 0; stroke: #b0b0b0; stroke-width: 0.8"/>
     </g>
     <g id="line2d_24">
      <g>
       <use xlink:href="#mcd48273cf3" x="108" y="279.484596" style="fill: #a9a9a9; stroke: #a9a9a9; stroke-width: 0.8"/>
      </g>
     </g>
     <g id="text_12">
      <!-- 400 -->
      <g style="fill: #a9a9a9" transform="translate(81.9125 283.283815) scale(0.1 -0.1)">
       <defs>
        <path id="DejaVuSans-34" d="M 2419 4116 
L 825 1625 
L 2419 1625 
L 2419 4116 
z
M 2253 4666 
L 3047 4666 
L 3047 1625 
L 3713 1625 
L 3713 1100 
L 3047 1100 
L 3047 0 
L 2419 0 
L 2419 1100 
L 313 1100 
L 313 1709 
L 2253 4666 
z
" transform="scale(0.015625)"/>
       </defs>
       <use xlink:href="#DejaVuSans-34"/>
       <use xlink:href="#DejaVuSans-30" x="63.623047"/>
       <use xlink:href="#DejaVuSans-30" x="127.246094"/>
      </g>
     </g>
    </g>
    <g id="ytick_3">
     <g id="line2d_25">
      <path d="M 108 251.098226 
L 777.6 251.098226 
" clip-path="url(#p5c953c9560)" style="fill: none; stroke-dasharray: 5.12,1.28,0.8,1.28; stroke-dashoffset: 0; stroke: #b0b0b0; stroke-width: 0.8"/>
     </g>
     <g id="line2d_26">
      <g>
       <use xlink:href="#mcd48273cf3" x="108" y="251.098226" style="fill: #a9a9a9; stroke: #a9a9a9; stroke-width: 0.8"/>
      </g>
     </g>
     <g id="text_13">
      <!-- 800 -->
      <g style="fill: #a9a9a9" transform="translate(81.9125 254.897445) scale(0.1 -0.1)">
       <defs>
        <path id="DejaVuSans-38" d="M 2034 2216 
Q 1584 2216 1326 1975 
Q 1069 1734 1069 1313 
Q 1069 891 1326 650 
Q 1584 409 2034 409 
Q 2484 409 2743 651 
Q 3003 894 3003 1313 
Q 3003 1734 2745 1975 
Q 2488 2216 2034 2216 
z
M 1403 2484 
Q 997 2584 770 2862 
Q 544 3141 544 3541 
Q 544 4100 942 4425 
Q 1341 4750 2034 4750 
Q 2731 4750 3128 4425 
Q 3525 4100 3525 3541 
Q 3525 3141 3298 2862 
Q 3072 2584 2669 2484 
Q 3125 2378 3379 2068 
Q 3634 1759 3634 1313 
Q 3634 634 3220 271 
Q 2806 -91 2034 -91 
Q 1263 -91 848 271 
Q 434 634 434 1313 
Q 434 1759 690 2068 
Q 947 2378 1403 2484 
z
M 1172 3481 
Q 1172 3119 1398 2916 
Q 1625 2713 2034 2713 
Q 2441 2713 2670 2916 
Q 2900 3119 2900 3481 
Q 2900 3844 2670 4047 
Q 2441 4250 2034 4250 
Q 1625 4250 1398 4047 
Q 1172 3844 1172 3481 
z
" transform="scale(0.015625)"/>
       </defs>
       <use xlink:href="#DejaVuSans-38"/>
       <use xlink:href="#DejaVuSans-30" x="63.623047"/>
       <use xlink:href="#DejaVuSans-30" x="127.246094"/>
      </g>
     </g>
    </g>
    <g id="ytick_4">
     <g id="line2d_27">
      <path d="M 108 222.711856 
L 777.6 222.711856 
" clip-path="url(#p5c953c9560)" style="fill: none; stroke-dasharray: 5.12,1.28,0.8,1.28; stroke-dashoffset: 0; stroke: #b0b0b0; stroke-width: 0.8"/>
     </g>
     <g id="line2d_28">
      <g>
       <use xlink:href="#mcd48273cf3" x="108" y="222.711856" style="fill: #a9a9a9; stroke: #a9a9a9; stroke-width: 0.8"/>
      </g>
     </g>
     <g id="text_14">
      <!-- 1200 -->
      <g style="fill: #a9a9a9" transform="translate(75.55 226.511075) scale(0.1 -0.1)">
       <use xlink:href="#DejaVuSans-31"/>
       <use xlink:href="#DejaVuSans-32" x="63.623047"/>
       <use xlink:href="#DejaVuSans-30" x="127.246094"/>
       <use xlink:href="#DejaVuSans-30" x="190.869141"/>
      </g>
     </g>
    </g>
    <g id="ytick_5">
     <g id="line2d_29">
      <path d="M 108 194.325486 
L 777.6 194.325486 
" clip-path="url(#p5c953c9560)" style="fill: none; stroke-dasharray: 5.12,1.28,0.8,1.28; stroke-dashoffset: 0; stroke: #b0b0b0; stroke-width: 0.8"/>
     </g>
     <g id="line2d_30">
      <g>
       <use xlink:href="#mcd48273cf3" x="108" y="194.325486" style="fill: #a9a9a9; stroke: #a9a9a9; stroke-width: 0.8"/>
      </g>
     </g>
     <g id="text_15">
      <!-- 1600 -->
      <g style="fill: #a9a9a9" transform="translate(75.55 198.124705) scale(0.1 -0.1)">
       <defs>
        <path id="DejaVuSans-36" d="M 2113 2584 
Q 1688 2584 1439 2293 
Q 1191 2003 1191 1497 
Q 1191 994 1439 701 
Q 1688 409 2113 409 
Q 2538 409 2786 701 
Q 3034 994 3034 1497 
Q 3034 2003 2786 2293 
Q 2538 2584 2113 2584 
z
M 3366 4563 
L 3366 3988 
Q 3128 4100 2886 4159 
Q 2644 4219 2406 4219 
Q 1781 4219 1451 3797 
Q 1122 3375 1075 2522 
Q 1259 2794 1537 2939 
Q 1816 3084 2150 3084 
Q 2853 3084 3261 2657 
Q 3669 2231 3669 1497 
Q 3669 778 3244 343 
Q 2819 -91 2113 -91 
Q 1303 -91 875 529 
Q 447 1150 447 2328 
Q 447 3434 972 4092 
Q 1497 4750 2381 4750 
Q 2619 4750 2861 4703 
Q 3103 4656 3366 4563 
z
" transform="scale(0.015625)"/>
       </defs>
       <use xlink:href="#DejaVuSans-31"/>
       <use xlink:href="#DejaVuSans-36" x="63.623047"/>
       <use xlink:href="#DejaVuSans-30" x="127.246094"/>
       <use xlink:href="#DejaVuSans-30" x="190.869141"/>
      </g>
     </g>
    </g>
    <g id="ytick_6">
     <g id="line2d_31">
      <path d="M 108 165.939116 
L 777.6 165.939116 
" clip-path="url(#p5c953c9560)" style="fill: none; stroke-dasharray: 5.12,1.28,0.8,1.28; stroke-dashoffset: 0; stroke: #b0b0b0; stroke-width: 0.8"/>
     </g>
     <g id="line2d_32">
      <g>
       <use xlink:href="#mcd48273cf3" x="108" y="165.939116" style="fill: #a9a9a9; stroke: #a9a9a9; stroke-width: 0.8"/>
      </g>
     </g>
     <g id="text_16">
      <!-- 2000 -->
      <g style="fill: #a9a9a9" transform="translate(75.55 169.738334) scale(0.1 -0.1)">
       <use xlink:href="#DejaVuSans-32"/>
       <use xlink:href="#DejaVuSans-30" x="63.623047"/>
       <use xlink:href="#DejaVuSans-30" x="127.246094"/>
       <use xlink:href="#DejaVuSans-30" x="190.869141"/>
      </g>
     </g>
    </g>
    <g id="ytick_7">
     <g id="line2d_33">
      <path d="M 108 137.552746 
L 777.6 137.552746 
" clip-path="url(#p5c953c9560)" style="fill: none; stroke-dasharray: 5.12,1.28,0.8,1.28; stroke-dashoffset: 0; stroke: #b0b0b0; stroke-width: 0.8"/>
     </g>
     <g id="line2d_34">
      <g>
       <use xlink:href="#mcd48273cf3" x="108" y="137.552746" style="fill: #a9a9a9; stroke: #a9a9a9; stroke-width: 0.8"/>
      </g>
     </g>
     <g id="text_17">
      <!-- 2400 -->
      <g style="fill: #a9a9a9" transform="translate(75.55 141.351964) scale(0.1 -0.1)">
       <use xlink:href="#DejaVuSans-32"/>
       <use xlink:href="#DejaVuSans-34" x="63.623047"/>
       <use xlink:href="#DejaVuSans-30" x="127.246094"/>
       <use xlink:href="#DejaVuSans-30" x="190.869141"/>
      </g>
     </g>
    </g>
    <g id="ytick_8">
     <g id="line2d_35">
      <path d="M 108 109.166376 
L 777.6 109.166376 
" clip-path="url(#p5c953c9560)" style="fill: none; stroke-dasharray: 5.12,1.28,0.8,1.28; stroke-dashoffset: 0; stroke: #b0b0b0; stroke-width: 0.8"/>
     </g>
     <g id="line2d_36">
      <g>
       <use xlink:href="#mcd48273cf3" x="108" y="109.166376" style="fill: #a9a9a9; stroke: #a9a9a9; stroke-width: 0.8"/>
      </g>
     </g>
     <g id="text_18">
      <!-- 2800 -->
      <g style="fill: #a9a9a9" transform="translate(75.55 112.965594) scale(0.1 -0.1)">
       <use xlink:href="#DejaVuSans-32"/>
       <use xlink:href="#DejaVuSans-38" x="63.623047"/>
       <use xlink:href="#DejaVuSans-30" x="127.246094"/>
       <use xlink:href="#DejaVuSans-30" x="190.869141"/>
      </g>
     </g>
    </g>
    <g id="ytick_9">
     <g id="line2d_37">
      <path d="M 108 80.780006 
L 777.6 80.780006 
" clip-path="url(#p5c953c9560)" style="fill: none; stroke-dasharray: 5.12,1.28,0.8,1.28; stroke-dashoffset: 0; stroke: #b0b0b0; stroke-width: 0.8"/>
     </g>
     <g id="line2d_38">
      <g>
       <use xlink:href="#mcd48273cf3" x="108" y="80.780006" style="fill: #a9a9a9; stroke: #a9a9a9; stroke-width: 0.8"/>
      </g>
     </g>
     <g id="text_19">
      <!-- 3200 -->
      <g style="fill: #a9a9a9" transform="translate(75.55 84.579224) scale(0.1 -0.1)">
       <use xlink:href="#DejaVuSans-33"/>
       <use xlink:href="#DejaVuSans-32" x="63.623047"/>
       <use xlink:href="#DejaVuSans-30" x="127.246094"/>
       <use xlink:href="#DejaVuSans-30" x="190.869141"/>
      </g>
     </g>
    </g>
    <g id="ytick_10">
     <g id="line2d_39">
      <path d="M 108 52.393636 
L 777.6 52.393636 
" clip-path="url(#p5c953c9560)" style="fill: none; stroke-dasharray: 5.12,1.28,0.8,1.28; stroke-dashoffset: 0; stroke: #b0b0b0; stroke-width: 0.8"/>
     </g>
     <g id="line2d_40">
      <g>
       <use xlink:href="#mcd48273cf3" x="108" y="52.393636" style="fill: #a9a9a9; stroke: #a9a9a9; stroke-width: 0.8"/>
      </g>
     </g>
     <g id="text_20">
      <!-- 3600 -->
      <g style="fill: #a9a9a9" transform="translate(75.55 56.192854) scale(0.1 -0.1)">
       <use xlink:href="#DejaVuSans-33"/>
       <use xlink:href="#DejaVuSans-36" x="63.623047"/>
       <use xlink:href="#DejaVuSans-30" x="127.246094"/>
       <use xlink:href="#DejaVuSans-30" x="190.869141"/>
      </g>
     </g>
    </g>
   </g>
   <g id="line2d_41">
    <path d="M 138.436364 307.587102 
L 142.970645 307.232273 
L 144.104215 307.090341 
L 145.237786 307.090341 
L 146.371356 306.664545 
L 148.638497 306.522613 
L 156.573489 305.032329 
L 158.84063 304.890397 
L 159.9742 304.677499 
L 163.374911 304.464602 
L 164.508481 303.896874 
L 165.642052 303.61301 
L 166.775622 302.335624 
L 167.909192 301.625965 
L 169.042763 299.142157 
L 170.176333 299.000225 
L 171.309904 298.2196 
L 172.443474 297.793805 
L 173.577044 297.226077 
L 176.977755 294.600338 
L 178.111326 294.032611 
L 180.378466 293.181019 
L 181.512037 292.400394 
L 182.645607 291.974599 
L 184.912748 290.626246 
L 186.046318 290.271417 
L 187.179888 288.568234 
L 188.313459 287.716643 
L 189.447029 287.07795 
L 190.580599 286.581188 
L 195.114881 285.942495 
L 198.515592 285.374768 
L 200.782732 285.232836 
L 201.916303 285.019938 
L 203.049873 284.452211 
L 207.584154 284.097381 
L 210.984865 283.742551 
L 212.118436 283.387722 
L 217.786287 282.323233 
L 220.053428 282.110335 
L 221.186998 281.826471 
L 224.587709 281.400676 
L 225.72128 280.832948 
L 226.85485 280.691017 
L 229.121991 279.910391 
L 231.389132 279.697494 
L 232.522702 279.342664 
L 237.056983 278.703971 
L 238.190554 278.349141 
L 240.457694 277.994311 
L 241.591265 277.994311 
L 247.259116 277.284652 
L 249.526257 276.645959 
L 250.659827 276.362095 
L 252.926968 276.149197 
L 254.060538 276.078231 
L 257.461249 275.439538 
L 258.59482 275.013743 
L 259.72839 273.594424 
L 260.86196 273.168629 
L 261.995531 272.600901 
L 263.129101 272.458969 
L 264.262671 272.175106 
L 265.396242 272.033174 
L 267.663382 271.110617 
L 268.796953 271.039651 
L 274.464804 269.620332 
L 275.598375 269.620332 
L 277.865515 269.336469 
L 280.132656 268.697775 
L 283.533367 267.846184 
L 284.666938 267.775218 
L 286.934078 266.852661 
L 288.067649 266.710729 
L 289.201219 266.213968 
L 291.46836 266.00107 
L 292.60193 265.930104 
L 296.002641 265.362377 
L 298.269782 265.007547 
L 301.670493 264.368854 
L 302.804063 264.014024 
L 303.937633 263.872092 
L 306.204774 263.091467 
L 307.338344 262.452774 
L 308.471915 262.16891 
L 309.605485 262.026978 
L 311.872626 261.317319 
L 314.139766 260.110898 
L 315.273337 259.401239 
L 316.406907 259.259307 
L 317.540477 258.904478 
L 318.674048 258.762546 
L 319.807618 258.478682 
L 320.941188 258.33675 
L 322.074759 257.839989 
L 324.341899 257.485159 
L 325.47547 256.917432 
L 326.60904 256.491636 
L 327.74261 256.207772 
L 328.876181 256.065841 
L 330.009751 255.640045 
L 334.544033 254.788454 
L 336.811173 253.865897 
L 337.944744 253.652999 
L 339.078314 253.227204 
L 340.211884 253.085272 
L 341.345455 252.58851 
L 342.479025 252.304647 
L 344.746166 252.162715 
L 347.013306 251.453055 
L 348.146877 251.311124 
L 349.280447 251.311124 
L 350.414017 250.814362 
L 352.681158 250.459533 
L 353.814728 250.033737 
L 356.081869 249.962771 
L 357.215439 249.820839 
L 358.34901 249.820839 
L 360.61615 249.46601 
L 362.883291 248.401521 
L 365.150432 247.407998 
L 366.284002 247.124134 
L 367.417572 246.414475 
L 368.551143 246.059645 
L 370.818283 245.066122 
L 371.951854 244.853224 
L 373.085424 244.356463 
L 374.218994 244.001633 
L 375.352565 243.291974 
L 376.486135 242.724247 
L 377.619705 241.588792 
L 378.753276 239.814644 
L 379.886846 238.466291 
L 381.020416 238.111462 
L 382.153987 238.111462 
L 383.287557 237.401802 
L 384.421127 236.550211 
L 385.554698 236.266348 
L 386.688268 235.69862 
L 387.821838 235.485722 
L 388.955409 234.492199 
L 390.088979 234.208336 
L 393.48969 232.718051 
L 394.623261 231.440665 
L 395.756831 229.808448 
L 396.890401 229.169755 
L 398.023972 227.395607 
L 399.157542 226.331118 
L 400.291112 225.834357 
L 401.424683 225.550493 
L 402.558253 224.840834 
L 404.825394 223.776345 
L 405.958964 222.99572 
L 408.226105 221.292537 
L 409.359675 220.653844 
L 410.493245 219.16356 
L 411.626816 216.679752 
L 412.760386 215.118502 
L 413.893956 214.266911 
L 415.027527 213.770149 
L 422.962519 207.454182 
L 424.096089 205.892932 
L 425.22966 204.899409 
L 427.4968 203.409124 
L 429.763941 201.91884 
L 430.897511 201.138215 
L 432.031082 200.215658 
L 433.164652 199.931794 
L 434.298222 199.435032 
L 435.431793 198.796339 
L 436.565363 198.299578 
L 438.832504 197.093157 
L 439.966074 196.596395 
L 442.233215 194.680315 
L 443.366785 193.331963 
L 444.500356 192.551338 
L 445.633926 191.912644 
L 446.767496 191.628781 
L 447.901067 191.061053 
L 449.034637 190.280428 
L 451.301778 189.144973 
L 452.435348 188.932075 
L 453.568918 188.222416 
L 455.836059 187.086961 
L 456.969629 186.022473 
L 458.1032 185.241847 
L 459.23677 184.887018 
L 460.37034 184.177358 
L 461.503911 183.680597 
L 462.637481 182.970938 
L 463.771051 182.545142 
L 464.904622 181.835483 
L 466.038192 180.912926 
L 468.305333 180.132301 
L 469.438903 179.635539 
L 470.572473 179.422642 
L 471.706044 178.712982 
L 472.839614 178.500084 
L 475.106755 177.719459 
L 476.240325 177.36463 
L 478.507466 176.442073 
L 479.641036 176.016277 
L 480.774606 175.732413 
L 481.908177 175.306618 
L 484.175317 174.951788 
L 486.442458 173.106674 
L 487.576028 172.680879 
L 489.843169 171.474458 
L 492.11031 170.268037 
L 494.37745 169.629344 
L 495.511021 168.777753 
L 496.644591 168.493889 
L 498.911732 167.074571 
L 500.045302 166.506843 
L 503.446013 165.797184 
L 505.713154 165.158491 
L 509.113865 163.313377 
L 510.247435 163.171445 
L 511.381006 162.745649 
L 512.514576 162.603717 
L 513.648146 162.177922 
L 514.781717 161.468262 
L 515.915287 160.616671 
L 517.048857 159.907012 
L 518.182428 159.694114 
L 519.315998 159.268319 
L 520.449568 159.126387 
L 521.583139 158.700591 
L 522.716709 157.919966 
L 523.850279 157.565137 
L 524.98385 157.068375 
L 529.518131 155.861954 
L 530.651701 155.790988 
L 531.785272 155.436159 
L 534.052412 154.442636 
L 535.185983 154.087806 
L 536.319553 153.874908 
L 537.453123 153.378147 
L 538.586694 153.023317 
L 539.720264 152.526556 
L 541.987405 151.887863 
L 543.120975 151.816897 
L 545.388116 151.320135 
L 546.521686 150.823374 
L 547.655256 150.610476 
L 549.922397 149.687919 
L 553.323108 148.126669 
L 555.590249 146.70735 
L 556.723819 146.423486 
L 557.85739 145.784793 
L 558.99096 145.358997 
L 560.12453 144.720304 
L 562.391671 144.152577 
L 563.525241 143.513883 
L 564.658812 143.017122 
L 565.792382 142.662292 
L 568.059523 142.307463 
L 569.193093 141.526838 
L 570.326663 140.95911 
L 571.460234 140.746212 
L 572.593804 140.320417 
L 573.727374 139.752689 
L 574.860945 139.539792 
L 575.994515 138.972064 
L 580.528796 138.333371 
L 582.795937 137.339848 
L 583.929507 136.488257 
L 585.063078 134.572177 
L 586.196648 134.288313 
L 587.330218 134.146381 
L 588.463789 133.862518 
L 590.730929 132.656097 
L 591.8645 132.230301 
L 592.99807 131.662574 
L 594.13164 131.37871 
L 596.398781 130.314221 
L 598.665922 129.249732 
L 600.933062 128.327175 
L 602.066633 127.617516 
L 603.200203 127.191721 
L 604.333773 126.907857 
L 605.467344 126.765925 
L 606.600914 126.482061 
L 608.868055 125.417573 
L 610.001625 124.920811 
L 611.135196 124.707913 
L 614.535907 123.430527 
L 616.803047 122.082174 
L 617.936618 121.372515 
L 619.070188 120.804787 
L 620.203758 120.59189 
L 621.337329 120.23706 
L 622.470899 120.166094 
L 627.00518 118.746776 
L 628.138751 118.67581 
L 629.272321 117.895184 
L 630.405891 117.611321 
L 631.539462 117.114559 
L 634.940173 116.121036 
L 636.073743 115.482343 
L 637.207313 115.127513 
L 638.340884 114.417854 
L 639.474454 113.921093 
L 640.608024 113.282399 
L 646.275876 111.153422 
L 647.409446 110.514728 
L 648.543017 109.734103 
L 649.676587 108.527682 
L 650.810157 107.818023 
L 651.943728 107.605125 
L 654.210868 105.901943 
L 655.344439 105.547113 
L 656.478009 103.914897 
L 657.611579 103.489102 
L 658.74515 102.708476 
L 659.87872 102.495579 
L 661.012291 101.785919 
L 662.145861 101.289158 
L 663.279431 101.07626 
L 664.413002 100.650465 
L 665.546572 99.727908 
L 666.680142 99.373078 
L 668.947283 97.882794 
L 670.080853 97.173134 
L 671.214424 96.676373 
L 673.481564 95.469952 
L 674.615135 94.973191 
L 675.748705 94.831259 
L 676.882275 94.405463 
L 678.015846 93.837736 
L 679.149416 93.128077 
L 680.282986 91.424894 
L 681.416557 90.360406 
L 682.550127 89.721712 
L 683.683697 89.437848 
L 685.950838 88.160462 
L 687.084408 87.947564 
L 688.217979 87.379837 
L 691.61869 86.031484 
L 692.75226 85.463757 
L 695.019401 83.902506 
L 697.286541 81.631597 
L 698.420112 80.780006 
L 700.687252 79.431653 
L 701.820823 78.367164 
L 705.221534 75.812391 
L 706.355104 75.244663 
L 707.488674 74.038243 
L 708.622245 73.257618 
L 710.889385 72.476992 
L 712.022956 71.412504 
L 714.290096 70.348015 
L 715.423667 70.064151 
L 716.557237 69.283526 
L 717.690808 68.928696 
L 719.957948 67.935173 
L 722.225089 66.302957 
L 723.358659 65.73523 
L 725.6258 65.096536 
L 726.75937 64.457843 
L 731.293652 62.967558 
L 733.560792 62.045001 
L 734.694363 61.477274 
L 735.827933 60.554717 
L 740.362214 58.638637 
L 741.495785 58.212841 
L 742.629355 57.432216 
L 744.896496 56.438693 
L 746.030066 55.8 
L 747.163636 55.8 
L 747.163636 55.8 
" clip-path="url(#p5c953c9560)" style="fill: none; stroke: #1f77b4; stroke-width: 1.5; stroke-linecap: square"/>
   </g>
   <g id="line2d_42">
    <path d="M 139.569934 307.8 
L 141.837075 307.8 
L 144.104215 307.516136 
L 150.905637 307.44517 
L 154.306348 307.303239 
L 157.707059 307.232273 
L 159.9742 307.161307 
L 163.374911 307.161307 
L 164.508481 306.877443 
L 167.909192 306.806477 
L 173.577044 306.167784 
L 182.645607 305.671022 
L 183.779177 305.671022 
L 184.912748 305.458124 
L 188.313459 305.387159 
L 190.580599 305.103295 
L 195.114881 305.103295 
L 196.248451 304.961363 
L 201.916303 304.890397 
L 205.317014 304.748465 
L 215.519147 304.677499 
L 217.786287 304.606533 
L 222.320569 304.535567 
L 225.72128 304.393636 
L 230.255561 304.393636 
L 231.389132 304.251704 
L 234.789843 304.180738 
L 239.324124 303.96784 
L 247.259116 303.896874 
L 249.526257 303.825908 
L 254.060538 303.754942 
L 257.461249 303.329147 
L 263.129101 303.258181 
L 268.796953 302.974317 
L 274.464804 302.903351 
L 277.865515 302.761419 
L 280.132656 302.690453 
L 282.399797 302.477556 
L 286.934078 302.264658 
L 290.334789 302.193692 
L 292.60193 302.122726 
L 294.869071 302.122726 
L 296.002641 301.980794 
L 299.403352 301.980794 
L 301.670493 301.767896 
L 305.071204 301.625965 
L 310.739055 301.554999 
L 315.273337 301.058237 
L 316.406907 300.987271 
L 317.540477 300.774373 
L 322.074759 300.703407 
L 325.47547 300.419544 
L 327.74261 300.206646 
L 333.410462 299.922782 
L 336.811173 299.851816 
L 340.211884 299.709885 
L 341.345455 299.709885 
L 343.612595 299.496987 
L 345.879736 299.426021 
L 347.013306 299.426021 
L 348.146877 299.284089 
L 350.414017 299.213123 
L 356.081869 298.929259 
L 358.34901 298.858293 
L 361.749721 298.716362 
L 365.150432 298.645396 
L 367.417572 298.57443 
L 373.085424 298.503464 
L 377.619705 298.006702 
L 378.753276 298.006702 
L 381.020416 297.793805 
L 383.287557 297.722839 
L 388.955409 297.297043 
L 390.088979 297.013179 
L 392.35612 296.871248 
L 393.48969 296.587384 
L 396.890401 296.30352 
L 399.157542 295.806759 
L 401.424683 295.735793 
L 403.691823 295.735793 
L 404.825394 295.593861 
L 405.958964 295.593861 
L 408.226105 295.239031 
L 412.760386 294.458406 
L 413.893956 294.458406 
L 415.027527 294.316474 
L 418.428238 294.245508 
L 433.164652 293.322951 
L 434.298222 293.110054 
L 437.698933 292.897156 
L 439.966074 292.542326 
L 442.233215 292.329428 
L 444.500356 292.258462 
L 446.767496 292.258462 
L 447.901067 291.974599 
L 449.034637 291.832667 
L 453.568918 291.761701 
L 455.836059 291.548803 
L 456.969629 291.548803 
L 460.37034 291.052042 
L 461.503911 290.768178 
L 462.637481 290.626246 
L 464.904622 290.55528 
L 470.572473 290.271417 
L 473.973184 290.200451 
L 488.709599 289.348859 
L 490.976739 289.348859 
L 493.24388 289.135962 
L 495.511021 289.135962 
L 498.911732 288.781132 
L 503.446013 288.568234 
L 505.713154 288.497268 
L 506.846724 288.355337 
L 511.381006 288.284371 
L 519.315998 287.858575 
L 524.98385 287.787609 
L 527.25099 287.716643 
L 528.384561 287.716643 
L 529.518131 287.503745 
L 531.785272 287.432779 
L 538.586694 287.361814 
L 541.987405 287.219882 
L 546.521686 287.148916 
L 547.655256 286.936018 
L 554.456679 286.865052 
L 556.723819 286.794086 
L 558.99096 286.72312 
L 561.258101 286.652154 
L 563.525241 286.581188 
L 572.593804 286.084427 
L 578.261656 286.013461 
L 581.662367 285.729597 
L 583.929507 285.5167 
L 586.196648 285.445734 
L 588.463789 285.374768 
L 589.597359 285.232836 
L 592.99807 285.16187 
L 594.13164 284.878006 
L 598.665922 284.665108 
L 608.868055 284.594142 
L 614.535907 284.168347 
L 617.936618 283.813517 
L 623.604469 283.742551 
L 627.00518 283.387722 
L 633.806602 283.032892 
L 636.073743 282.961926 
L 640.608024 282.749028 
L 645.142306 282.678063 
L 648.543017 282.536131 
L 653.077298 282.465165 
L 656.478009 282.110335 
L 658.74515 282.039369 
L 663.279431 281.968403 
L 666.680142 281.68454 
L 667.813713 281.542608 
L 668.947283 281.542608 
L 670.080853 281.32971 
L 672.347994 281.258744 
L 676.882275 281.187778 
L 679.149416 280.832948 
L 689.351549 280.761983 
L 691.61869 280.549085 
L 692.75226 280.407153 
L 695.019401 280.336187 
L 697.286541 280.265221 
L 698.420112 279.981357 
L 700.687252 279.910391 
L 701.820823 279.697494 
L 704.087963 279.697494 
L 707.488674 279.342664 
L 732.427222 277.85238 
L 742.629355 277.781414 
L 744.896496 277.710448 
L 747.163636 277.710448 
L 747.163636 277.710448 
" clip-path="url(#p5c953c9560)" style="fill: none; stroke: #ff7f0e; stroke-width: 1.5; stroke-linecap: square"/>
   </g>
   <g id="patch_3">
    <path d="M 108 320.4 
L 108 43.2 
" style="fill: none; stroke: #a9a9a9; stroke-width: 0.8; stroke-linejoin: miter; stroke-linecap: square"/>
   </g>
   <g id="patch_4">
    <path d="M 777.6 320.4 
L 777.6 43.2 
" style="fill: none"/>
   </g>
   <g id="patch_5">
    <path d="M 108 320.4 
L 777.6 320.4 
" style="fill: none; stroke: #a9a9a9; stroke-width: 0.8; stroke-linejoin: miter; stroke-linecap: square"/>
   </g>
   <g id="patch_6">
    <path d="M 108 43.2 
L 777.6 43.2 
" style="fill: none"/>
   </g>
   <g id="text_21">
    <!-- get_subscribe history -->
    <g style="fill: #a9a9a9" transform="translate(378.6075 37.2) scale(0.12 -0.12)">
     <defs>
      <path id="DejaVuSans-67" d="M 2906 1791 
Q 2906 2416 2648 2759 
Q 2391 3103 1925 3103 
Q 1463 3103 1205 2759 
Q 947 2416 947 1791 
Q 947 1169 1205 825 
Q 1463 481 1925 481 
Q 2391 481 2648 825 
Q 2906 1169 2906 1791 
z
M 3481 434 
Q 3481 -459 3084 -895 
Q 2688 -1331 1869 -1331 
Q 1566 -1331 1297 -1286 
Q 1028 -1241 775 -1147 
L 775 -588 
Q 1028 -725 1275 -790 
Q 1522 -856 1778 -856 
Q 2344 -856 2625 -561 
Q 2906 -266 2906 331 
L 2906 616 
Q 2728 306 2450 153 
Q 2172 0 1784 0 
Q 1141 0 747 490 
Q 353 981 353 1791 
Q 353 2603 747 3093 
Q 1141 3584 1784 3584 
Q 2172 3584 2450 3431 
Q 2728 3278 2906 2969 
L 2906 3500 
L 3481 3500 
L 3481 434 
z
" transform="scale(0.015625)"/>
      <path id="DejaVuSans-65" d="M 3597 1894 
L 3597 1613 
L 953 1613 
Q 991 1019 1311 708 
Q 1631 397 2203 397 
Q 2534 397 2845 478 
Q 3156 559 3463 722 
L 3463 178 
Q 3153 47 2828 -22 
Q 2503 -91 2169 -91 
Q 1331 -91 842 396 
Q 353 884 353 1716 
Q 353 2575 817 3079 
Q 1281 3584 2069 3584 
Q 2775 3584 3186 3129 
Q 3597 2675 3597 1894 
z
M 3022 2063 
Q 3016 2534 2758 2815 
Q 2500 3097 2075 3097 
Q 1594 3097 1305 2825 
Q 1016 2553 972 2059 
L 3022 2063 
z
" transform="scale(0.015625)"/>
      <path id="DejaVuSans-74" d="M 1172 4494 
L 1172 3500 
L 2356 3500 
L 2356 3053 
L 1172 3053 
L 1172 1153 
Q 1172 725 1289 603 
Q 1406 481 1766 481 
L 2356 481 
L 2356 0 
L 1766 0 
Q 1100 0 847 248 
Q 594 497 594 1153 
L 594 3053 
L 172 3053 
L 172 3500 
L 594 3500 
L 594 4494 
L 1172 4494 
z
" transform="scale(0.015625)"/>
      <path id="DejaVuSans-5f" d="M 3263 -1063 
L 3263 -1509 
L -63 -1509 
L -63 -1063 
L 3263 -1063 
z
" transform="scale(0.015625)"/>
      <path id="DejaVuSans-73" d="M 2834 3397 
L 2834 2853 
Q 2591 2978 2328 3040 
Q 2066 3103 1784 3103 
Q 1356 3103 1142 2972 
Q 928 2841 928 2578 
Q 928 2378 1081 2264 
Q 1234 2150 1697 2047 
L 1894 2003 
Q 2506 1872 2764 1633 
Q 3022 1394 3022 966 
Q 3022 478 2636 193 
Q 2250 -91 1575 -91 
Q 1294 -91 989 -36 
Q 684 19 347 128 
L 347 722 
Q 666 556 975 473 
Q 1284 391 1588 391 
Q 1994 391 2212 530 
Q 2431 669 2431 922 
Q 2431 1156 2273 1281 
Q 2116 1406 1581 1522 
L 1381 1569 
Q 847 1681 609 1914 
Q 372 2147 372 2553 
Q 372 3047 722 3315 
Q 1072 3584 1716 3584 
Q 2034 3584 2315 3537 
Q 2597 3491 2834 3397 
z
" transform="scale(0.015625)"/>
      <path id="DejaVuSans-75" d="M 544 1381 
L 544 3500 
L 1119 3500 
L 1119 1403 
Q 1119 906 1312 657 
Q 1506 409 1894 409 
Q 2359 409 2629 706 
Q 2900 1003 2900 1516 
L 2900 3500 
L 3475 3500 
L 3475 0 
L 2900 0 
L 2900 538 
Q 2691 219 2414 64 
Q 2138 -91 1772 -91 
Q 1169 -91 856 284 
Q 544 659 544 1381 
z
M 1991 3584 
L 1991 3584 
z
" transform="scale(0.015625)"/>
      <path id="DejaVuSans-62" d="M 3116 1747 
Q 3116 2381 2855 2742 
Q 2594 3103 2138 3103 
Q 1681 3103 1420 2742 
Q 1159 2381 1159 1747 
Q 1159 1113 1420 752 
Q 1681 391 2138 391 
Q 2594 391 2855 752 
Q 3116 1113 3116 1747 
z
M 1159 2969 
Q 1341 3281 1617 3432 
Q 1894 3584 2278 3584 
Q 2916 3584 3314 3078 
Q 3713 2572 3713 1747 
Q 3713 922 3314 415 
Q 2916 -91 2278 -91 
Q 1894 -91 1617 61 
Q 1341 213 1159 525 
L 1159 0 
L 581 0 
L 581 4863 
L 1159 4863 
L 1159 2969 
z
" transform="scale(0.015625)"/>
      <path id="DejaVuSans-63" d="M 3122 3366 
L 3122 2828 
Q 2878 2963 2633 3030 
Q 2388 3097 2138 3097 
Q 1578 3097 1268 2742 
Q 959 2388 959 1747 
Q 959 1106 1268 751 
Q 1578 397 2138 397 
Q 2388 397 2633 464 
Q 2878 531 3122 666 
L 3122 134 
Q 2881 22 2623 -34 
Q 2366 -91 2075 -91 
Q 1284 -91 818 406 
Q 353 903 353 1747 
Q 353 2603 823 3093 
Q 1294 3584 2113 3584 
Q 2378 3584 2631 3529 
Q 2884 3475 3122 3366 
z
" transform="scale(0.015625)"/>
      <path id="DejaVuSans-72" d="M 2631 2963 
Q 2534 3019 2420 3045 
Q 2306 3072 2169 3072 
Q 1681 3072 1420 2755 
Q 1159 2438 1159 1844 
L 1159 0 
L 581 0 
L 581 3500 
L 1159 3500 
L 1159 2956 
Q 1341 3275 1631 3429 
Q 1922 3584 2338 3584 
Q 2397 3584 2469 3576 
Q 2541 3569 2628 3553 
L 2631 2963 
z
" transform="scale(0.015625)"/>
      <path id="DejaVuSans-69" d="M 603 3500 
L 1178 3500 
L 1178 0 
L 603 0 
L 603 3500 
z
M 603 4863 
L 1178 4863 
L 1178 4134 
L 603 4134 
L 603 4863 
z
" transform="scale(0.015625)"/>
      <path id="DejaVuSans-20" transform="scale(0.015625)"/>
      <path id="DejaVuSans-68" d="M 3513 2113 
L 3513 0 
L 2938 0 
L 2938 2094 
Q 2938 2591 2744 2837 
Q 2550 3084 2163 3084 
Q 1697 3084 1428 2787 
Q 1159 2491 1159 1978 
L 1159 0 
L 581 0 
L 581 4863 
L 1159 4863 
L 1159 2956 
Q 1366 3272 1645 3428 
Q 1925 3584 2291 3584 
Q 2894 3584 3203 3211 
Q 3513 2838 3513 2113 
z
" transform="scale(0.015625)"/>
      <path id="DejaVuSans-6f" d="M 1959 3097 
Q 1497 3097 1228 2736 
Q 959 2375 959 1747 
Q 959 1119 1226 758 
Q 1494 397 1959 397 
Q 2419 397 2687 759 
Q 2956 1122 2956 1747 
Q 2956 2369 2687 2733 
Q 2419 3097 1959 3097 
z
M 1959 3584 
Q 2709 3584 3137 3096 
Q 3566 2609 3566 1747 
Q 3566 888 3137 398 
Q 2709 -91 1959 -91 
Q 1206 -91 779 398 
Q 353 888 353 1747 
Q 353 2609 779 3096 
Q 1206 3584 1959 3584 
z
" transform="scale(0.015625)"/>
      <path id="DejaVuSans-79" d="M 2059 -325 
Q 1816 -950 1584 -1140 
Q 1353 -1331 966 -1331 
L 506 -1331 
L 506 -850 
L 844 -850 
Q 1081 -850 1212 -737 
Q 1344 -625 1503 -206 
L 1606 56 
L 191 3500 
L 800 3500 
L 1894 763 
L 2988 3500 
L 3597 3500 
L 2059 -325 
z
" transform="scale(0.015625)"/>
     </defs>
     <use xlink:href="#DejaVuSans-67"/>
     <use xlink:href="#DejaVuSans-65" x="63.476562"/>
     <use xlink:href="#DejaVuSans-74" x="125"/>
     <use xlink:href="#DejaVuSans-5f" x="164.208984"/>
     <use xlink:href="#DejaVuSans-73" x="214.208984"/>
     <use xlink:href="#DejaVuSans-75" x="266.308594"/>
     <use xlink:href="#DejaVuSans-62" x="329.6875"/>
     <use xlink:href="#DejaVuSans-73" x="393.164062"/>
     <use xlink:href="#DejaVuSans-63" x="445.263672"/>
     <use xlink:href="#DejaVuSans-72" x="500.244141"/>
     <use xlink:href="#DejaVuSans-69" x="541.357422"/>
     <use xlink:href="#DejaVuSans-62" x="569.140625"/>
     <use xlink:href="#DejaVuSans-65" x="632.617188"/>
     <use xlink:href="#DejaVuSans-20" x="694.140625"/>
     <use xlink:href="#DejaVuSans-68" x="725.927734"/>
     <use xlink:href="#DejaVuSans-69" x="789.306641"/>
     <use xlink:href="#DejaVuSans-73" x="817.089844"/>
     <use xlink:href="#DejaVuSans-74" x="869.189453"/>
     <use xlink:href="#DejaVuSans-6f" x="908.398438"/>
     <use xlink:href="#DejaVuSans-72" x="969.580078"/>
     <use xlink:href="#DejaVuSans-79" x="1010.693359"/>
    </g>
   </g>
   <g id="legend_1">
    <g id="line2d_43">
     <path d="M 815.08 328.498438 
L 825.08 328.498438 
L 835.08 328.498438 
" style="fill: none; stroke: #1f77b4; stroke-width: 1.5; stroke-linecap: square"/>
    </g>
    <g id="text_22">
     <!-- star -->
     <g style="fill: #a9a9a9" transform="translate(843.08 331.998438) scale(0.1 -0.1)">
      <defs>
       <path id="DejaVuSans-61" d="M 2194 1759 
Q 1497 1759 1228 1600 
Q 959 1441 959 1056 
Q 959 750 1161 570 
Q 1363 391 1709 391 
Q 2188 391 2477 730 
Q 2766 1069 2766 1631 
L 2766 1759 
L 2194 1759 
z
M 3341 1997 
L 3341 0 
L 2766 0 
L 2766 531 
Q 2569 213 2275 61 
Q 1981 -91 1556 -91 
Q 1019 -91 701 211 
Q 384 513 384 1019 
Q 384 1609 779 1909 
Q 1175 2209 1959 2209 
L 2766 2209 
L 2766 2266 
Q 2766 2663 2505 2880 
Q 2244 3097 1772 3097 
Q 1472 3097 1187 3025 
Q 903 2953 641 2809 
L 641 3341 
Q 956 3463 1253 3523 
Q 1550 3584 1831 3584 
Q 2591 3584 2966 3190 
Q 3341 2797 3341 1997 
z
" transform="scale(0.015625)"/>
      </defs>
      <use xlink:href="#DejaVuSans-73"/>
      <use xlink:href="#DejaVuSans-74" x="52.099609"/>
      <use xlink:href="#DejaVuSans-61" x="91.308594"/>
      <use xlink:href="#DejaVuSans-72" x="152.587891"/>
     </g>
    </g>
    <g id="line2d_44">
     <path d="M 815.08 343.176562 
L 825.08 343.176562 
L 835.08 343.176562 
" style="fill: none; stroke: #ff7f0e; stroke-width: 1.5; stroke-linecap: square"/>
    </g>
    <g id="text_23">
     <!-- fork -->
     <g style="fill: #a9a9a9" transform="translate(843.08 346.676562) scale(0.1 -0.1)">
      <defs>
       <path id="DejaVuSans-66" d="M 2375 4863 
L 2375 4384 
L 1825 4384 
Q 1516 4384 1395 4259 
Q 1275 4134 1275 3809 
L 1275 3500 
L 2222 3500 
L 2222 3053 
L 1275 3053 
L 1275 0 
L 697 0 
L 697 3053 
L 147 3053 
L 147 3500 
L 697 3500 
L 697 3744 
Q 697 4328 969 4595 
Q 1241 4863 1831 4863 
L 2375 4863 
z
" transform="scale(0.015625)"/>
       <path id="DejaVuSans-6b" d="M 581 4863 
L 1159 4863 
L 1159 1991 
L 2875 3500 
L 3609 3500 
L 1753 1863 
L 3688 0 
L 2938 0 
L 1159 1709 
L 1159 0 
L 581 0 
L 581 4863 
z
" transform="scale(0.015625)"/>
      </defs>
      <use xlink:href="#DejaVuSans-66"/>
      <use xlink:href="#DejaVuSans-6f" x="35.205078"/>
      <use xlink:href="#DejaVuSans-72" x="96.386719"/>
      <use xlink:href="#DejaVuSans-6b" x="137.5"/>
     </g>
    </g>
   </g>
  </g>
 </g>
 <defs>
  <clipPath id="p5c953c9560">
   <rect x="108" y="43.2" width="669.6" height="277.2"/>
  </clipPath>
 </defs>
</svg>
