<?xml version="1.0" encoding="utf-8" standalone="no"?>
<!DOCTYPE svg PUBLIC "-//W3C//DTD SVG 1.1//EN"
  "http://www.w3.org/Graphics/SVG/1.1/DTD/svg11.dtd">
<svg xmlns:xlink="http://www.w3.org/1999/xlink" width="864pt" height="360pt" viewBox="0 0 864 360" xmlns="http://www.w3.org/2000/svg" version="1.1">
 <metadata>
  <rdf:RDF xmlns:dc="http://purl.org/dc/elements/1.1/" xmlns:cc="http://creativecommons.org/ns#" xmlns:rdf="http://www.w3.org/1999/02/22-rdf-syntax-ns#">
   <cc:Work>
    <dc:type rdf:resource="http://purl.org/dc/dcmitype/StillImage"/>
    <dc:date>2023-01-11T08:58:04.936733</dc:date>
    <dc:format>image/svg+xml</dc:format>
    <dc:creator>
     <cc:Agent>
      <dc:title>Matplotlib v3.6.2, https://matplotlib.org/</dc:title>
     </cc:Agent>
    </dc:creator>
   </cc:Work>
  </rdf:RDF>
 </metadata>
 <defs>
  <style type="text/css">*{stroke-linejoin: round; stroke-linecap: butt}</style>
 </defs>
 <g id="figure_1">
  <g id="patch_1">
   <path d="M 0 360 
L 864 360 
L 864 0 
L 0 0 
L 0 360 
z
" style="fill: none; opacity: 0"/>
  </g>
  <g id="axes_1">
   <g id="patch_2">
    <path d="M 108 320.4 
L 777.6 320.4 
L 777.6 43.2 
L 108 43.2 
L 108 320.4 
z
" style="fill: none; opacity: 0"/>
   </g>
   <g id="matplotlib.axis_1">
    <g id="xtick_1">
     <g id="line2d_1">
      <path d="M 112.315604 320.4 
L 112.315604 43.2 
" clip-path="url(#p6bf0244245)" style="fill: none; stroke-dasharray: 5.12,1.28,0.8,1.28; stroke-dashoffset: 0; stroke: #b0b0b0; stroke-width: 0.8"/>
     </g>
     <g id="line2d_2">
      <defs>
       <path id="m09cf44eefc" d="M 0 0 
L 0 3.5 
" style="stroke: #a9a9a9; stroke-width: 0.8"/>
      </defs>
      <g>
       <use xlink:href="#m09cf44eefc" x="112.315604" y="320.4" style="fill: #a9a9a9; stroke: #a9a9a9; stroke-width: 0.8"/>
      </g>
     </g>
     <g id="text_1">
      <!-- 2021-07 -->
      <g style="fill: #a9a9a9" transform="translate(91.424198 334.998438) scale(0.1 -0.1)">
       <defs>
        <path id="DejaVuSans-32" d="M 1228 531 
L 3431 531 
L 3431 0 
L 469 0 
L 469 531 
Q 828 903 1448 1529 
Q 2069 2156 2228 2338 
Q 2531 2678 2651 2914 
Q 2772 3150 2772 3378 
Q 2772 3750 2511 3984 
Q 2250 4219 1831 4219 
Q 1534 4219 1204 4116 
Q 875 4013 500 3803 
L 500 4441 
Q 881 4594 1212 4672 
Q 1544 4750 1819 4750 
Q 2544 4750 2975 4387 
Q 3406 4025 3406 3419 
Q 3406 3131 3298 2873 
Q 3191 2616 2906 2266 
Q 2828 2175 2409 1742 
Q 1991 1309 1228 531 
z
" transform="scale(0.015625)"/>
        <path id="DejaVuSans-30" d="M 2034 4250 
Q 1547 4250 1301 3770 
Q 1056 3291 1056 2328 
Q 1056 1369 1301 889 
Q 1547 409 2034 409 
Q 2525 409 2770 889 
Q 3016 1369 3016 2328 
Q 3016 3291 2770 3770 
Q 2525 4250 2034 4250 
z
M 2034 4750 
Q 2819 4750 3233 4129 
Q 3647 3509 3647 2328 
Q 3647 1150 3233 529 
Q 2819 -91 2034 -91 
Q 1250 -91 836 529 
Q 422 1150 422 2328 
Q 422 3509 836 4129 
Q 1250 4750 2034 4750 
z
" transform="scale(0.015625)"/>
        <path id="DejaVuSans-31" d="M 794 531 
L 1825 531 
L 1825 4091 
L 703 3866 
L 703 4441 
L 1819 4666 
L 2450 4666 
L 2450 531 
L 3481 531 
L 3481 0 
L 794 0 
L 794 531 
z
" transform="scale(0.015625)"/>
        <path id="DejaVuSans-2d" d="M 313 2009 
L 1997 2009 
L 1997 1497 
L 313 1497 
L 313 2009 
z
" transform="scale(0.015625)"/>
        <path id="DejaVuSans-37" d="M 525 4666 
L 3525 4666 
L 3525 4397 
L 1831 0 
L 1172 0 
L 2766 4134 
L 525 4134 
L 525 4666 
z
" transform="scale(0.015625)"/>
       </defs>
       <use xlink:href="#DejaVuSans-32"/>
       <use xlink:href="#DejaVuSans-30" x="63.623047"/>
       <use xlink:href="#DejaVuSans-32" x="127.246094"/>
       <use xlink:href="#DejaVuSans-31" x="190.869141"/>
       <use xlink:href="#DejaVuSans-2d" x="254.492188"/>
       <use xlink:href="#DejaVuSans-30" x="290.576172"/>
       <use xlink:href="#DejaVuSans-37" x="354.199219"/>
      </g>
     </g>
    </g>
    <g id="xtick_2">
     <g id="line2d_3">
      <path d="M 182.728087 320.4 
L 182.728087 43.2 
" clip-path="url(#p6bf0244245)" style="fill: none; stroke-dasharray: 5.12,1.28,0.8,1.28; stroke-dashoffset: 0; stroke: #b0b0b0; stroke-width: 0.8"/>
     </g>
     <g id="line2d_4">
      <g>
       <use xlink:href="#m09cf44eefc" x="182.728087" y="320.4" style="fill: #a9a9a9; stroke: #a9a9a9; stroke-width: 0.8"/>
      </g>
     </g>
     <g id="text_2">
      <!-- 2021-09 -->
      <g style="fill: #a9a9a9" transform="translate(161.836681 334.998438) scale(0.1 -0.1)">
       <defs>
        <path id="DejaVuSans-39" d="M 703 97 
L 703 672 
Q 941 559 1184 500 
Q 1428 441 1663 441 
Q 2288 441 2617 861 
Q 2947 1281 2994 2138 
Q 2813 1869 2534 1725 
Q 2256 1581 1919 1581 
Q 1219 1581 811 2004 
Q 403 2428 403 3163 
Q 403 3881 828 4315 
Q 1253 4750 1959 4750 
Q 2769 4750 3195 4129 
Q 3622 3509 3622 2328 
Q 3622 1225 3098 567 
Q 2575 -91 1691 -91 
Q 1453 -91 1209 -44 
Q 966 3 703 97 
z
M 1959 2075 
Q 2384 2075 2632 2365 
Q 2881 2656 2881 3163 
Q 2881 3666 2632 3958 
Q 2384 4250 1959 4250 
Q 1534 4250 1286 3958 
Q 1038 3666 1038 3163 
Q 1038 2656 1286 2365 
Q 1534 2075 1959 2075 
z
" transform="scale(0.015625)"/>
       </defs>
       <use xlink:href="#DejaVuSans-32"/>
       <use xlink:href="#DejaVuSans-30" x="63.623047"/>
       <use xlink:href="#DejaVuSans-32" x="127.246094"/>
       <use xlink:href="#DejaVuSans-31" x="190.869141"/>
       <use xlink:href="#DejaVuSans-2d" x="254.492188"/>
       <use xlink:href="#DejaVuSans-30" x="290.576172"/>
       <use xlink:href="#DejaVuSans-39" x="354.199219"/>
      </g>
     </g>
    </g>
    <g id="xtick_3">
     <g id="line2d_5">
      <path d="M 252.004885 320.4 
L 252.004885 43.2 
" clip-path="url(#p6bf0244245)" style="fill: none; stroke-dasharray: 5.12,1.28,0.8,1.28; stroke-dashoffset: 0; stroke: #b0b0b0; stroke-width: 0.8"/>
     </g>
     <g id="line2d_6">
      <g>
       <use xlink:href="#m09cf44eefc" x="252.004885" y="320.4" style="fill: #a9a9a9; stroke: #a9a9a9; stroke-width: 0.8"/>
      </g>
     </g>
     <g id="text_3">
      <!-- 2021-11 -->
      <g style="fill: #a9a9a9" transform="translate(231.113478 334.998438) scale(0.1 -0.1)">
       <use xlink:href="#DejaVuSans-32"/>
       <use xlink:href="#DejaVuSans-30" x="63.623047"/>
       <use xlink:href="#DejaVuSans-32" x="127.246094"/>
       <use xlink:href="#DejaVuSans-31" x="190.869141"/>
       <use xlink:href="#DejaVuSans-2d" x="254.492188"/>
       <use xlink:href="#DejaVuSans-31" x="290.576172"/>
       <use xlink:href="#DejaVuSans-31" x="354.199219"/>
      </g>
     </g>
    </g>
    <g id="xtick_4">
     <g id="line2d_7">
      <path d="M 321.281682 320.4 
L 321.281682 43.2 
" clip-path="url(#p6bf0244245)" style="fill: none; stroke-dasharray: 5.12,1.28,0.8,1.28; stroke-dashoffset: 0; stroke: #b0b0b0; stroke-width: 0.8"/>
     </g>
     <g id="line2d_8">
      <g>
       <use xlink:href="#m09cf44eefc" x="321.281682" y="320.4" style="fill: #a9a9a9; stroke: #a9a9a9; stroke-width: 0.8"/>
      </g>
     </g>
     <g id="text_4">
      <!-- 2022-01 -->
      <g style="fill: #a9a9a9" transform="translate(300.390276 334.998438) scale(0.1 -0.1)">
       <use xlink:href="#DejaVuSans-32"/>
       <use xlink:href="#DejaVuSans-30" x="63.623047"/>
       <use xlink:href="#DejaVuSans-32" x="127.246094"/>
       <use xlink:href="#DejaVuSans-32" x="190.869141"/>
       <use xlink:href="#DejaVuSans-2d" x="254.492188"/>
       <use xlink:href="#DejaVuSans-30" x="290.576172"/>
       <use xlink:href="#DejaVuSans-31" x="354.199219"/>
      </g>
     </g>
    </g>
    <g id="xtick_5">
     <g id="line2d_9">
      <path d="M 388.28711 320.4 
L 388.28711 43.2 
" clip-path="url(#p6bf0244245)" style="fill: none; stroke-dasharray: 5.12,1.28,0.8,1.28; stroke-dashoffset: 0; stroke: #b0b0b0; stroke-width: 0.8"/>
     </g>
     <g id="line2d_10">
      <g>
       <use xlink:href="#m09cf44eefc" x="388.28711" y="320.4" style="fill: #a9a9a9; stroke: #a9a9a9; stroke-width: 0.8"/>
      </g>
     </g>
     <g id="text_5">
      <!-- 2022-03 -->
      <g style="fill: #a9a9a9" transform="translate(367.395704 334.998438) scale(0.1 -0.1)">
       <defs>
        <path id="DejaVuSans-33" d="M 2597 2516 
Q 3050 2419 3304 2112 
Q 3559 1806 3559 1356 
Q 3559 666 3084 287 
Q 2609 -91 1734 -91 
Q 1441 -91 1130 -33 
Q 819 25 488 141 
L 488 750 
Q 750 597 1062 519 
Q 1375 441 1716 441 
Q 2309 441 2620 675 
Q 2931 909 2931 1356 
Q 2931 1769 2642 2001 
Q 2353 2234 1838 2234 
L 1294 2234 
L 1294 2753 
L 1863 2753 
Q 2328 2753 2575 2939 
Q 2822 3125 2822 3475 
Q 2822 3834 2567 4026 
Q 2313 4219 1838 4219 
Q 1578 4219 1281 4162 
Q 984 4106 628 3988 
L 628 4550 
Q 988 4650 1302 4700 
Q 1616 4750 1894 4750 
Q 2613 4750 3031 4423 
Q 3450 4097 3450 3541 
Q 3450 3153 3228 2886 
Q 3006 2619 2597 2516 
z
" transform="scale(0.015625)"/>
       </defs>
       <use xlink:href="#DejaVuSans-32"/>
       <use xlink:href="#DejaVuSans-30" x="63.623047"/>
       <use xlink:href="#DejaVuSans-32" x="127.246094"/>
       <use xlink:href="#DejaVuSans-32" x="190.869141"/>
       <use xlink:href="#DejaVuSans-2d" x="254.492188"/>
       <use xlink:href="#DejaVuSans-30" x="290.576172"/>
       <use xlink:href="#DejaVuSans-33" x="354.199219"/>
      </g>
     </g>
    </g>
    <g id="xtick_6">
     <g id="line2d_11">
      <path d="M 457.563908 320.4 
L 457.563908 43.2 
" clip-path="url(#p6bf0244245)" style="fill: none; stroke-dasharray: 5.12,1.28,0.8,1.28; stroke-dashoffset: 0; stroke: #b0b0b0; stroke-width: 0.8"/>
     </g>
     <g id="line2d_12">
      <g>
       <use xlink:href="#m09cf44eefc" x="457.563908" y="320.4" style="fill: #a9a9a9; stroke: #a9a9a9; stroke-width: 0.8"/>
      </g>
     </g>
     <g id="text_6">
      <!-- 2022-05 -->
      <g style="fill: #a9a9a9" transform="translate(436.672501 334.998438) scale(0.1 -0.1)">
       <defs>
        <path id="DejaVuSans-35" d="M 691 4666 
L 3169 4666 
L 3169 4134 
L 1269 4134 
L 1269 2991 
Q 1406 3038 1543 3061 
Q 1681 3084 1819 3084 
Q 2600 3084 3056 2656 
Q 3513 2228 3513 1497 
Q 3513 744 3044 326 
Q 2575 -91 1722 -91 
Q 1428 -91 1123 -41 
Q 819 9 494 109 
L 494 744 
Q 775 591 1075 516 
Q 1375 441 1709 441 
Q 2250 441 2565 725 
Q 2881 1009 2881 1497 
Q 2881 1984 2565 2268 
Q 2250 2553 1709 2553 
Q 1456 2553 1204 2497 
Q 953 2441 691 2322 
L 691 4666 
z
" transform="scale(0.015625)"/>
       </defs>
       <use xlink:href="#DejaVuSans-32"/>
       <use xlink:href="#DejaVuSans-30" x="63.623047"/>
       <use xlink:href="#DejaVuSans-32" x="127.246094"/>
       <use xlink:href="#DejaVuSans-32" x="190.869141"/>
       <use xlink:href="#DejaVuSans-2d" x="254.492188"/>
       <use xlink:href="#DejaVuSans-30" x="290.576172"/>
       <use xlink:href="#DejaVuSans-35" x="354.199219"/>
      </g>
     </g>
    </g>
    <g id="xtick_7">
     <g id="line2d_13">
      <path d="M 526.840706 320.4 
L 526.840706 43.2 
" clip-path="url(#p6bf0244245)" style="fill: none; stroke-dasharray: 5.12,1.28,0.8,1.28; stroke-dashoffset: 0; stroke: #b0b0b0; stroke-width: 0.8"/>
     </g>
     <g id="line2d_14">
      <g>
       <use xlink:href="#m09cf44eefc" x="526.840706" y="320.4" style="fill: #a9a9a9; stroke: #a9a9a9; stroke-width: 0.8"/>
      </g>
     </g>
     <g id="text_7">
      <!-- 2022-07 -->
      <g style="fill: #a9a9a9" transform="translate(505.949299 334.998438) scale(0.1 -0.1)">
       <use xlink:href="#DejaVuSans-32"/>
       <use xlink:href="#DejaVuSans-30" x="63.623047"/>
       <use xlink:href="#DejaVuSans-32" x="127.246094"/>
       <use xlink:href="#DejaVuSans-32" x="190.869141"/>
       <use xlink:href="#DejaVuSans-2d" x="254.492188"/>
       <use xlink:href="#DejaVuSans-30" x="290.576172"/>
       <use xlink:href="#DejaVuSans-37" x="354.199219"/>
      </g>
     </g>
    </g>
    <g id="xtick_8">
     <g id="line2d_15">
      <path d="M 597.253189 320.4 
L 597.253189 43.2 
" clip-path="url(#p6bf0244245)" style="fill: none; stroke-dasharray: 5.12,1.28,0.8,1.28; stroke-dashoffset: 0; stroke: #b0b0b0; stroke-width: 0.8"/>
     </g>
     <g id="line2d_16">
      <g>
       <use xlink:href="#m09cf44eefc" x="597.253189" y="320.4" style="fill: #a9a9a9; stroke: #a9a9a9; stroke-width: 0.8"/>
      </g>
     </g>
     <g id="text_8">
      <!-- 2022-09 -->
      <g style="fill: #a9a9a9" transform="translate(576.361782 334.998438) scale(0.1 -0.1)">
       <use xlink:href="#DejaVuSans-32"/>
       <use xlink:href="#DejaVuSans-30" x="63.623047"/>
       <use xlink:href="#DejaVuSans-32" x="127.246094"/>
       <use xlink:href="#DejaVuSans-32" x="190.869141"/>
       <use xlink:href="#DejaVuSans-2d" x="254.492188"/>
       <use xlink:href="#DejaVuSans-30" x="290.576172"/>
       <use xlink:href="#DejaVuSans-39" x="354.199219"/>
      </g>
     </g>
    </g>
    <g id="xtick_9">
     <g id="line2d_17">
      <path d="M 666.529986 320.4 
L 666.529986 43.2 
" clip-path="url(#p6bf0244245)" style="fill: none; stroke-dasharray: 5.12,1.28,0.8,1.28; stroke-dashoffset: 0; stroke: #b0b0b0; stroke-width: 0.8"/>
     </g>
     <g id="line2d_18">
      <g>
       <use xlink:href="#m09cf44eefc" x="666.529986" y="320.4" style="fill: #a9a9a9; stroke: #a9a9a9; stroke-width: 0.8"/>
      </g>
     </g>
     <g id="text_9">
      <!-- 2022-11 -->
      <g style="fill: #a9a9a9" transform="translate(645.63858 334.998438) scale(0.1 -0.1)">
       <use xlink:href="#DejaVuSans-32"/>
       <use xlink:href="#DejaVuSans-30" x="63.623047"/>
       <use xlink:href="#DejaVuSans-32" x="127.246094"/>
       <use xlink:href="#DejaVuSans-32" x="190.869141"/>
       <use xlink:href="#DejaVuSans-2d" x="254.492188"/>
       <use xlink:href="#DejaVuSans-31" x="290.576172"/>
       <use xlink:href="#DejaVuSans-31" x="354.199219"/>
      </g>
     </g>
    </g>
    <g id="xtick_10">
     <g id="line2d_19">
      <path d="M 735.806784 320.4 
L 735.806784 43.2 
" clip-path="url(#p6bf0244245)" style="fill: none; stroke-dasharray: 5.12,1.28,0.8,1.28; stroke-dashoffset: 0; stroke: #b0b0b0; stroke-width: 0.8"/>
     </g>
     <g id="line2d_20">
      <g>
       <use xlink:href="#m09cf44eefc" x="735.806784" y="320.4" style="fill: #a9a9a9; stroke: #a9a9a9; stroke-width: 0.8"/>
      </g>
     </g>
     <g id="text_10">
      <!-- 2023-01 -->
      <g style="fill: #a9a9a9" transform="translate(714.915378 334.998438) scale(0.1 -0.1)">
       <use xlink:href="#DejaVuSans-32"/>
       <use xlink:href="#DejaVuSans-30" x="63.623047"/>
       <use xlink:href="#DejaVuSans-32" x="127.246094"/>
       <use xlink:href="#DejaVuSans-33" x="190.869141"/>
       <use xlink:href="#DejaVuSans-2d" x="254.492188"/>
       <use xlink:href="#DejaVuSans-30" x="290.576172"/>
       <use xlink:href="#DejaVuSans-31" x="354.199219"/>
      </g>
     </g>
    </g>
   </g>
   <g id="matplotlib.axis_2">
    <g id="ytick_1">
     <g id="line2d_21">
      <path d="M 108 307.871146 
L 777.6 307.871146 
" clip-path="url(#p6bf0244245)" style="fill: none; stroke-dasharray: 5.12,1.28,0.8,1.28; stroke-dashoffset: 0; stroke: #b0b0b0; stroke-width: 0.8"/>
     </g>
     <g id="line2d_22">
      <defs>
       <path id="m3212377902" d="M 0 0 
L -3.5 0 
" style="stroke: #a9a9a9; stroke-width: 0.8"/>
      </defs>
      <g>
       <use xlink:href="#m3212377902" x="108" y="307.871146" style="fill: #a9a9a9; stroke: #a9a9a9; stroke-width: 0.8"/>
      </g>
     </g>
     <g id="text_11">
      <!-- 0 -->
      <g style="fill: #a9a9a9" transform="translate(94.6375 311.670365) scale(0.1 -0.1)">
       <use xlink:href="#DejaVuSans-30"/>
      </g>
     </g>
    </g>
    <g id="ytick_2">
     <g id="line2d_23">
      <path d="M 108 279.412648 
L 777.6 279.412648 
" clip-path="url(#p6bf0244245)" style="fill: none; stroke-dasharray: 5.12,1.28,0.8,1.28; stroke-dashoffset: 0; stroke: #b0b0b0; stroke-width: 0.8"/>
     </g>
     <g id="line2d_24">
      <g>
       <use xlink:href="#m3212377902" x="108" y="279.412648" style="fill: #a9a9a9; stroke: #a9a9a9; stroke-width: 0.8"/>
      </g>
     </g>
     <g id="text_12">
      <!-- 400 -->
      <g style="fill: #a9a9a9" transform="translate(81.9125 283.211867) scale(0.1 -0.1)">
       <defs>
        <path id="DejaVuSans-34" d="M 2419 4116 
L 825 1625 
L 2419 1625 
L 2419 4116 
z
M 2253 4666 
L 3047 4666 
L 3047 1625 
L 3713 1625 
L 3713 1100 
L 3047 1100 
L 3047 0 
L 2419 0 
L 2419 1100 
L 313 1100 
L 313 1709 
L 2253 4666 
z
" transform="scale(0.015625)"/>
       </defs>
       <use xlink:href="#DejaVuSans-34"/>
       <use xlink:href="#DejaVuSans-30" x="63.623047"/>
       <use xlink:href="#DejaVuSans-30" x="127.246094"/>
      </g>
     </g>
    </g>
    <g id="ytick_3">
     <g id="line2d_25">
      <path d="M 108 250.95415 
L 777.6 250.95415 
" clip-path="url(#p6bf0244245)" style="fill: none; stroke-dasharray: 5.12,1.28,0.8,1.28; stroke-dashoffset: 0; stroke: #b0b0b0; stroke-width: 0.8"/>
     </g>
     <g id="line2d_26">
      <g>
       <use xlink:href="#m3212377902" x="108" y="250.95415" style="fill: #a9a9a9; stroke: #a9a9a9; stroke-width: 0.8"/>
      </g>
     </g>
     <g id="text_13">
      <!-- 800 -->
      <g style="fill: #a9a9a9" transform="translate(81.9125 254.753369) scale(0.1 -0.1)">
       <defs>
        <path id="DejaVuSans-38" d="M 2034 2216 
Q 1584 2216 1326 1975 
Q 1069 1734 1069 1313 
Q 1069 891 1326 650 
Q 1584 409 2034 409 
Q 2484 409 2743 651 
Q 3003 894 3003 1313 
Q 3003 1734 2745 1975 
Q 2488 2216 2034 2216 
z
M 1403 2484 
Q 997 2584 770 2862 
Q 544 3141 544 3541 
Q 544 4100 942 4425 
Q 1341 4750 2034 4750 
Q 2731 4750 3128 4425 
Q 3525 4100 3525 3541 
Q 3525 3141 3298 2862 
Q 3072 2584 2669 2484 
Q 3125 2378 3379 2068 
Q 3634 1759 3634 1313 
Q 3634 634 3220 271 
Q 2806 -91 2034 -91 
Q 1263 -91 848 271 
Q 434 634 434 1313 
Q 434 1759 690 2068 
Q 947 2378 1403 2484 
z
M 1172 3481 
Q 1172 3119 1398 2916 
Q 1625 2713 2034 2713 
Q 2441 2713 2670 2916 
Q 2900 3119 2900 3481 
Q 2900 3844 2670 4047 
Q 2441 4250 2034 4250 
Q 1625 4250 1398 4047 
Q 1172 3844 1172 3481 
z
" transform="scale(0.015625)"/>
       </defs>
       <use xlink:href="#DejaVuSans-38"/>
       <use xlink:href="#DejaVuSans-30" x="63.623047"/>
       <use xlink:href="#DejaVuSans-30" x="127.246094"/>
      </g>
     </g>
    </g>
    <g id="ytick_4">
     <g id="line2d_27">
      <path d="M 108 222.495652 
L 777.6 222.495652 
" clip-path="url(#p6bf0244245)" style="fill: none; stroke-dasharray: 5.12,1.28,0.8,1.28; stroke-dashoffset: 0; stroke: #b0b0b0; stroke-width: 0.8"/>
     </g>
     <g id="line2d_28">
      <g>
       <use xlink:href="#m3212377902" x="108" y="222.495652" style="fill: #a9a9a9; stroke: #a9a9a9; stroke-width: 0.8"/>
      </g>
     </g>
     <g id="text_14">
      <!-- 1200 -->
      <g style="fill: #a9a9a9" transform="translate(75.55 226.294871) scale(0.1 -0.1)">
       <use xlink:href="#DejaVuSans-31"/>
       <use xlink:href="#DejaVuSans-32" x="63.623047"/>
       <use xlink:href="#DejaVuSans-30" x="127.246094"/>
       <use xlink:href="#DejaVuSans-30" x="190.869141"/>
      </g>
     </g>
    </g>
    <g id="ytick_5">
     <g id="line2d_29">
      <path d="M 108 194.037154 
L 777.6 194.037154 
" clip-path="url(#p6bf0244245)" style="fill: none; stroke-dasharray: 5.12,1.28,0.8,1.28; stroke-dashoffset: 0; stroke: #b0b0b0; stroke-width: 0.8"/>
     </g>
     <g id="line2d_30">
      <g>
       <use xlink:href="#m3212377902" x="108" y="194.037154" style="fill: #a9a9a9; stroke: #a9a9a9; stroke-width: 0.8"/>
      </g>
     </g>
     <g id="text_15">
      <!-- 1600 -->
      <g style="fill: #a9a9a9" transform="translate(75.55 197.836373) scale(0.1 -0.1)">
       <defs>
        <path id="DejaVuSans-36" d="M 2113 2584 
Q 1688 2584 1439 2293 
Q 1191 2003 1191 1497 
Q 1191 994 1439 701 
Q 1688 409 2113 409 
Q 2538 409 2786 701 
Q 3034 994 3034 1497 
Q 3034 2003 2786 2293 
Q 2538 2584 2113 2584 
z
M 3366 4563 
L 3366 3988 
Q 3128 4100 2886 4159 
Q 2644 4219 2406 4219 
Q 1781 4219 1451 3797 
Q 1122 3375 1075 2522 
Q 1259 2794 1537 2939 
Q 1816 3084 2150 3084 
Q 2853 3084 3261 2657 
Q 3669 2231 3669 1497 
Q 3669 778 3244 343 
Q 2819 -91 2113 -91 
Q 1303 -91 875 529 
Q 447 1150 447 2328 
Q 447 3434 972 4092 
Q 1497 4750 2381 4750 
Q 2619 4750 2861 4703 
Q 3103 4656 3366 4563 
z
" transform="scale(0.015625)"/>
       </defs>
       <use xlink:href="#DejaVuSans-31"/>
       <use xlink:href="#DejaVuSans-36" x="63.623047"/>
       <use xlink:href="#DejaVuSans-30" x="127.246094"/>
       <use xlink:href="#DejaVuSans-30" x="190.869141"/>
      </g>
     </g>
    </g>
    <g id="ytick_6">
     <g id="line2d_31">
      <path d="M 108 165.578656 
L 777.6 165.578656 
" clip-path="url(#p6bf0244245)" style="fill: none; stroke-dasharray: 5.12,1.28,0.8,1.28; stroke-dashoffset: 0; stroke: #b0b0b0; stroke-width: 0.8"/>
     </g>
     <g id="line2d_32">
      <g>
       <use xlink:href="#m3212377902" x="108" y="165.578656" style="fill: #a9a9a9; stroke: #a9a9a9; stroke-width: 0.8"/>
      </g>
     </g>
     <g id="text_16">
      <!-- 2000 -->
      <g style="fill: #a9a9a9" transform="translate(75.55 169.377875) scale(0.1 -0.1)">
       <use xlink:href="#DejaVuSans-32"/>
       <use xlink:href="#DejaVuSans-30" x="63.623047"/>
       <use xlink:href="#DejaVuSans-30" x="127.246094"/>
       <use xlink:href="#DejaVuSans-30" x="190.869141"/>
      </g>
     </g>
    </g>
    <g id="ytick_7">
     <g id="line2d_33">
      <path d="M 108 137.120158 
L 777.6 137.120158 
" clip-path="url(#p6bf0244245)" style="fill: none; stroke-dasharray: 5.12,1.28,0.8,1.28; stroke-dashoffset: 0; stroke: #b0b0b0; stroke-width: 0.8"/>
     </g>
     <g id="line2d_34">
      <g>
       <use xlink:href="#m3212377902" x="108" y="137.120158" style="fill: #a9a9a9; stroke: #a9a9a9; stroke-width: 0.8"/>
      </g>
     </g>
     <g id="text_17">
      <!-- 2400 -->
      <g style="fill: #a9a9a9" transform="translate(75.55 140.919377) scale(0.1 -0.1)">
       <use xlink:href="#DejaVuSans-32"/>
       <use xlink:href="#DejaVuSans-34" x="63.623047"/>
       <use xlink:href="#DejaVuSans-30" x="127.246094"/>
       <use xlink:href="#DejaVuSans-30" x="190.869141"/>
      </g>
     </g>
    </g>
    <g id="ytick_8">
     <g id="line2d_35">
      <path d="M 108 108.66166 
L 777.6 108.66166 
" clip-path="url(#p6bf0244245)" style="fill: none; stroke-dasharray: 5.12,1.28,0.8,1.28; stroke-dashoffset: 0; stroke: #b0b0b0; stroke-width: 0.8"/>
     </g>
     <g id="line2d_36">
      <g>
       <use xlink:href="#m3212377902" x="108" y="108.66166" style="fill: #a9a9a9; stroke: #a9a9a9; stroke-width: 0.8"/>
      </g>
     </g>
     <g id="text_18">
      <!-- 2800 -->
      <g style="fill: #a9a9a9" transform="translate(75.55 112.460879) scale(0.1 -0.1)">
       <use xlink:href="#DejaVuSans-32"/>
       <use xlink:href="#DejaVuSans-38" x="63.623047"/>
       <use xlink:href="#DejaVuSans-30" x="127.246094"/>
       <use xlink:href="#DejaVuSans-30" x="190.869141"/>
      </g>
     </g>
    </g>
    <g id="ytick_9">
     <g id="line2d_37">
      <path d="M 108 80.203162 
L 777.6 80.203162 
" clip-path="url(#p6bf0244245)" style="fill: none; stroke-dasharray: 5.12,1.28,0.8,1.28; stroke-dashoffset: 0; stroke: #b0b0b0; stroke-width: 0.8"/>
     </g>
     <g id="line2d_38">
      <g>
       <use xlink:href="#m3212377902" x="108" y="80.203162" style="fill: #a9a9a9; stroke: #a9a9a9; stroke-width: 0.8"/>
      </g>
     </g>
     <g id="text_19">
      <!-- 3200 -->
      <g style="fill: #a9a9a9" transform="translate(75.55 84.002381) scale(0.1 -0.1)">
       <use xlink:href="#DejaVuSans-33"/>
       <use xlink:href="#DejaVuSans-32" x="63.623047"/>
       <use xlink:href="#DejaVuSans-30" x="127.246094"/>
       <use xlink:href="#DejaVuSans-30" x="190.869141"/>
      </g>
     </g>
    </g>
    <g id="ytick_10">
     <g id="line2d_39">
      <path d="M 108 51.744664 
L 777.6 51.744664 
" clip-path="url(#p6bf0244245)" style="fill: none; stroke-dasharray: 5.12,1.28,0.8,1.28; stroke-dashoffset: 0; stroke: #b0b0b0; stroke-width: 0.8"/>
     </g>
     <g id="line2d_40">
      <g>
       <use xlink:href="#m3212377902" x="108" y="51.744664" style="fill: #a9a9a9; stroke: #a9a9a9; stroke-width: 0.8"/>
      </g>
     </g>
     <g id="text_20">
      <!-- 3600 -->
      <g style="fill: #a9a9a9" transform="translate(75.55 55.543883) scale(0.1 -0.1)">
       <use xlink:href="#DejaVuSans-33"/>
       <use xlink:href="#DejaVuSans-36" x="63.623047"/>
       <use xlink:href="#DejaVuSans-30" x="127.246094"/>
       <use xlink:href="#DejaVuSans-30" x="190.869141"/>
      </g>
     </g>
    </g>
   </g>
   <g id="line2d_41">
    <path d="M 138.436364 307.586561 
L 142.979104 307.23083 
L 144.11479 307.088538 
L 145.250475 307.088538 
L 146.38616 306.66166 
L 148.657531 306.519368 
L 156.607327 305.025296 
L 158.878697 304.883004 
L 160.014383 304.669565 
L 163.421438 304.456126 
L 164.557123 303.886957 
L 165.692809 303.602372 
L 166.828494 302.321739 
L 167.964179 301.610277 
L 169.099864 299.120158 
L 170.23555 298.977866 
L 171.371235 298.195257 
L 172.50692 297.768379 
L 173.642605 297.199209 
L 177.049661 294.566798 
L 178.185346 293.997628 
L 180.456716 293.143874 
L 181.592402 292.361265 
L 182.728087 291.934387 
L 184.999457 290.582609 
L 186.135142 290.226877 
L 187.270828 288.519368 
L 188.406513 287.665613 
L 189.542198 287.025296 
L 190.677883 286.527273 
L 195.220624 285.886957 
L 198.62768 285.317787 
L 200.89905 285.175494 
L 202.034735 284.962055 
L 203.170421 284.392885 
L 207.713161 284.037154 
L 211.120217 283.681423 
L 212.255902 283.325692 
L 217.934328 282.258498 
L 220.205699 282.045059 
L 221.341384 281.760474 
L 224.74844 281.333597 
L 225.884125 280.764427 
L 227.01981 280.622134 
L 229.29118 279.839526 
L 231.562551 279.626087 
L 232.698236 279.270356 
L 237.240977 278.63004 
L 238.376662 278.274308 
L 240.648033 277.918577 
L 241.783718 277.918577 
L 247.462144 277.207115 
L 249.733514 276.566798 
L 250.869199 276.282213 
L 253.14057 276.068775 
L 254.276255 275.997628 
L 257.683311 275.357312 
L 258.818996 274.930435 
L 259.954681 273.50751 
L 261.090366 273.080632 
L 262.226052 272.511462 
L 263.361737 272.36917 
L 264.497422 272.084585 
L 265.633107 271.942292 
L 267.904478 271.017391 
L 269.040163 270.946245 
L 274.718589 269.52332 
L 275.854274 269.52332 
L 278.125645 269.238735 
L 280.397015 268.598419 
L 283.804071 267.744664 
L 284.939756 267.673518 
L 287.211126 266.748617 
L 288.346811 266.606324 
L 289.482497 266.1083 
L 291.753867 265.894862 
L 292.889552 265.823715 
L 296.296608 265.254545 
L 298.567978 264.898814 
L 301.975034 264.258498 
L 303.110719 263.902767 
L 304.246404 263.760474 
L 306.517775 262.977866 
L 307.65346 262.337549 
L 308.789145 262.052964 
L 309.92483 261.910672 
L 312.196201 261.199209 
L 314.467571 259.989723 
L 315.603256 259.278261 
L 316.738942 259.135968 
L 317.874627 258.780237 
L 319.010312 258.637945 
L 320.145997 258.35336 
L 321.281682 258.211067 
L 322.417368 257.713043 
L 324.688738 257.357312 
L 325.824423 256.788142 
L 326.960109 256.361265 
L 328.095794 256.07668 
L 329.231479 255.934387 
L 330.367164 255.50751 
L 334.909905 254.653755 
L 337.181275 253.728854 
L 338.316961 253.515415 
L 339.452646 253.088538 
L 340.588331 252.946245 
L 341.724016 252.448221 
L 342.859701 252.163636 
L 345.131072 252.021344 
L 347.402442 251.309881 
L 348.538128 251.167589 
L 349.673813 251.167589 
L 350.809498 250.669565 
L 353.080868 250.313834 
L 354.216554 249.886957 
L 356.487924 249.81581 
L 357.623609 249.673518 
L 358.759294 249.673518 
L 361.030665 249.317787 
L 363.302035 248.250593 
L 365.573406 247.254545 
L 366.709091 246.96996 
L 367.844776 246.258498 
L 368.980461 245.902767 
L 371.251832 244.906719 
L 372.387517 244.693281 
L 373.523202 244.195257 
L 374.658887 243.839526 
L 375.794573 243.128063 
L 376.930258 242.558893 
L 378.065943 241.420553 
L 379.201628 239.641897 
L 380.337313 238.290119 
L 381.472999 237.934387 
L 382.608684 237.934387 
L 383.744369 237.222925 
L 384.880054 236.36917 
L 386.015739 236.084585 
L 387.151425 235.515415 
L 388.28711 235.301976 
L 389.422795 234.305929 
L 390.55848 234.021344 
L 393.965536 232.527273 
L 395.101221 231.24664 
L 396.236906 229.610277 
L 397.372592 228.96996 
L 398.508277 227.191304 
L 399.643962 226.124111 
L 400.779647 225.626087 
L 401.915332 225.341502 
L 403.051018 224.63004 
L 405.322388 223.562846 
L 406.458073 222.780237 
L 408.729444 221.072727 
L 409.865129 220.432411 
L 411.000814 218.93834 
L 412.136499 216.448221 
L 413.272185 214.883004 
L 414.40787 214.029249 
L 415.543555 213.531225 
L 423.493351 207.199209 
L 424.629037 205.633992 
L 425.764722 204.637945 
L 428.036092 203.143874 
L 430.307463 201.649802 
L 431.443148 200.867194 
L 432.578833 199.942292 
L 433.714518 199.657708 
L 434.850204 199.159684 
L 435.985889 198.519368 
L 437.121574 198.021344 
L 439.392944 196.811858 
L 440.52863 196.313834 
L 442.8 194.392885 
L 443.935685 193.041107 
L 445.07137 192.258498 
L 446.207056 191.618182 
L 447.342741 191.333597 
L 448.478426 190.764427 
L 449.614111 189.981818 
L 451.885482 188.843478 
L 453.021167 188.63004 
L 454.156852 187.918577 
L 456.428223 186.780237 
L 457.563908 185.713043 
L 458.699593 184.930435 
L 459.835278 184.574704 
L 460.970963 183.863241 
L 462.106649 183.365217 
L 463.242334 182.653755 
L 464.378019 182.226877 
L 465.513704 181.515415 
L 466.649389 180.590514 
L 468.92076 179.807905 
L 470.056445 179.309881 
L 471.19213 179.096443 
L 472.327815 178.38498 
L 473.463501 178.171542 
L 475.734871 177.388933 
L 476.870556 177.033202 
L 479.141927 176.1083 
L 480.277612 175.681423 
L 481.413297 175.396838 
L 482.548982 174.96996 
L 484.820353 174.614229 
L 487.091723 172.764427 
L 488.227408 172.337549 
L 490.498779 171.128063 
L 492.770149 169.918577 
L 495.04152 169.278261 
L 496.177205 168.424506 
L 497.31289 168.139921 
L 499.584261 166.716996 
L 500.719946 166.147826 
L 504.127001 165.436364 
L 506.398372 164.796047 
L 509.805427 162.946245 
L 510.941113 162.803953 
L 512.076798 162.377075 
L 513.212483 162.234783 
L 514.348168 161.807905 
L 515.483853 161.096443 
L 516.619539 160.242688 
L 517.755224 159.531225 
L 518.890909 159.317787 
L 520.026594 158.890909 
L 521.16228 158.748617 
L 522.297965 158.321739 
L 523.43365 157.53913 
L 524.569335 157.183399 
L 525.70502 156.685375 
L 530.247761 155.475889 
L 531.383446 155.404743 
L 532.519132 155.049012 
L 534.790502 154.052964 
L 535.926187 153.697233 
L 537.061872 153.483794 
L 538.197558 152.985771 
L 539.333243 152.63004 
L 540.468928 152.132016 
L 542.740299 151.4917 
L 543.875984 151.420553 
L 546.147354 150.92253 
L 547.283039 150.424506 
L 548.418725 150.211067 
L 550.690095 149.286166 
L 554.097151 147.720949 
L 556.368521 146.298024 
L 557.504206 146.013439 
L 558.639891 145.373123 
L 559.775577 144.946245 
L 560.911262 144.305929 
L 563.182632 143.736759 
L 564.318318 143.096443 
L 565.454003 142.598419 
L 566.589688 142.242688 
L 568.861058 141.886957 
L 569.996744 141.104348 
L 571.132429 140.535178 
L 572.268114 140.321739 
L 573.403799 139.894862 
L 574.539484 139.325692 
L 575.67517 139.112253 
L 576.810855 138.543083 
L 581.353596 137.902767 
L 583.624966 136.906719 
L 584.760651 136.052964 
L 585.896336 134.132016 
L 587.032022 133.847431 
L 588.167707 133.705138 
L 589.303392 133.420553 
L 591.574763 132.211067 
L 592.710448 131.78419 
L 593.846133 131.21502 
L 594.981818 130.930435 
L 597.253189 129.863241 
L 599.524559 128.796047 
L 601.795929 127.871146 
L 602.931615 127.159684 
L 604.0673 126.732806 
L 605.202985 126.448221 
L 606.33867 126.305929 
L 607.474355 126.021344 
L 609.745726 124.95415 
L 610.881411 124.456126 
L 612.017096 124.242688 
L 615.424152 122.962055 
L 617.695522 121.610277 
L 618.831208 120.898814 
L 619.966893 120.329644 
L 621.102578 120.116206 
L 622.238263 119.760474 
L 623.373948 119.689328 
L 627.916689 118.266403 
L 629.052374 118.195257 
L 630.18806 117.412648 
L 631.323745 117.128063 
L 632.45943 116.63004 
L 635.866486 115.633992 
L 637.002171 114.993676 
L 638.137856 114.637945 
L 639.273541 113.926482 
L 640.409227 113.428458 
L 641.544912 112.788142 
L 647.223338 110.653755 
L 648.359023 110.013439 
L 649.494708 109.23083 
L 650.630393 108.021344 
L 651.766079 107.309881 
L 652.901764 107.096443 
L 655.173134 105.388933 
L 656.30882 105.033202 
L 657.444505 103.396838 
L 658.58019 102.96996 
L 659.715875 102.187352 
L 660.85156 101.973913 
L 661.987246 101.262451 
L 663.122931 100.764427 
L 664.258616 100.550988 
L 665.394301 100.124111 
L 666.529986 99.199209 
L 667.665672 98.843478 
L 669.937042 97.349407 
L 671.072727 96.637945 
L 672.208412 96.139921 
L 674.479783 94.930435 
L 675.615468 94.432411 
L 676.751153 94.290119 
L 677.886839 93.863241 
L 679.022524 93.294071 
L 680.158209 92.582609 
L 681.293894 90.875099 
L 682.429579 89.807905 
L 683.565265 89.167589 
L 684.70095 88.883004 
L 686.97232 87.602372 
L 688.108005 87.388933 
L 689.243691 86.819763 
L 692.650746 85.467984 
L 693.786431 84.898814 
L 696.057802 83.333597 
L 698.329172 81.056917 
L 699.464858 80.203162 
L 701.736228 78.851383 
L 702.871913 77.78419 
L 706.278969 75.222925 
L 707.414654 74.653755 
L 708.550339 73.444269 
L 709.686024 72.66166 
L 711.957395 71.879051 
L 713.09308 70.811858 
L 715.36445 69.744664 
L 716.500136 69.460079 
L 717.635821 68.67747 
L 718.771506 68.321739 
L 721.042877 67.325692 
L 723.314247 65.689328 
L 724.449932 65.120158 
L 726.721303 64.479842 
L 727.856988 63.839526 
L 732.399729 62.345455 
L 734.671099 61.420553 
L 735.806784 60.851383 
L 736.942469 59.926482 
L 741.48521 58.005534 
L 742.620896 57.578656 
L 743.756581 56.796047 
L 746.027951 55.8 
L 747.163636 55.8 
L 747.163636 55.8 
" clip-path="url(#p6bf0244245)" style="fill: none; stroke: #1f77b4; stroke-width: 1.5; stroke-linecap: square"/>
   </g>
   <g id="line2d_42">
    <path d="M 139.572049 307.8 
L 141.843419 307.8 
L 144.11479 307.515415 
L 150.928901 307.444269 
L 154.335957 307.301976 
L 157.743012 307.23083 
L 160.014383 307.159684 
L 163.421438 307.159684 
L 164.557123 306.875099 
L 167.964179 306.803953 
L 173.642605 306.163636 
L 182.728087 305.665613 
L 183.863772 305.665613 
L 184.999457 305.452174 
L 188.406513 305.381028 
L 190.677883 305.096443 
L 195.220624 305.096443 
L 196.356309 304.95415 
L 202.034735 304.883004 
L 205.441791 304.740711 
L 215.662958 304.669565 
L 217.934328 304.598419 
L 222.477069 304.527273 
L 225.884125 304.38498 
L 230.426866 304.38498 
L 231.562551 304.242688 
L 234.969607 304.171542 
L 239.512347 303.958103 
L 247.462144 303.886957 
L 249.733514 303.81581 
L 254.276255 303.744664 
L 257.683311 303.317787 
L 263.361737 303.24664 
L 269.040163 302.962055 
L 274.718589 302.890909 
L 278.125645 302.748617 
L 280.397015 302.67747 
L 282.668385 302.464032 
L 287.211126 302.250593 
L 290.618182 302.179447 
L 292.889552 302.1083 
L 295.160923 302.1083 
L 296.296608 301.966008 
L 299.703664 301.966008 
L 301.975034 301.752569 
L 305.38209 301.610277 
L 311.060516 301.53913 
L 315.603256 301.041107 
L 316.738942 300.96996 
L 317.874627 300.756522 
L 322.417368 300.685375 
L 325.824423 300.400791 
L 328.095794 300.187352 
L 333.77422 299.902767 
L 337.181275 299.831621 
L 340.588331 299.689328 
L 341.724016 299.689328 
L 343.995387 299.475889 
L 346.266757 299.404743 
L 347.402442 299.404743 
L 348.538128 299.262451 
L 350.809498 299.191304 
L 356.487924 298.906719 
L 358.759294 298.835573 
L 362.16635 298.693281 
L 365.573406 298.622134 
L 367.844776 298.550988 
L 373.523202 298.479842 
L 378.065943 297.981818 
L 379.201628 297.981818 
L 381.472999 297.768379 
L 383.744369 297.697233 
L 389.422795 297.270356 
L 390.55848 296.985771 
L 392.829851 296.843478 
L 393.965536 296.558893 
L 397.372592 296.274308 
L 399.643962 295.776285 
L 401.915332 295.705138 
L 404.186703 295.705138 
L 405.322388 295.562846 
L 406.458073 295.562846 
L 408.729444 295.207115 
L 413.272185 294.424506 
L 414.40787 294.424506 
L 415.543555 294.282213 
L 418.950611 294.211067 
L 433.714518 293.286166 
L 434.850204 293.072727 
L 438.257259 292.859289 
L 440.52863 292.503557 
L 442.8 292.290119 
L 445.07137 292.218972 
L 447.342741 292.218972 
L 448.478426 291.934387 
L 449.614111 291.792095 
L 454.156852 291.720949 
L 456.428223 291.50751 
L 457.563908 291.50751 
L 460.970963 291.009486 
L 462.106649 290.724901 
L 463.242334 290.582609 
L 465.513704 290.511462 
L 471.19213 290.226877 
L 474.599186 290.155731 
L 489.363094 289.301976 
L 491.634464 289.301976 
L 493.905834 289.088538 
L 496.177205 289.088538 
L 499.584261 288.732806 
L 504.127001 288.519368 
L 506.398372 288.448221 
L 507.534057 288.305929 
L 512.076798 288.234783 
L 520.026594 287.807905 
L 525.70502 287.736759 
L 527.976391 287.665613 
L 529.112076 287.665613 
L 530.247761 287.452174 
L 532.519132 287.381028 
L 539.333243 287.309881 
L 542.740299 287.167589 
L 547.283039 287.096443 
L 548.418725 286.883004 
L 555.232836 286.811858 
L 557.504206 286.740711 
L 559.775577 286.669565 
L 562.046947 286.598419 
L 564.318318 286.527273 
L 573.403799 286.029249 
L 579.082225 285.958103 
L 582.489281 285.673518 
L 584.760651 285.460079 
L 587.032022 285.388933 
L 589.303392 285.317787 
L 590.439077 285.175494 
L 593.846133 285.104348 
L 594.981818 284.819763 
L 599.524559 284.606324 
L 609.745726 284.535178 
L 615.424152 284.1083 
L 618.831208 283.752569 
L 624.509634 283.681423 
L 627.916689 283.325692 
L 634.730801 282.96996 
L 637.002171 282.898814 
L 641.544912 282.685375 
L 646.087653 282.614229 
L 649.494708 282.471937 
L 654.037449 282.400791 
L 657.444505 282.045059 
L 659.715875 281.973913 
L 664.258616 281.902767 
L 667.665672 281.618182 
L 668.801357 281.475889 
L 669.937042 281.475889 
L 671.072727 281.262451 
L 673.344098 281.191304 
L 677.886839 281.120158 
L 680.158209 280.764427 
L 690.379376 280.693281 
L 692.650746 280.479842 
L 693.786431 280.337549 
L 696.057802 280.266403 
L 698.329172 280.195257 
L 699.464858 279.910672 
L 701.736228 279.839526 
L 702.871913 279.626087 
L 705.143284 279.626087 
L 708.550339 279.270356 
L 733.535414 277.776285 
L 743.756581 277.705138 
L 746.027951 277.633992 
L 747.163636 277.633992 
L 747.163636 277.633992 
" clip-path="url(#p6bf0244245)" style="fill: none; stroke: #ff7f0e; stroke-width: 1.5; stroke-linecap: square"/>
   </g>
   <g id="patch_3">
    <path d="M 108 320.4 
L 108 43.2 
" style="fill: none; stroke: #a9a9a9; stroke-width: 0.8; stroke-linejoin: miter; stroke-linecap: square"/>
   </g>
   <g id="patch_4">
    <path d="M 777.6 320.4 
L 777.6 43.2 
" style="fill: none"/>
   </g>
   <g id="patch_5">
    <path d="M 108 320.4 
L 777.6 320.4 
" style="fill: none; stroke: #a9a9a9; stroke-width: 0.8; stroke-linejoin: miter; stroke-linecap: square"/>
   </g>
   <g id="patch_6">
    <path d="M 108 43.2 
L 777.6 43.2 
" style="fill: none"/>
   </g>
   <g id="text_21">
    <!-- get_subscribe history -->
    <g style="fill: #a9a9a9" transform="translate(378.6075 37.2) scale(0.12 -0.12)">
     <defs>
      <path id="DejaVuSans-67" d="M 2906 1791 
Q 2906 2416 2648 2759 
Q 2391 3103 1925 3103 
Q 1463 3103 1205 2759 
Q 947 2416 947 1791 
Q 947 1169 1205 825 
Q 1463 481 1925 481 
Q 2391 481 2648 825 
Q 2906 1169 2906 1791 
z
M 3481 434 
Q 3481 -459 3084 -895 
Q 2688 -1331 1869 -1331 
Q 1566 -1331 1297 -1286 
Q 1028 -1241 775 -1147 
L 775 -588 
Q 1028 -725 1275 -790 
Q 1522 -856 1778 -856 
Q 2344 -856 2625 -561 
Q 2906 -266 2906 331 
L 2906 616 
Q 2728 306 2450 153 
Q 2172 0 1784 0 
Q 1141 0 747 490 
Q 353 981 353 1791 
Q 353 2603 747 3093 
Q 1141 3584 1784 3584 
Q 2172 3584 2450 3431 
Q 2728 3278 2906 2969 
L 2906 3500 
L 3481 3500 
L 3481 434 
z
" transform="scale(0.015625)"/>
      <path id="DejaVuSans-65" d="M 3597 1894 
L 3597 1613 
L 953 1613 
Q 991 1019 1311 708 
Q 1631 397 2203 397 
Q 2534 397 2845 478 
Q 3156 559 3463 722 
L 3463 178 
Q 3153 47 2828 -22 
Q 2503 -91 2169 -91 
Q 1331 -91 842 396 
Q 353 884 353 1716 
Q 353 2575 817 3079 
Q 1281 3584 2069 3584 
Q 2775 3584 3186 3129 
Q 3597 2675 3597 1894 
z
M 3022 2063 
Q 3016 2534 2758 2815 
Q 2500 3097 2075 3097 
Q 1594 3097 1305 2825 
Q 1016 2553 972 2059 
L 3022 2063 
z
" transform="scale(0.015625)"/>
      <path id="DejaVuSans-74" d="M 1172 4494 
L 1172 3500 
L 2356 3500 
L 2356 3053 
L 1172 3053 
L 1172 1153 
Q 1172 725 1289 603 
Q 1406 481 1766 481 
L 2356 481 
L 2356 0 
L 1766 0 
Q 1100 0 847 248 
Q 594 497 594 1153 
L 594 3053 
L 172 3053 
L 172 3500 
L 594 3500 
L 594 4494 
L 1172 4494 
z
" transform="scale(0.015625)"/>
      <path id="DejaVuSans-5f" d="M 3263 -1063 
L 3263 -1509 
L -63 -1509 
L -63 -1063 
L 3263 -1063 
z
" transform="scale(0.015625)"/>
      <path id="DejaVuSans-73" d="M 2834 3397 
L 2834 2853 
Q 2591 2978 2328 3040 
Q 2066 3103 1784 3103 
Q 1356 3103 1142 2972 
Q 928 2841 928 2578 
Q 928 2378 1081 2264 
Q 1234 2150 1697 2047 
L 1894 2003 
Q 2506 1872 2764 1633 
Q 3022 1394 3022 966 
Q 3022 478 2636 193 
Q 2250 -91 1575 -91 
Q 1294 -91 989 -36 
Q 684 19 347 128 
L 347 722 
Q 666 556 975 473 
Q 1284 391 1588 391 
Q 1994 391 2212 530 
Q 2431 669 2431 922 
Q 2431 1156 2273 1281 
Q 2116 1406 1581 1522 
L 1381 1569 
Q 847 1681 609 1914 
Q 372 2147 372 2553 
Q 372 3047 722 3315 
Q 1072 3584 1716 3584 
Q 2034 3584 2315 3537 
Q 2597 3491 2834 3397 
z
" transform="scale(0.015625)"/>
      <path id="DejaVuSans-75" d="M 544 1381 
L 544 3500 
L 1119 3500 
L 1119 1403 
Q 1119 906 1312 657 
Q 1506 409 1894 409 
Q 2359 409 2629 706 
Q 2900 1003 2900 1516 
L 2900 3500 
L 3475 3500 
L 3475 0 
L 2900 0 
L 2900 538 
Q 2691 219 2414 64 
Q 2138 -91 1772 -91 
Q 1169 -91 856 284 
Q 544 659 544 1381 
z
M 1991 3584 
L 1991 3584 
z
" transform="scale(0.015625)"/>
      <path id="DejaVuSans-62" d="M 3116 1747 
Q 3116 2381 2855 2742 
Q 2594 3103 2138 3103 
Q 1681 3103 1420 2742 
Q 1159 2381 1159 1747 
Q 1159 1113 1420 752 
Q 1681 391 2138 391 
Q 2594 391 2855 752 
Q 3116 1113 3116 1747 
z
M 1159 2969 
Q 1341 3281 1617 3432 
Q 1894 3584 2278 3584 
Q 2916 3584 3314 3078 
Q 3713 2572 3713 1747 
Q 3713 922 3314 415 
Q 2916 -91 2278 -91 
Q 1894 -91 1617 61 
Q 1341 213 1159 525 
L 1159 0 
L 581 0 
L 581 4863 
L 1159 4863 
L 1159 2969 
z
" transform="scale(0.015625)"/>
      <path id="DejaVuSans-63" d="M 3122 3366 
L 3122 2828 
Q 2878 2963 2633 3030 
Q 2388 3097 2138 3097 
Q 1578 3097 1268 2742 
Q 959 2388 959 1747 
Q 959 1106 1268 751 
Q 1578 397 2138 397 
Q 2388 397 2633 464 
Q 2878 531 3122 666 
L 3122 134 
Q 2881 22 2623 -34 
Q 2366 -91 2075 -91 
Q 1284 -91 818 406 
Q 353 903 353 1747 
Q 353 2603 823 3093 
Q 1294 3584 2113 3584 
Q 2378 3584 2631 3529 
Q 2884 3475 3122 3366 
z
" transform="scale(0.015625)"/>
      <path id="DejaVuSans-72" d="M 2631 2963 
Q 2534 3019 2420 3045 
Q 2306 3072 2169 3072 
Q 1681 3072 1420 2755 
Q 1159 2438 1159 1844 
L 1159 0 
L 581 0 
L 581 3500 
L 1159 3500 
L 1159 2956 
Q 1341 3275 1631 3429 
Q 1922 3584 2338 3584 
Q 2397 3584 2469 3576 
Q 2541 3569 2628 3553 
L 2631 2963 
z
" transform="scale(0.015625)"/>
      <path id="DejaVuSans-69" d="M 603 3500 
L 1178 3500 
L 1178 0 
L 603 0 
L 603 3500 
z
M 603 4863 
L 1178 4863 
L 1178 4134 
L 603 4134 
L 603 4863 
z
" transform="scale(0.015625)"/>
      <path id="DejaVuSans-20" transform="scale(0.015625)"/>
      <path id="DejaVuSans-68" d="M 3513 2113 
L 3513 0 
L 2938 0 
L 2938 2094 
Q 2938 2591 2744 2837 
Q 2550 3084 2163 3084 
Q 1697 3084 1428 2787 
Q 1159 2491 1159 1978 
L 1159 0 
L 581 0 
L 581 4863 
L 1159 4863 
L 1159 2956 
Q 1366 3272 1645 3428 
Q 1925 3584 2291 3584 
Q 2894 3584 3203 3211 
Q 3513 2838 3513 2113 
z
" transform="scale(0.015625)"/>
      <path id="DejaVuSans-6f" d="M 1959 3097 
Q 1497 3097 1228 2736 
Q 959 2375 959 1747 
Q 959 1119 1226 758 
Q 1494 397 1959 397 
Q 2419 397 2687 759 
Q 2956 1122 2956 1747 
Q 2956 2369 2687 2733 
Q 2419 3097 1959 3097 
z
M 1959 3584 
Q 2709 3584 3137 3096 
Q 3566 2609 3566 1747 
Q 3566 888 3137 398 
Q 2709 -91 1959 -91 
Q 1206 -91 779 398 
Q 353 888 353 1747 
Q 353 2609 779 3096 
Q 1206 3584 1959 3584 
z
" transform="scale(0.015625)"/>
      <path id="DejaVuSans-79" d="M 2059 -325 
Q 1816 -950 1584 -1140 
Q 1353 -1331 966 -1331 
L 506 -1331 
L 506 -850 
L 844 -850 
Q 1081 -850 1212 -737 
Q 1344 -625 1503 -206 
L 1606 56 
L 191 3500 
L 800 3500 
L 1894 763 
L 2988 3500 
L 3597 3500 
L 2059 -325 
z
" transform="scale(0.015625)"/>
     </defs>
     <use xlink:href="#DejaVuSans-67"/>
     <use xlink:href="#DejaVuSans-65" x="63.476562"/>
     <use xlink:href="#DejaVuSans-74" x="125"/>
     <use xlink:href="#DejaVuSans-5f" x="164.208984"/>
     <use xlink:href="#DejaVuSans-73" x="214.208984"/>
     <use xlink:href="#DejaVuSans-75" x="266.308594"/>
     <use xlink:href="#DejaVuSans-62" x="329.6875"/>
     <use xlink:href="#DejaVuSans-73" x="393.164062"/>
     <use xlink:href="#DejaVuSans-63" x="445.263672"/>
     <use xlink:href="#DejaVuSans-72" x="500.244141"/>
     <use xlink:href="#DejaVuSans-69" x="541.357422"/>
     <use xlink:href="#DejaVuSans-62" x="569.140625"/>
     <use xlink:href="#DejaVuSans-65" x="632.617188"/>
     <use xlink:href="#DejaVuSans-20" x="694.140625"/>
     <use xlink:href="#DejaVuSans-68" x="725.927734"/>
     <use xlink:href="#DejaVuSans-69" x="789.306641"/>
     <use xlink:href="#DejaVuSans-73" x="817.089844"/>
     <use xlink:href="#DejaVuSans-74" x="869.189453"/>
     <use xlink:href="#DejaVuSans-6f" x="908.398438"/>
     <use xlink:href="#DejaVuSans-72" x="969.580078"/>
     <use xlink:href="#DejaVuSans-79" x="1010.693359"/>
    </g>
   </g>
   <g id="legend_1">
    <g id="line2d_43">
     <path d="M 815.08 328.498438 
L 825.08 328.498438 
L 835.08 328.498438 
" style="fill: none; stroke: #1f77b4; stroke-width: 1.5; stroke-linecap: square"/>
    </g>
    <g id="text_22">
     <!-- star -->
     <g style="fill: #a9a9a9" transform="translate(843.08 331.998438) scale(0.1 -0.1)">
      <defs>
       <path id="DejaVuSans-61" d="M 2194 1759 
Q 1497 1759 1228 1600 
Q 959 1441 959 1056 
Q 959 750 1161 570 
Q 1363 391 1709 391 
Q 2188 391 2477 730 
Q 2766 1069 2766 1631 
L 2766 1759 
L 2194 1759 
z
M 3341 1997 
L 3341 0 
L 2766 0 
L 2766 531 
Q 2569 213 2275 61 
Q 1981 -91 1556 -91 
Q 1019 -91 701 211 
Q 384 513 384 1019 
Q 384 1609 779 1909 
Q 1175 2209 1959 2209 
L 2766 2209 
L 2766 2266 
Q 2766 2663 2505 2880 
Q 2244 3097 1772 3097 
Q 1472 3097 1187 3025 
Q 903 2953 641 2809 
L 641 3341 
Q 956 3463 1253 3523 
Q 1550 3584 1831 3584 
Q 2591 3584 2966 3190 
Q 3341 2797 3341 1997 
z
" transform="scale(0.015625)"/>
      </defs>
      <use xlink:href="#DejaVuSans-73"/>
      <use xlink:href="#DejaVuSans-74" x="52.099609"/>
      <use xlink:href="#DejaVuSans-61" x="91.308594"/>
      <use xlink:href="#DejaVuSans-72" x="152.587891"/>
     </g>
    </g>
    <g id="line2d_44">
     <path d="M 815.08 343.176562 
L 825.08 343.176562 
L 835.08 343.176562 
" style="fill: none; stroke: #ff7f0e; stroke-width: 1.5; stroke-linecap: square"/>
    </g>
    <g id="text_23">
     <!-- fork -->
     <g style="fill: #a9a9a9" transform="translate(843.08 346.676562) scale(0.1 -0.1)">
      <defs>
       <path id="DejaVuSans-66" d="M 2375 4863 
L 2375 4384 
L 1825 4384 
Q 1516 4384 1395 4259 
Q 1275 4134 1275 3809 
L 1275 3500 
L 2222 3500 
L 2222 3053 
L 1275 3053 
L 1275 0 
L 697 0 
L 697 3053 
L 147 3053 
L 147 3500 
L 697 3500 
L 697 3744 
Q 697 4328 969 4595 
Q 1241 4863 1831 4863 
L 2375 4863 
z
" transform="scale(0.015625)"/>
       <path id="DejaVuSans-6b" d="M 581 4863 
L 1159 4863 
L 1159 1991 
L 2875 3500 
L 3609 3500 
L 1753 1863 
L 3688 0 
L 2938 0 
L 1159 1709 
L 1159 0 
L 581 0 
L 581 4863 
z
" transform="scale(0.015625)"/>
      </defs>
      <use xlink:href="#DejaVuSans-66"/>
      <use xlink:href="#DejaVuSans-6f" x="35.205078"/>
      <use xlink:href="#DejaVuSans-72" x="96.386719"/>
      <use xlink:href="#DejaVuSans-6b" x="137.5"/>
     </g>
    </g>
   </g>
  </g>
 </g>
 <defs>
  <clipPath id="p6bf0244245">
   <rect x="108" y="43.2" width="669.6" height="277.2"/>
  </clipPath>
 </defs>
</svg>
